  0
SECTION
  2
HEADER
  9
$ACADVER
  1
AC1009
  9
$EXTMIN
 10
0.0
 20
0.0
 30
0.0
  9
$EXTMAX
 10
1000.0
 20
1000.0
 30
0.0
  9
$FILLMODE
 70
 0
  9
$SPLFRAME
 70
 1
  0
ENDSEC
  0
SECTION
  2
TABLES
  0
TABLE
  2
LAYER
 70
1
  0
LAYER
  2
0
 70
     0
 62
     7
  6
CONTINUOUS
  0
ENDTAB
  0
ENDSEC
  0
SECTION
  2
ENTITIES
  0
LINE
  8
0
 62
     0
 10
0.0950846
 20
76.4575
 30
0.0
 11
171.545
 21
76.4575
 31
0.0
  0
LINE
  8
0
 62
     0
 10
171.545
 20
76.4575
 30
0.0
 11
171.545
 21
0.257693
 31
0.0
  0
LINE
  8
0
 62
     0
 10
171.545
 20
0.257693
 30
0.0
 11
0.0950846
 21
0.257693
 31
0.0
  0
LINE
  8
0
 62
     0
 10
0.0950846
 20
0.257693
 30
0.0
 11
0.0950846
 21
76.4575
 31
0.0
  0
LINE
  8
0
 62
     0
 10
93.1072
 20
16.7831
 30
0.0
 11
93.1072
 21
15.7827
 31
0.0
  0
LINE
  8
0
 62
     0
 10
93.1072
 20
15.7827
 30
0.0
 11
92.3064
 21
15.7827
 31
0.0
  0
LINE
  8
0
 62
     0
 10
92.3064
 20
15.7827
 30
0.0
 11
92.3064
 21
12.6848
 31
0.0
  0
LINE
  8
0
 62
     0
 10
92.3064
 20
12.6848
 30
0.0
 11
93.1072
 21
12.6848
 31
0.0
  0
LINE
  8
0
 62
     0
 10
93.1072
 20
12.6848
 30
0.0
 11
93.1072
 21
6.88329
 31
0.0
  0
LINE
  8
0
 62
     0
 10
93.1072
 20
6.88329
 30
0.0
 11
92.3064
 21
6.88329
 31
0.0
  0
LINE
  8
0
 62
     0
 10
92.3064
 20
6.88329
 30
0.0
 11
92.3064
 21
3.78273
 31
0.0
  0
LINE
  8
0
 62
     0
 10
92.3064
 20
3.78273
 30
0.0
 11
93.1072
 21
3.78273
 31
0.0
  0
LINE
  8
0
 62
     0
 10
93.1072
 20
3.78273
 30
0.0
 11
93.1072
 21
2.78364
 31
0.0
  0
LINE
  8
0
 62
     0
 10
93.1072
 20
2.78364
 30
0.0
 11
107.107
 21
2.78364
 31
0.0
  0
LINE
  8
0
 62
     0
 10
107.107
 20
2.78364
 30
0.0
 11
107.107
 21
3.78273
 31
0.0
  0
LINE
  8
0
 62
     0
 10
107.107
 20
3.78273
 30
0.0
 11
107.906
 21
3.78273
 31
0.0
  0
LINE
  8
0
 62
     0
 10
107.906
 20
3.78273
 30
0.0
 11
107.906
 21
6.88329
 31
0.0
  0
LINE
  8
0
 62
     0
 10
107.906
 20
6.88329
 30
0.0
 11
107.107
 21
6.88329
 31
0.0
  0
LINE
  8
0
 62
     0
 10
107.107
 20
6.88329
 30
0.0
 11
107.107
 21
12.6848
 31
0.0
  0
LINE
  8
0
 62
     0
 10
107.107
 20
12.6848
 30
0.0
 11
107.906
 21
12.6848
 31
0.0
  0
LINE
  8
0
 62
     0
 10
107.906
 20
12.6848
 30
0.0
 11
107.906
 21
15.7827
 31
0.0
  0
LINE
  8
0
 62
     0
 10
107.906
 20
15.7827
 30
0.0
 11
107.107
 21
15.7827
 31
0.0
  0
LINE
  8
0
 62
     0
 10
107.107
 20
15.7827
 30
0.0
 11
107.107
 21
16.7831
 31
0.0
  0
LINE
  8
0
 62
     0
 10
107.107
 20
16.7831
 30
0.0
 11
93.1072
 21
16.7831
 31
0.0
  0
LINE
  8
0
 62
     0
 10
64.5322
 20
16.7831
 30
0.0
 11
64.5322
 21
15.7827
 31
0.0
  0
LINE
  8
0
 62
     0
 10
64.5322
 20
15.7827
 30
0.0
 11
63.7314
 21
15.7827
 31
0.0
  0
LINE
  8
0
 62
     0
 10
63.7314
 20
15.7827
 30
0.0
 11
63.7314
 21
12.6848
 31
0.0
  0
LINE
  8
0
 62
     0
 10
63.7314
 20
12.6848
 30
0.0
 11
64.5322
 21
12.6848
 31
0.0
  0
LINE
  8
0
 62
     0
 10
64.5322
 20
12.6848
 30
0.0
 11
64.5322
 21
6.88329
 31
0.0
  0
LINE
  8
0
 62
     0
 10
64.5322
 20
6.88329
 30
0.0
 11
63.7314
 21
6.88329
 31
0.0
  0
LINE
  8
0
 62
     0
 10
63.7314
 20
6.88329
 30
0.0
 11
63.7314
 21
3.78273
 31
0.0
  0
LINE
  8
0
 62
     0
 10
63.7314
 20
3.78273
 30
0.0
 11
64.5322
 21
3.78273
 31
0.0
  0
LINE
  8
0
 62
     0
 10
64.5322
 20
3.78273
 30
0.0
 11
64.5322
 21
2.78364
 31
0.0
  0
LINE
  8
0
 62
     0
 10
64.5322
 20
2.78364
 30
0.0
 11
78.5315
 21
2.78364
 31
0.0
  0
LINE
  8
0
 62
     0
 10
78.5315
 20
2.78364
 30
0.0
 11
78.5315
 21
3.78273
 31
0.0
  0
LINE
  8
0
 62
     0
 10
78.5315
 20
3.78273
 30
0.0
 11
79.3309
 21
3.78273
 31
0.0
  0
LINE
  8
0
 62
     0
 10
79.3309
 20
3.78273
 30
0.0
 11
79.3309
 21
6.88329
 31
0.0
  0
LINE
  8
0
 62
     0
 10
79.3309
 20
6.88329
 30
0.0
 11
78.5315
 21
6.88329
 31
0.0
  0
LINE
  8
0
 62
     0
 10
78.5315
 20
6.88329
 30
0.0
 11
78.5315
 21
12.6848
 31
0.0
  0
LINE
  8
0
 62
     0
 10
78.5315
 20
12.6848
 30
0.0
 11
79.3309
 21
12.6848
 31
0.0
  0
LINE
  8
0
 62
     0
 10
79.3309
 20
12.6848
 30
0.0
 11
79.3309
 21
15.7827
 31
0.0
  0
LINE
  8
0
 62
     0
 10
79.3309
 20
15.7827
 30
0.0
 11
78.5315
 21
15.7827
 31
0.0
  0
LINE
  8
0
 62
     0
 10
78.5315
 20
15.7827
 30
0.0
 11
78.5315
 21
16.7831
 31
0.0
  0
LINE
  8
0
 62
     0
 10
78.5315
 20
16.7831
 30
0.0
 11
64.5322
 21
16.7831
 31
0.0
  0
LINE
  8
0
 62
     0
 10
150.257
 20
35.833
 30
0.0
 11
150.257
 21
34.8327
 31
0.0
  0
LINE
  8
0
 62
     0
 10
150.257
 20
34.8327
 30
0.0
 11
149.456
 21
34.8327
 31
0.0
  0
LINE
  8
0
 62
     0
 10
149.456
 20
34.8327
 30
0.0
 11
149.456
 21
31.7335
 31
0.0
  0
LINE
  8
0
 62
     0
 10
149.456
 20
31.7335
 30
0.0
 11
150.257
 21
31.7335
 31
0.0
  0
LINE
  8
0
 62
     0
 10
150.257
 20
31.7335
 30
0.0
 11
150.257
 21
25.9333
 31
0.0
  0
LINE
  8
0
 62
     0
 10
150.257
 20
25.9333
 30
0.0
 11
149.456
 21
25.9333
 31
0.0
  0
LINE
  8
0
 62
     0
 10
149.456
 20
25.9333
 30
0.0
 11
149.456
 21
22.8327
 31
0.0
  0
LINE
  8
0
 62
     0
 10
149.456
 20
22.8327
 30
0.0
 11
150.257
 21
22.8327
 31
0.0
  0
LINE
  8
0
 62
     0
 10
150.257
 20
22.8327
 30
0.0
 11
150.257
 21
21.8336
 31
0.0
  0
LINE
  8
0
 62
     0
 10
150.257
 20
21.8336
 30
0.0
 11
164.257
 21
21.8336
 31
0.0
  0
LINE
  8
0
 62
     0
 10
164.257
 20
21.8336
 30
0.0
 11
164.257
 21
22.8327
 31
0.0
  0
LINE
  8
0
 62
     0
 10
164.257
 20
22.8327
 30
0.0
 11
165.056
 21
22.8327
 31
0.0
  0
LINE
  8
0
 62
     0
 10
165.056
 20
22.8327
 30
0.0
 11
165.056
 21
25.9333
 31
0.0
  0
LINE
  8
0
 62
     0
 10
165.056
 20
25.9333
 30
0.0
 11
164.257
 21
25.9333
 31
0.0
  0
LINE
  8
0
 62
     0
 10
164.257
 20
25.9333
 30
0.0
 11
164.257
 21
31.7335
 31
0.0
  0
LINE
  8
0
 62
     0
 10
164.257
 20
31.7335
 30
0.0
 11
165.056
 21
31.7335
 31
0.0
  0
LINE
  8
0
 62
     0
 10
165.056
 20
31.7335
 30
0.0
 11
165.056
 21
34.8327
 31
0.0
  0
LINE
  8
0
 62
     0
 10
165.056
 20
34.8327
 30
0.0
 11
164.257
 21
34.8327
 31
0.0
  0
LINE
  8
0
 62
     0
 10
164.257
 20
34.8327
 30
0.0
 11
164.257
 21
35.833
 31
0.0
  0
LINE
  8
0
 62
     0
 10
164.257
 20
35.833
 30
0.0
 11
150.257
 21
35.833
 31
0.0
  0
LINE
  8
0
 62
     0
 10
126.445
 20
35.833
 30
0.0
 11
126.445
 21
34.8327
 31
0.0
  0
LINE
  8
0
 62
     0
 10
126.445
 20
34.8327
 30
0.0
 11
125.644
 21
34.8327
 31
0.0
  0
LINE
  8
0
 62
     0
 10
125.644
 20
34.8327
 30
0.0
 11
125.644
 21
31.7335
 31
0.0
  0
LINE
  8
0
 62
     0
 10
125.644
 20
31.7335
 30
0.0
 11
126.445
 21
31.7335
 31
0.0
  0
LINE
  8
0
 62
     0
 10
126.445
 20
31.7335
 30
0.0
 11
126.445
 21
25.9333
 31
0.0
  0
LINE
  8
0
 62
     0
 10
126.445
 20
25.9333
 30
0.0
 11
125.644
 21
25.9333
 31
0.0
  0
LINE
  8
0
 62
     0
 10
125.644
 20
25.9333
 30
0.0
 11
125.644
 21
22.8327
 31
0.0
  0
LINE
  8
0
 62
     0
 10
125.644
 20
22.8327
 30
0.0
 11
126.445
 21
22.8327
 31
0.0
  0
LINE
  8
0
 62
     0
 10
126.445
 20
22.8327
 30
0.0
 11
126.445
 21
21.8336
 31
0.0
  0
LINE
  8
0
 62
     0
 10
126.445
 20
21.8336
 30
0.0
 11
140.444
 21
21.8336
 31
0.0
  0
LINE
  8
0
 62
     0
 10
140.444
 20
21.8336
 30
0.0
 11
140.444
 21
22.8327
 31
0.0
  0
LINE
  8
0
 62
     0
 10
140.444
 20
22.8327
 30
0.0
 11
141.245
 21
22.8327
 31
0.0
  0
LINE
  8
0
 62
     0
 10
141.245
 20
22.8327
 30
0.0
 11
141.245
 21
25.9333
 31
0.0
  0
LINE
  8
0
 62
     0
 10
141.245
 20
25.9333
 30
0.0
 11
140.444
 21
25.9333
 31
0.0
  0
LINE
  8
0
 62
     0
 10
140.444
 20
25.9333
 30
0.0
 11
140.444
 21
31.7335
 31
0.0
  0
LINE
  8
0
 62
     0
 10
140.444
 20
31.7335
 30
0.0
 11
141.245
 21
31.7335
 31
0.0
  0
LINE
  8
0
 62
     0
 10
141.245
 20
31.7335
 30
0.0
 11
141.245
 21
34.8327
 31
0.0
  0
LINE
  8
0
 62
     0
 10
141.245
 20
34.8327
 30
0.0
 11
140.444
 21
34.8327
 31
0.0
  0
LINE
  8
0
 62
     0
 10
140.444
 20
34.8327
 30
0.0
 11
140.444
 21
35.833
 31
0.0
  0
LINE
  8
0
 62
     0
 10
140.444
 20
35.833
 30
0.0
 11
126.445
 21
35.833
 31
0.0
  0
LINE
  8
0
 62
     0
 10
107.395
 20
35.833
 30
0.0
 11
107.395
 21
34.8327
 31
0.0
  0
LINE
  8
0
 62
     0
 10
107.395
 20
34.8327
 30
0.0
 11
106.594
 21
34.8327
 31
0.0
  0
LINE
  8
0
 62
     0
 10
106.594
 20
34.8327
 30
0.0
 11
106.594
 21
31.7335
 31
0.0
  0
LINE
  8
0
 62
     0
 10
106.594
 20
31.7335
 30
0.0
 11
107.395
 21
31.7335
 31
0.0
  0
LINE
  8
0
 62
     0
 10
107.395
 20
31.7335
 30
0.0
 11
107.395
 21
25.9333
 31
0.0
  0
LINE
  8
0
 62
     0
 10
107.395
 20
25.9333
 30
0.0
 11
106.594
 21
25.9333
 31
0.0
  0
LINE
  8
0
 62
     0
 10
106.594
 20
25.9333
 30
0.0
 11
106.594
 21
22.8327
 31
0.0
  0
LINE
  8
0
 62
     0
 10
106.594
 20
22.8327
 30
0.0
 11
107.395
 21
22.8327
 31
0.0
  0
LINE
  8
0
 62
     0
 10
107.395
 20
22.8327
 30
0.0
 11
107.395
 21
21.8336
 31
0.0
  0
LINE
  8
0
 62
     0
 10
107.395
 20
21.8336
 30
0.0
 11
121.394
 21
21.8336
 31
0.0
  0
LINE
  8
0
 62
     0
 10
121.394
 20
21.8336
 30
0.0
 11
121.394
 21
22.8327
 31
0.0
  0
LINE
  8
0
 62
     0
 10
121.394
 20
22.8327
 30
0.0
 11
122.195
 21
22.8327
 31
0.0
  0
LINE
  8
0
 62
     0
 10
122.195
 20
22.8327
 30
0.0
 11
122.195
 21
25.9333
 31
0.0
  0
LINE
  8
0
 62
     0
 10
122.195
 20
25.9333
 30
0.0
 11
121.394
 21
25.9333
 31
0.0
  0
LINE
  8
0
 62
     0
 10
121.394
 20
25.9333
 30
0.0
 11
121.394
 21
31.7335
 31
0.0
  0
LINE
  8
0
 62
     0
 10
121.394
 20
31.7335
 30
0.0
 11
122.195
 21
31.7335
 31
0.0
  0
LINE
  8
0
 62
     0
 10
122.195
 20
31.7335
 30
0.0
 11
122.195
 21
34.8327
 31
0.0
  0
LINE
  8
0
 62
     0
 10
122.195
 20
34.8327
 30
0.0
 11
121.394
 21
34.8327
 31
0.0
  0
LINE
  8
0
 62
     0
 10
121.394
 20
34.8327
 30
0.0
 11
121.394
 21
35.833
 31
0.0
  0
LINE
  8
0
 62
     0
 10
121.394
 20
35.833
 30
0.0
 11
107.395
 21
35.833
 31
0.0
  0
LINE
  8
0
 62
     0
 10
88.3447
 20
35.833
 30
0.0
 11
88.3447
 21
34.8327
 31
0.0
  0
LINE
  8
0
 62
     0
 10
88.3447
 20
34.8327
 30
0.0
 11
87.5439
 21
34.8327
 31
0.0
  0
LINE
  8
0
 62
     0
 10
87.5439
 20
34.8327
 30
0.0
 11
87.5439
 21
31.7335
 31
0.0
  0
LINE
  8
0
 62
     0
 10
87.5439
 20
31.7335
 30
0.0
 11
88.3447
 21
31.7335
 31
0.0
  0
LINE
  8
0
 62
     0
 10
88.3447
 20
31.7335
 30
0.0
 11
88.3447
 21
25.9333
 31
0.0
  0
LINE
  8
0
 62
     0
 10
88.3447
 20
25.9333
 30
0.0
 11
87.5439
 21
25.9333
 31
0.0
  0
LINE
  8
0
 62
     0
 10
87.5439
 20
25.9333
 30
0.0
 11
87.5439
 21
22.8327
 31
0.0
  0
LINE
  8
0
 62
     0
 10
87.5439
 20
22.8327
 30
0.0
 11
88.3447
 21
22.8327
 31
0.0
  0
LINE
  8
0
 62
     0
 10
88.3447
 20
22.8327
 30
0.0
 11
88.3447
 21
21.8336
 31
0.0
  0
LINE
  8
0
 62
     0
 10
88.3447
 20
21.8336
 30
0.0
 11
102.344
 21
21.8336
 31
0.0
  0
LINE
  8
0
 62
     0
 10
102.344
 20
21.8336
 30
0.0
 11
102.344
 21
22.8327
 31
0.0
  0
LINE
  8
0
 62
     0
 10
102.344
 20
22.8327
 30
0.0
 11
103.145
 21
22.8327
 31
0.0
  0
LINE
  8
0
 62
     0
 10
103.145
 20
22.8327
 30
0.0
 11
103.145
 21
25.9333
 31
0.0
  0
LINE
  8
0
 62
     0
 10
103.145
 20
25.9333
 30
0.0
 11
102.344
 21
25.9333
 31
0.0
  0
LINE
  8
0
 62
     0
 10
102.344
 20
25.9333
 30
0.0
 11
102.344
 21
31.7335
 31
0.0
  0
LINE
  8
0
 62
     0
 10
102.344
 20
31.7335
 30
0.0
 11
103.145
 21
31.7335
 31
0.0
  0
LINE
  8
0
 62
     0
 10
103.145
 20
31.7335
 30
0.0
 11
103.145
 21
34.8327
 31
0.0
  0
LINE
  8
0
 62
     0
 10
103.145
 20
34.8327
 30
0.0
 11
102.344
 21
34.8327
 31
0.0
  0
LINE
  8
0
 62
     0
 10
102.344
 20
34.8327
 30
0.0
 11
102.344
 21
35.833
 31
0.0
  0
LINE
  8
0
 62
     0
 10
102.344
 20
35.833
 30
0.0
 11
88.3447
 21
35.833
 31
0.0
  0
LINE
  8
0
 62
     0
 10
69.2947
 20
35.833
 30
0.0
 11
69.2947
 21
34.8327
 31
0.0
  0
LINE
  8
0
 62
     0
 10
69.2947
 20
34.8327
 30
0.0
 11
68.4939
 21
34.8327
 31
0.0
  0
LINE
  8
0
 62
     0
 10
68.4939
 20
34.8327
 30
0.0
 11
68.4939
 21
31.7335
 31
0.0
  0
LINE
  8
0
 62
     0
 10
68.4939
 20
31.7335
 30
0.0
 11
69.2947
 21
31.7335
 31
0.0
  0
LINE
  8
0
 62
     0
 10
69.2947
 20
31.7335
 30
0.0
 11
69.2947
 21
25.9333
 31
0.0
  0
LINE
  8
0
 62
     0
 10
69.2947
 20
25.9333
 30
0.0
 11
68.4939
 21
25.9333
 31
0.0
  0
LINE
  8
0
 62
     0
 10
68.4939
 20
25.9333
 30
0.0
 11
68.4939
 21
22.8327
 31
0.0
  0
LINE
  8
0
 62
     0
 10
68.4939
 20
22.8327
 30
0.0
 11
69.2947
 21
22.8327
 31
0.0
  0
LINE
  8
0
 62
     0
 10
69.2947
 20
22.8327
 30
0.0
 11
69.2947
 21
21.8336
 31
0.0
  0
LINE
  8
0
 62
     0
 10
69.2947
 20
21.8336
 30
0.0
 11
83.294
 21
21.8336
 31
0.0
  0
LINE
  8
0
 62
     0
 10
83.294
 20
21.8336
 30
0.0
 11
83.294
 21
22.8327
 31
0.0
  0
LINE
  8
0
 62
     0
 10
83.294
 20
22.8327
 30
0.0
 11
84.0948
 21
22.8327
 31
0.0
  0
LINE
  8
0
 62
     0
 10
84.0948
 20
22.8327
 30
0.0
 11
84.0948
 21
25.9333
 31
0.0
  0
LINE
  8
0
 62
     0
 10
84.0948
 20
25.9333
 30
0.0
 11
83.294
 21
25.9333
 31
0.0
  0
LINE
  8
0
 62
     0
 10
83.294
 20
25.9333
 30
0.0
 11
83.294
 21
31.7335
 31
0.0
  0
LINE
  8
0
 62
     0
 10
83.294
 20
31.7335
 30
0.0
 11
84.0948
 21
31.7335
 31
0.0
  0
LINE
  8
0
 62
     0
 10
84.0948
 20
31.7335
 30
0.0
 11
84.0948
 21
34.8327
 31
0.0
  0
LINE
  8
0
 62
     0
 10
84.0948
 20
34.8327
 30
0.0
 11
83.294
 21
34.8327
 31
0.0
  0
LINE
  8
0
 62
     0
 10
83.294
 20
34.8327
 30
0.0
 11
83.294
 21
35.833
 31
0.0
  0
LINE
  8
0
 62
     0
 10
83.294
 20
35.833
 30
0.0
 11
69.2947
 21
35.833
 31
0.0
  0
LINE
  8
0
 62
     0
 10
50.2447
 20
35.833
 30
0.0
 11
50.2447
 21
34.8327
 31
0.0
  0
LINE
  8
0
 62
     0
 10
50.2447
 20
34.8327
 30
0.0
 11
49.4439
 21
34.8327
 31
0.0
  0
LINE
  8
0
 62
     0
 10
49.4439
 20
34.8327
 30
0.0
 11
49.4439
 21
31.7335
 31
0.0
  0
LINE
  8
0
 62
     0
 10
49.4439
 20
31.7335
 30
0.0
 11
50.2447
 21
31.7335
 31
0.0
  0
LINE
  8
0
 62
     0
 10
50.2447
 20
31.7335
 30
0.0
 11
50.2447
 21
25.9333
 31
0.0
  0
LINE
  8
0
 62
     0
 10
50.2447
 20
25.9333
 30
0.0
 11
49.4439
 21
25.9333
 31
0.0
  0
LINE
  8
0
 62
     0
 10
49.4439
 20
25.9333
 30
0.0
 11
49.4439
 21
22.8327
 31
0.0
  0
LINE
  8
0
 62
     0
 10
49.4439
 20
22.8327
 30
0.0
 11
50.2447
 21
22.8327
 31
0.0
  0
LINE
  8
0
 62
     0
 10
50.2447
 20
22.8327
 30
0.0
 11
50.2447
 21
21.8336
 31
0.0
  0
LINE
  8
0
 62
     0
 10
50.2447
 20
21.8336
 30
0.0
 11
64.244
 21
21.8336
 31
0.0
  0
LINE
  8
0
 62
     0
 10
64.244
 20
21.8336
 30
0.0
 11
64.244
 21
22.8327
 31
0.0
  0
LINE
  8
0
 62
     0
 10
64.244
 20
22.8327
 30
0.0
 11
65.0448
 21
22.8327
 31
0.0
  0
LINE
  8
0
 62
     0
 10
65.0448
 20
22.8327
 30
0.0
 11
65.0448
 21
25.9333
 31
0.0
  0
LINE
  8
0
 62
     0
 10
65.0448
 20
25.9333
 30
0.0
 11
64.244
 21
25.9333
 31
0.0
  0
LINE
  8
0
 62
     0
 10
64.244
 20
25.9333
 30
0.0
 11
64.244
 21
31.7335
 31
0.0
  0
LINE
  8
0
 62
     0
 10
64.244
 20
31.7335
 30
0.0
 11
65.0448
 21
31.7335
 31
0.0
  0
LINE
  8
0
 62
     0
 10
65.0448
 20
31.7335
 30
0.0
 11
65.0448
 21
34.8327
 31
0.0
  0
LINE
  8
0
 62
     0
 10
65.0448
 20
34.8327
 30
0.0
 11
64.244
 21
34.8327
 31
0.0
  0
LINE
  8
0
 62
     0
 10
64.244
 20
34.8327
 30
0.0
 11
64.244
 21
35.833
 31
0.0
  0
LINE
  8
0
 62
     0
 10
64.244
 20
35.833
 30
0.0
 11
50.2447
 21
35.833
 31
0.0
  0
LINE
  8
0
 62
     0
 10
31.1947
 20
35.833
 30
0.0
 11
31.1947
 21
34.8327
 31
0.0
  0
LINE
  8
0
 62
     0
 10
31.1947
 20
34.8327
 30
0.0
 11
30.394
 21
34.8327
 31
0.0
  0
LINE
  8
0
 62
     0
 10
30.394
 20
34.8327
 30
0.0
 11
30.394
 21
31.7335
 31
0.0
  0
LINE
  8
0
 62
     0
 10
30.394
 20
31.7335
 30
0.0
 11
31.1947
 21
31.7335
 31
0.0
  0
LINE
  8
0
 62
     0
 10
31.1947
 20
31.7335
 30
0.0
 11
31.1947
 21
25.9333
 31
0.0
  0
LINE
  8
0
 62
     0
 10
31.1947
 20
25.9333
 30
0.0
 11
30.394
 21
25.9333
 31
0.0
  0
LINE
  8
0
 62
     0
 10
30.394
 20
25.9333
 30
0.0
 11
30.394
 21
22.8327
 31
0.0
  0
LINE
  8
0
 62
     0
 10
30.394
 20
22.8327
 30
0.0
 11
31.1947
 21
22.8327
 31
0.0
  0
LINE
  8
0
 62
     0
 10
31.1947
 20
22.8327
 30
0.0
 11
31.1947
 21
21.8336
 31
0.0
  0
LINE
  8
0
 62
     0
 10
31.1947
 20
21.8336
 30
0.0
 11
45.194
 21
21.8336
 31
0.0
  0
LINE
  8
0
 62
     0
 10
45.194
 20
21.8336
 30
0.0
 11
45.194
 21
22.8327
 31
0.0
  0
LINE
  8
0
 62
     0
 10
45.194
 20
22.8327
 30
0.0
 11
45.9948
 21
22.8327
 31
0.0
  0
LINE
  8
0
 62
     0
 10
45.9948
 20
22.8327
 30
0.0
 11
45.9948
 21
25.9333
 31
0.0
  0
LINE
  8
0
 62
     0
 10
45.9948
 20
25.9333
 30
0.0
 11
45.194
 21
25.9333
 31
0.0
  0
LINE
  8
0
 62
     0
 10
45.194
 20
25.9333
 30
0.0
 11
45.194
 21
31.7335
 31
0.0
  0
LINE
  8
0
 62
     0
 10
45.194
 20
31.7335
 30
0.0
 11
45.9948
 21
31.7335
 31
0.0
  0
LINE
  8
0
 62
     0
 10
45.9948
 20
31.7335
 30
0.0
 11
45.9948
 21
34.8327
 31
0.0
  0
LINE
  8
0
 62
     0
 10
45.9948
 20
34.8327
 30
0.0
 11
45.194
 21
34.8327
 31
0.0
  0
LINE
  8
0
 62
     0
 10
45.194
 20
34.8327
 30
0.0
 11
45.194
 21
35.833
 31
0.0
  0
LINE
  8
0
 62
     0
 10
45.194
 20
35.833
 30
0.0
 11
31.1947
 21
35.833
 31
0.0
  0
LINE
  8
0
 62
     0
 10
7.38216
 20
35.833
 30
0.0
 11
7.38216
 21
34.8327
 31
0.0
  0
LINE
  8
0
 62
     0
 10
7.38216
 20
34.8327
 30
0.0
 11
6.58153
 21
34.8327
 31
0.0
  0
LINE
  8
0
 62
     0
 10
6.58153
 20
34.8327
 30
0.0
 11
6.58153
 21
31.7335
 31
0.0
  0
LINE
  8
0
 62
     0
 10
6.58153
 20
31.7335
 30
0.0
 11
7.38216
 21
31.7335
 31
0.0
  0
LINE
  8
0
 62
     0
 10
7.38216
 20
31.7335
 30
0.0
 11
7.38216
 21
25.9333
 31
0.0
  0
LINE
  8
0
 62
     0
 10
7.38216
 20
25.9333
 30
0.0
 11
6.58153
 21
25.9333
 31
0.0
  0
LINE
  8
0
 62
     0
 10
6.58153
 20
25.9333
 30
0.0
 11
6.58153
 21
22.8327
 31
0.0
  0
LINE
  8
0
 62
     0
 10
6.58153
 20
22.8327
 30
0.0
 11
7.38216
 21
22.8327
 31
0.0
  0
LINE
  8
0
 62
     0
 10
7.38216
 20
22.8327
 30
0.0
 11
7.38216
 21
21.8336
 31
0.0
  0
LINE
  8
0
 62
     0
 10
7.38216
 20
21.8336
 30
0.0
 11
21.3817
 21
21.8336
 31
0.0
  0
LINE
  8
0
 62
     0
 10
21.3817
 20
21.8336
 30
0.0
 11
21.3817
 21
22.8327
 31
0.0
  0
LINE
  8
0
 62
     0
 10
21.3817
 20
22.8327
 30
0.0
 11
22.1809
 21
22.8327
 31
0.0
  0
LINE
  8
0
 62
     0
 10
22.1809
 20
22.8327
 30
0.0
 11
22.1809
 21
25.9333
 31
0.0
  0
LINE
  8
0
 62
     0
 10
22.1809
 20
25.9333
 30
0.0
 11
21.3817
 21
25.9333
 31
0.0
  0
LINE
  8
0
 62
     0
 10
21.3817
 20
25.9333
 30
0.0
 11
21.3817
 21
31.7335
 31
0.0
  0
LINE
  8
0
 62
     0
 10
21.3817
 20
31.7335
 30
0.0
 11
22.1809
 21
31.7335
 31
0.0
  0
LINE
  8
0
 62
     0
 10
22.1809
 20
31.7335
 30
0.0
 11
22.1809
 21
34.8327
 31
0.0
  0
LINE
  8
0
 62
     0
 10
22.1809
 20
34.8327
 30
0.0
 11
21.3817
 21
34.8327
 31
0.0
  0
LINE
  8
0
 62
     0
 10
21.3817
 20
34.8327
 30
0.0
 11
21.3817
 21
35.833
 31
0.0
  0
LINE
  8
0
 62
     0
 10
21.3817
 20
35.833
 30
0.0
 11
7.38216
 21
35.833
 31
0.0
  0
LINE
  8
0
 62
     0
 10
135.97
 20
54.8831
 30
0.0
 11
135.97
 21
53.8826
 31
0.0
  0
LINE
  8
0
 62
     0
 10
135.97
 20
53.8826
 30
0.0
 11
135.169
 21
53.8826
 31
0.0
  0
LINE
  8
0
 62
     0
 10
135.169
 20
53.8826
 30
0.0
 11
135.169
 21
50.7834
 31
0.0
  0
LINE
  8
0
 62
     0
 10
135.169
 20
50.7834
 30
0.0
 11
135.97
 21
50.7834
 31
0.0
  0
LINE
  8
0
 62
     0
 10
135.97
 20
50.7834
 30
0.0
 11
135.97
 21
44.9834
 31
0.0
  0
LINE
  8
0
 62
     0
 10
135.97
 20
44.9834
 30
0.0
 11
135.169
 21
44.9834
 31
0.0
  0
LINE
  8
0
 62
     0
 10
135.169
 20
44.9834
 30
0.0
 11
135.169
 21
41.8828
 31
0.0
  0
LINE
  8
0
 62
     0
 10
135.169
 20
41.8828
 30
0.0
 11
135.97
 21
41.8828
 31
0.0
  0
LINE
  8
0
 62
     0
 10
135.97
 20
41.8828
 30
0.0
 11
135.97
 21
40.8838
 31
0.0
  0
LINE
  8
0
 62
     0
 10
135.97
 20
40.8838
 30
0.0
 11
149.969
 21
40.8838
 31
0.0
  0
LINE
  8
0
 62
     0
 10
149.969
 20
40.8838
 30
0.0
 11
149.969
 21
41.8828
 31
0.0
  0
LINE
  8
0
 62
     0
 10
149.969
 20
41.8828
 30
0.0
 11
150.77
 21
41.8828
 31
0.0
  0
LINE
  8
0
 62
     0
 10
150.77
 20
41.8828
 30
0.0
 11
150.77
 21
44.9834
 31
0.0
  0
LINE
  8
0
 62
     0
 10
150.77
 20
44.9834
 30
0.0
 11
149.969
 21
44.9834
 31
0.0
  0
LINE
  8
0
 62
     0
 10
149.969
 20
44.9834
 30
0.0
 11
149.969
 21
50.7834
 31
0.0
  0
LINE
  8
0
 62
     0
 10
149.969
 20
50.7834
 30
0.0
 11
150.77
 21
50.7834
 31
0.0
  0
LINE
  8
0
 62
     0
 10
150.77
 20
50.7834
 30
0.0
 11
150.77
 21
53.8826
 31
0.0
  0
LINE
  8
0
 62
     0
 10
150.77
 20
53.8826
 30
0.0
 11
149.969
 21
53.8826
 31
0.0
  0
LINE
  8
0
 62
     0
 10
149.969
 20
53.8826
 30
0.0
 11
149.969
 21
54.8831
 31
0.0
  0
LINE
  8
0
 62
     0
 10
149.969
 20
54.8831
 30
0.0
 11
135.97
 21
54.8831
 31
0.0
  0
LINE
  8
0
 62
     0
 10
116.92
 20
54.8831
 30
0.0
 11
116.92
 21
53.8826
 31
0.0
  0
LINE
  8
0
 62
     0
 10
116.92
 20
53.8826
 30
0.0
 11
116.119
 21
53.8826
 31
0.0
  0
LINE
  8
0
 62
     0
 10
116.119
 20
53.8826
 30
0.0
 11
116.119
 21
50.7834
 31
0.0
  0
LINE
  8
0
 62
     0
 10
116.119
 20
50.7834
 30
0.0
 11
116.92
 21
50.7834
 31
0.0
  0
LINE
  8
0
 62
     0
 10
116.92
 20
50.7834
 30
0.0
 11
116.92
 21
44.9834
 31
0.0
  0
LINE
  8
0
 62
     0
 10
116.92
 20
44.9834
 30
0.0
 11
116.119
 21
44.9834
 31
0.0
  0
LINE
  8
0
 62
     0
 10
116.119
 20
44.9834
 30
0.0
 11
116.119
 21
41.8828
 31
0.0
  0
LINE
  8
0
 62
     0
 10
116.119
 20
41.8828
 30
0.0
 11
116.92
 21
41.8828
 31
0.0
  0
LINE
  8
0
 62
     0
 10
116.92
 20
41.8828
 30
0.0
 11
116.92
 21
40.8838
 31
0.0
  0
LINE
  8
0
 62
     0
 10
116.92
 20
40.8838
 30
0.0
 11
130.919
 21
40.8838
 31
0.0
  0
LINE
  8
0
 62
     0
 10
130.919
 20
40.8838
 30
0.0
 11
130.919
 21
41.8828
 31
0.0
  0
LINE
  8
0
 62
     0
 10
130.919
 20
41.8828
 30
0.0
 11
131.72
 21
41.8828
 31
0.0
  0
LINE
  8
0
 62
     0
 10
131.72
 20
41.8828
 30
0.0
 11
131.72
 21
44.9834
 31
0.0
  0
LINE
  8
0
 62
     0
 10
131.72
 20
44.9834
 30
0.0
 11
130.919
 21
44.9834
 31
0.0
  0
LINE
  8
0
 62
     0
 10
130.919
 20
44.9834
 30
0.0
 11
130.919
 21
50.7834
 31
0.0
  0
LINE
  8
0
 62
     0
 10
130.919
 20
50.7834
 30
0.0
 11
131.72
 21
50.7834
 31
0.0
  0
LINE
  8
0
 62
     0
 10
131.72
 20
50.7834
 30
0.0
 11
131.72
 21
53.8826
 31
0.0
  0
LINE
  8
0
 62
     0
 10
131.72
 20
53.8826
 30
0.0
 11
130.919
 21
53.8826
 31
0.0
  0
LINE
  8
0
 62
     0
 10
130.919
 20
53.8826
 30
0.0
 11
130.919
 21
54.8831
 31
0.0
  0
LINE
  8
0
 62
     0
 10
130.919
 20
54.8831
 30
0.0
 11
116.92
 21
54.8831
 31
0.0
  0
LINE
  8
0
 62
     0
 10
97.8697
 20
54.8831
 30
0.0
 11
97.8697
 21
53.8826
 31
0.0
  0
LINE
  8
0
 62
     0
 10
97.8697
 20
53.8826
 30
0.0
 11
97.0689
 21
53.8826
 31
0.0
  0
LINE
  8
0
 62
     0
 10
97.0689
 20
53.8826
 30
0.0
 11
97.0689
 21
50.7834
 31
0.0
  0
LINE
  8
0
 62
     0
 10
97.0689
 20
50.7834
 30
0.0
 11
97.8697
 21
50.7834
 31
0.0
  0
LINE
  8
0
 62
     0
 10
97.8697
 20
50.7834
 30
0.0
 11
97.8697
 21
44.9834
 31
0.0
  0
LINE
  8
0
 62
     0
 10
97.8697
 20
44.9834
 30
0.0
 11
97.0689
 21
44.9834
 31
0.0
  0
LINE
  8
0
 62
     0
 10
97.0689
 20
44.9834
 30
0.0
 11
97.0689
 21
41.8828
 31
0.0
  0
LINE
  8
0
 62
     0
 10
97.0689
 20
41.8828
 30
0.0
 11
97.8697
 21
41.8828
 31
0.0
  0
LINE
  8
0
 62
     0
 10
97.8697
 20
41.8828
 30
0.0
 11
97.8697
 21
40.8838
 31
0.0
  0
LINE
  8
0
 62
     0
 10
97.8697
 20
40.8838
 30
0.0
 11
111.869
 21
40.8838
 31
0.0
  0
LINE
  8
0
 62
     0
 10
111.869
 20
40.8838
 30
0.0
 11
111.869
 21
41.8828
 31
0.0
  0
LINE
  8
0
 62
     0
 10
111.869
 20
41.8828
 30
0.0
 11
112.67
 21
41.8828
 31
0.0
  0
LINE
  8
0
 62
     0
 10
112.67
 20
41.8828
 30
0.0
 11
112.67
 21
44.9834
 31
0.0
  0
LINE
  8
0
 62
     0
 10
112.67
 20
44.9834
 30
0.0
 11
111.869
 21
44.9834
 31
0.0
  0
LINE
  8
0
 62
     0
 10
111.869
 20
44.9834
 30
0.0
 11
111.869
 21
50.7834
 31
0.0
  0
LINE
  8
0
 62
     0
 10
111.869
 20
50.7834
 30
0.0
 11
112.67
 21
50.7834
 31
0.0
  0
LINE
  8
0
 62
     0
 10
112.67
 20
50.7834
 30
0.0
 11
112.67
 21
53.8826
 31
0.0
  0
LINE
  8
0
 62
     0
 10
112.67
 20
53.8826
 30
0.0
 11
111.869
 21
53.8826
 31
0.0
  0
LINE
  8
0
 62
     0
 10
111.869
 20
53.8826
 30
0.0
 11
111.869
 21
54.8831
 31
0.0
  0
LINE
  8
0
 62
     0
 10
111.869
 20
54.8831
 30
0.0
 11
97.8697
 21
54.8831
 31
0.0
  0
LINE
  8
0
 62
     0
 10
59.7697
 20
54.8831
 30
0.0
 11
59.7697
 21
53.8826
 31
0.0
  0
LINE
  8
0
 62
     0
 10
59.7697
 20
53.8826
 30
0.0
 11
58.9689
 21
53.8826
 31
0.0
  0
LINE
  8
0
 62
     0
 10
58.9689
 20
53.8826
 30
0.0
 11
58.9689
 21
50.7834
 31
0.0
  0
LINE
  8
0
 62
     0
 10
58.9689
 20
50.7834
 30
0.0
 11
59.7697
 21
50.7834
 31
0.0
  0
LINE
  8
0
 62
     0
 10
59.7697
 20
50.7834
 30
0.0
 11
59.7697
 21
44.9834
 31
0.0
  0
LINE
  8
0
 62
     0
 10
59.7697
 20
44.9834
 30
0.0
 11
58.9689
 21
44.9834
 31
0.0
  0
LINE
  8
0
 62
     0
 10
58.9689
 20
44.9834
 30
0.0
 11
58.9689
 21
41.8828
 31
0.0
  0
LINE
  8
0
 62
     0
 10
58.9689
 20
41.8828
 30
0.0
 11
59.7697
 21
41.8828
 31
0.0
  0
LINE
  8
0
 62
     0
 10
59.7697
 20
41.8828
 30
0.0
 11
59.7697
 21
40.8838
 31
0.0
  0
LINE
  8
0
 62
     0
 10
59.7697
 20
40.8838
 30
0.0
 11
73.769
 21
40.8838
 31
0.0
  0
LINE
  8
0
 62
     0
 10
73.769
 20
40.8838
 30
0.0
 11
73.769
 21
41.8828
 31
0.0
  0
LINE
  8
0
 62
     0
 10
73.769
 20
41.8828
 30
0.0
 11
74.5698
 21
41.8828
 31
0.0
  0
LINE
  8
0
 62
     0
 10
74.5698
 20
41.8828
 30
0.0
 11
74.5698
 21
44.9834
 31
0.0
  0
LINE
  8
0
 62
     0
 10
74.5698
 20
44.9834
 30
0.0
 11
73.769
 21
44.9834
 31
0.0
  0
LINE
  8
0
 62
     0
 10
73.769
 20
44.9834
 30
0.0
 11
73.769
 21
50.7834
 31
0.0
  0
LINE
  8
0
 62
     0
 10
73.769
 20
50.7834
 30
0.0
 11
74.5698
 21
50.7834
 31
0.0
  0
LINE
  8
0
 62
     0
 10
74.5698
 20
50.7834
 30
0.0
 11
74.5698
 21
53.8826
 31
0.0
  0
LINE
  8
0
 62
     0
 10
74.5698
 20
53.8826
 30
0.0
 11
73.769
 21
53.8826
 31
0.0
  0
LINE
  8
0
 62
     0
 10
73.769
 20
53.8826
 30
0.0
 11
73.769
 21
54.8831
 31
0.0
  0
LINE
  8
0
 62
     0
 10
73.769
 20
54.8831
 30
0.0
 11
59.7697
 21
54.8831
 31
0.0
  0
LINE
  8
0
 62
     0
 10
40.7197
 20
54.8831
 30
0.0
 11
40.7197
 21
53.8826
 31
0.0
  0
LINE
  8
0
 62
     0
 10
40.7197
 20
53.8826
 30
0.0
 11
39.9189
 21
53.8826
 31
0.0
  0
LINE
  8
0
 62
     0
 10
39.9189
 20
53.8826
 30
0.0
 11
39.9189
 21
50.7834
 31
0.0
  0
LINE
  8
0
 62
     0
 10
39.9189
 20
50.7834
 30
0.0
 11
40.7197
 21
50.7834
 31
0.0
  0
LINE
  8
0
 62
     0
 10
40.7197
 20
50.7834
 30
0.0
 11
40.7197
 21
44.9834
 31
0.0
  0
LINE
  8
0
 62
     0
 10
40.7197
 20
44.9834
 30
0.0
 11
39.9189
 21
44.9834
 31
0.0
  0
LINE
  8
0
 62
     0
 10
39.9189
 20
44.9834
 30
0.0
 11
39.9189
 21
41.8828
 31
0.0
  0
LINE
  8
0
 62
     0
 10
39.9189
 20
41.8828
 30
0.0
 11
40.7197
 21
41.8828
 31
0.0
  0
LINE
  8
0
 62
     0
 10
40.7197
 20
41.8828
 30
0.0
 11
40.7197
 21
40.8838
 31
0.0
  0
LINE
  8
0
 62
     0
 10
40.7197
 20
40.8838
 30
0.0
 11
54.719
 21
40.8838
 31
0.0
  0
LINE
  8
0
 62
     0
 10
54.719
 20
40.8838
 30
0.0
 11
54.719
 21
41.8828
 31
0.0
  0
LINE
  8
0
 62
     0
 10
54.719
 20
41.8828
 30
0.0
 11
55.5198
 21
41.8828
 31
0.0
  0
LINE
  8
0
 62
     0
 10
55.5198
 20
41.8828
 30
0.0
 11
55.5198
 21
44.9834
 31
0.0
  0
LINE
  8
0
 62
     0
 10
55.5198
 20
44.9834
 30
0.0
 11
54.719
 21
44.9834
 31
0.0
  0
LINE
  8
0
 62
     0
 10
54.719
 20
44.9834
 30
0.0
 11
54.719
 21
50.7834
 31
0.0
  0
LINE
  8
0
 62
     0
 10
54.719
 20
50.7834
 30
0.0
 11
55.5198
 21
50.7834
 31
0.0
  0
LINE
  8
0
 62
     0
 10
55.5198
 20
50.7834
 30
0.0
 11
55.5198
 21
53.8826
 31
0.0
  0
LINE
  8
0
 62
     0
 10
55.5198
 20
53.8826
 30
0.0
 11
54.719
 21
53.8826
 31
0.0
  0
LINE
  8
0
 62
     0
 10
54.719
 20
53.8826
 30
0.0
 11
54.719
 21
54.8831
 31
0.0
  0
LINE
  8
0
 62
     0
 10
54.719
 20
54.8831
 30
0.0
 11
40.7197
 21
54.8831
 31
0.0
  0
LINE
  8
0
 62
     0
 10
21.6697
 20
54.8831
 30
0.0
 11
21.6697
 21
53.8826
 31
0.0
  0
LINE
  8
0
 62
     0
 10
21.6697
 20
53.8826
 30
0.0
 11
20.869
 21
53.8826
 31
0.0
  0
LINE
  8
0
 62
     0
 10
20.869
 20
53.8826
 30
0.0
 11
20.869
 21
50.7834
 31
0.0
  0
LINE
  8
0
 62
     0
 10
20.869
 20
50.7834
 30
0.0
 11
21.6697
 21
50.7834
 31
0.0
  0
LINE
  8
0
 62
     0
 10
21.6697
 20
50.7834
 30
0.0
 11
21.6697
 21
44.9834
 31
0.0
  0
LINE
  8
0
 62
     0
 10
21.6697
 20
44.9834
 30
0.0
 11
20.869
 21
44.9834
 31
0.0
  0
LINE
  8
0
 62
     0
 10
20.869
 20
44.9834
 30
0.0
 11
20.869
 21
41.8828
 31
0.0
  0
LINE
  8
0
 62
     0
 10
20.869
 20
41.8828
 30
0.0
 11
21.6697
 21
41.8828
 31
0.0
  0
LINE
  8
0
 62
     0
 10
21.6697
 20
41.8828
 30
0.0
 11
21.6697
 21
40.8838
 31
0.0
  0
LINE
  8
0
 62
     0
 10
21.6697
 20
40.8838
 30
0.0
 11
35.669
 21
40.8838
 31
0.0
  0
LINE
  8
0
 62
     0
 10
35.669
 20
40.8838
 30
0.0
 11
35.669
 21
41.8828
 31
0.0
  0
LINE
  8
0
 62
     0
 10
35.669
 20
41.8828
 30
0.0
 11
36.4698
 21
41.8828
 31
0.0
  0
LINE
  8
0
 62
     0
 10
36.4698
 20
41.8828
 30
0.0
 11
36.4698
 21
44.9834
 31
0.0
  0
LINE
  8
0
 62
     0
 10
36.4698
 20
44.9834
 30
0.0
 11
35.669
 21
44.9834
 31
0.0
  0
LINE
  8
0
 62
     0
 10
35.669
 20
44.9834
 30
0.0
 11
35.669
 21
50.7834
 31
0.0
  0
LINE
  8
0
 62
     0
 10
35.669
 20
50.7834
 30
0.0
 11
36.4698
 21
50.7834
 31
0.0
  0
LINE
  8
0
 62
     0
 10
36.4698
 20
50.7834
 30
0.0
 11
36.4698
 21
53.8826
 31
0.0
  0
LINE
  8
0
 62
     0
 10
36.4698
 20
53.8826
 30
0.0
 11
35.669
 21
53.8826
 31
0.0
  0
LINE
  8
0
 62
     0
 10
35.669
 20
53.8826
 30
0.0
 11
35.669
 21
54.8831
 31
0.0
  0
LINE
  8
0
 62
     0
 10
35.669
 20
54.8831
 30
0.0
 11
21.6697
 21
54.8831
 31
0.0
  0
LINE
  8
0
 62
     0
 10
116.92
 20
73.9331
 30
0.0
 11
116.92
 21
72.9326
 31
0.0
  0
LINE
  8
0
 62
     0
 10
116.92
 20
72.9326
 30
0.0
 11
116.119
 21
72.9326
 31
0.0
  0
LINE
  8
0
 62
     0
 10
116.119
 20
72.9326
 30
0.0
 11
116.119
 21
69.8334
 31
0.0
  0
LINE
  8
0
 62
     0
 10
116.119
 20
69.8334
 30
0.0
 11
116.92
 21
69.8334
 31
0.0
  0
LINE
  8
0
 62
     0
 10
116.92
 20
69.8334
 30
0.0
 11
116.92
 21
64.0334
 31
0.0
  0
LINE
  8
0
 62
     0
 10
116.92
 20
64.0334
 30
0.0
 11
116.119
 21
64.0334
 31
0.0
  0
LINE
  8
0
 62
     0
 10
116.119
 20
64.0334
 30
0.0
 11
116.119
 21
60.9328
 31
0.0
  0
LINE
  8
0
 62
     0
 10
116.119
 20
60.9328
 30
0.0
 11
116.92
 21
60.9328
 31
0.0
  0
LINE
  8
0
 62
     0
 10
116.92
 20
60.9328
 30
0.0
 11
116.92
 21
59.9338
 31
0.0
  0
LINE
  8
0
 62
     0
 10
116.92
 20
59.9338
 30
0.0
 11
130.919
 21
59.9338
 31
0.0
  0
LINE
  8
0
 62
     0
 10
130.919
 20
59.9338
 30
0.0
 11
130.919
 21
60.9328
 31
0.0
  0
LINE
  8
0
 62
     0
 10
130.919
 20
60.9328
 30
0.0
 11
131.72
 21
60.9328
 31
0.0
  0
LINE
  8
0
 62
     0
 10
131.72
 20
60.9328
 30
0.0
 11
131.72
 21
64.0334
 31
0.0
  0
LINE
  8
0
 62
     0
 10
131.72
 20
64.0334
 30
0.0
 11
130.919
 21
64.0334
 31
0.0
  0
LINE
  8
0
 62
     0
 10
130.919
 20
64.0334
 30
0.0
 11
130.919
 21
69.8334
 31
0.0
  0
LINE
  8
0
 62
     0
 10
130.919
 20
69.8334
 30
0.0
 11
131.72
 21
69.8334
 31
0.0
  0
LINE
  8
0
 62
     0
 10
131.72
 20
69.8334
 30
0.0
 11
131.72
 21
72.9326
 31
0.0
  0
LINE
  8
0
 62
     0
 10
131.72
 20
72.9326
 30
0.0
 11
130.919
 21
72.9326
 31
0.0
  0
LINE
  8
0
 62
     0
 10
130.919
 20
72.9326
 30
0.0
 11
130.919
 21
73.9331
 31
0.0
  0
LINE
  8
0
 62
     0
 10
130.919
 20
73.9331
 30
0.0
 11
116.92
 21
73.9331
 31
0.0
  0
LINE
  8
0
 62
     0
 10
40.7197
 20
73.9331
 30
0.0
 11
40.7197
 21
72.9326
 31
0.0
  0
LINE
  8
0
 62
     0
 10
40.7197
 20
72.9326
 30
0.0
 11
39.9189
 21
72.9326
 31
0.0
  0
LINE
  8
0
 62
     0
 10
39.9189
 20
72.9326
 30
0.0
 11
39.9189
 21
69.8334
 31
0.0
  0
LINE
  8
0
 62
     0
 10
39.9189
 20
69.8334
 30
0.0
 11
40.7197
 21
69.8334
 31
0.0
  0
LINE
  8
0
 62
     0
 10
40.7197
 20
69.8334
 30
0.0
 11
40.7197
 21
64.0334
 31
0.0
  0
LINE
  8
0
 62
     0
 10
40.7197
 20
64.0334
 30
0.0
 11
39.9189
 21
64.0334
 31
0.0
  0
LINE
  8
0
 62
     0
 10
39.9189
 20
64.0334
 30
0.0
 11
39.9189
 21
60.9328
 31
0.0
  0
LINE
  8
0
 62
     0
 10
39.9189
 20
60.9328
 30
0.0
 11
40.7197
 21
60.9328
 31
0.0
  0
LINE
  8
0
 62
     0
 10
40.7197
 20
60.9328
 30
0.0
 11
40.7197
 21
59.9338
 31
0.0
  0
LINE
  8
0
 62
     0
 10
40.7197
 20
59.9338
 30
0.0
 11
54.719
 21
59.9338
 31
0.0
  0
LINE
  8
0
 62
     0
 10
54.719
 20
59.9338
 30
0.0
 11
54.719
 21
60.9328
 31
0.0
  0
LINE
  8
0
 62
     0
 10
54.719
 20
60.9328
 30
0.0
 11
55.5198
 21
60.9328
 31
0.0
  0
LINE
  8
0
 62
     0
 10
55.5198
 20
60.9328
 30
0.0
 11
55.5198
 21
64.0334
 31
0.0
  0
LINE
  8
0
 62
     0
 10
55.5198
 20
64.0334
 30
0.0
 11
54.719
 21
64.0334
 31
0.0
  0
LINE
  8
0
 62
     0
 10
54.719
 20
64.0334
 30
0.0
 11
54.719
 21
69.8334
 31
0.0
  0
LINE
  8
0
 62
     0
 10
54.719
 20
69.8334
 30
0.0
 11
55.5198
 21
69.8334
 31
0.0
  0
LINE
  8
0
 62
     0
 10
55.5198
 20
69.8334
 30
0.0
 11
55.5198
 21
72.9326
 31
0.0
  0
LINE
  8
0
 62
     0
 10
55.5198
 20
72.9326
 30
0.0
 11
54.719
 21
72.9326
 31
0.0
  0
LINE
  8
0
 62
     0
 10
54.719
 20
72.9326
 30
0.0
 11
54.719
 21
73.9331
 31
0.0
  0
LINE
  8
0
 62
     0
 10
54.719
 20
73.9331
 30
0.0
 11
40.7197
 21
73.9331
 31
0.0
  0
ENDSEC
  0
EOF
