G04 #@! TF.GenerationSoftware,KiCad,Pcbnew,(5.1.2-1)-1*
G04 #@! TF.CreationDate,2020-06-20T08:49:02+09:00*
G04 #@! TF.ProjectId,xipad,78697061-642e-46b6-9963-61645f706362,rev?*
G04 #@! TF.SameCoordinates,Original*
G04 #@! TF.FileFunction,Legend,Bot*
G04 #@! TF.FilePolarity,Positive*
%FSLAX46Y46*%
G04 Gerber Fmt 4.6, Leading zero omitted, Abs format (unit mm)*
G04 Created by KiCad (PCBNEW (5.1.2-1)-1) date 2020-06-20 08:49:02*
%MOMM*%
%LPD*%
G04 APERTURE LIST*
%ADD10C,0.150000*%
%ADD11C,0.381000*%
G04 APERTURE END LIST*
D10*
X103812600Y-20550000D02*
X103812600Y-20800000D01*
X103812600Y-20800000D02*
X97812600Y-20800000D01*
X97812600Y-20800000D02*
X97812600Y-20550000D01*
X97812600Y-17550000D02*
X97812600Y-17300000D01*
X97812600Y-17300000D02*
X103812600Y-17300000D01*
X103812600Y-17300000D02*
X103812600Y-17550000D01*
D11*
X94650000Y13700000D02*
X92110000Y13700000D01*
X94650000Y16240000D02*
X94650000Y13700000D01*
D10*
G36*
X107044635Y9950970D02*
G01*
X107044635Y9850970D01*
X107144635Y9850970D01*
X107144635Y9950970D01*
X107044635Y9950970D01*
G37*
X107044635Y9950970D02*
X107044635Y9850970D01*
X107144635Y9850970D01*
X107144635Y9950970D01*
X107044635Y9950970D01*
G36*
X107244635Y10350970D02*
G01*
X107244635Y9550970D01*
X107344635Y9550970D01*
X107344635Y10350970D01*
X107244635Y10350970D01*
G37*
X107244635Y10350970D02*
X107244635Y9550970D01*
X107344635Y9550970D01*
X107344635Y10350970D01*
X107244635Y10350970D01*
G36*
X106844635Y9750970D02*
G01*
X106844635Y9550970D01*
X106944635Y9550970D01*
X106944635Y9750970D01*
X106844635Y9750970D01*
G37*
X106844635Y9750970D02*
X106844635Y9550970D01*
X106944635Y9550970D01*
X106944635Y9750970D01*
X106844635Y9750970D01*
G36*
X106844635Y10350970D02*
G01*
X106844635Y10050970D01*
X106944635Y10050970D01*
X106944635Y10350970D01*
X106844635Y10350970D01*
G37*
X106844635Y10350970D02*
X106844635Y10050970D01*
X106944635Y10050970D01*
X106944635Y10350970D01*
X106844635Y10350970D01*
G36*
X106844635Y10350970D02*
G01*
X106844635Y10250970D01*
X107344635Y10250970D01*
X107344635Y10350970D01*
X106844635Y10350970D01*
G37*
X106844635Y10350970D02*
X106844635Y10250970D01*
X107344635Y10250970D01*
X107344635Y10350970D01*
X106844635Y10350970D01*
D11*
X109890000Y-14240000D02*
X109890000Y18780000D01*
X92110000Y-14240000D02*
X109890000Y-14240000D01*
X92110000Y18780000D02*
X92110000Y-14240000D01*
X109890000Y18780000D02*
X92110000Y18780000D01*
X94650000Y16240000D02*
X92110000Y16240000D01*
D10*
X102391980Y-19502380D02*
X102725314Y-19026190D01*
X102963409Y-19502380D02*
X102963409Y-18502380D01*
X102582457Y-18502380D01*
X102487219Y-18550000D01*
X102439600Y-18597619D01*
X102391980Y-18692857D01*
X102391980Y-18835714D01*
X102439600Y-18930952D01*
X102487219Y-18978571D01*
X102582457Y-19026190D01*
X102963409Y-19026190D01*
X101963409Y-18978571D02*
X101630076Y-18978571D01*
X101487219Y-19502380D02*
X101963409Y-19502380D01*
X101963409Y-18502380D01*
X101487219Y-18502380D01*
X101106266Y-19454761D02*
X100963409Y-19502380D01*
X100725314Y-19502380D01*
X100630076Y-19454761D01*
X100582457Y-19407142D01*
X100534838Y-19311904D01*
X100534838Y-19216666D01*
X100582457Y-19121428D01*
X100630076Y-19073809D01*
X100725314Y-19026190D01*
X100915790Y-18978571D01*
X101011028Y-18930952D01*
X101058647Y-18883333D01*
X101106266Y-18788095D01*
X101106266Y-18692857D01*
X101058647Y-18597619D01*
X101011028Y-18550000D01*
X100915790Y-18502380D01*
X100677695Y-18502380D01*
X100534838Y-18550000D01*
X100106266Y-18978571D02*
X99772933Y-18978571D01*
X99630076Y-19502380D02*
X100106266Y-19502380D01*
X100106266Y-18502380D01*
X99630076Y-18502380D01*
X99344361Y-18502380D02*
X98772933Y-18502380D01*
X99058647Y-19502380D02*
X99058647Y-18502380D01*
X96129476Y12068095D02*
X96129476Y12868095D01*
X95939000Y12868095D01*
X95824714Y12830000D01*
X95748523Y12753809D01*
X95710428Y12677619D01*
X95672333Y12525238D01*
X95672333Y12410952D01*
X95710428Y12258571D01*
X95748523Y12182380D01*
X95824714Y12106190D01*
X95939000Y12068095D01*
X96129476Y12068095D01*
X95367571Y12791904D02*
X95329476Y12830000D01*
X95253285Y12868095D01*
X95062809Y12868095D01*
X94986619Y12830000D01*
X94948523Y12791904D01*
X94910428Y12715714D01*
X94910428Y12639523D01*
X94948523Y12525238D01*
X95405666Y12068095D01*
X94910428Y12068095D01*
X96129476Y1908095D02*
X96129476Y2708095D01*
X95939000Y2708095D01*
X95824714Y2670000D01*
X95748523Y2593809D01*
X95710428Y2517619D01*
X95672333Y2365238D01*
X95672333Y2250952D01*
X95710428Y2098571D01*
X95748523Y2022380D01*
X95824714Y1946190D01*
X95939000Y1908095D01*
X96129476Y1908095D01*
X95177095Y2708095D02*
X95100904Y2708095D01*
X95024714Y2670000D01*
X94986619Y2631904D01*
X94948523Y2555714D01*
X94910428Y2403333D01*
X94910428Y2212857D01*
X94948523Y2060476D01*
X94986619Y1984285D01*
X95024714Y1946190D01*
X95100904Y1908095D01*
X95177095Y1908095D01*
X95253285Y1946190D01*
X95291380Y1984285D01*
X95329476Y2060476D01*
X95367571Y2212857D01*
X95367571Y2403333D01*
X95329476Y2555714D01*
X95291380Y2631904D01*
X95253285Y2670000D01*
X95177095Y2708095D01*
X96129476Y4448095D02*
X96129476Y5248095D01*
X95939000Y5248095D01*
X95824714Y5210000D01*
X95748523Y5133809D01*
X95710428Y5057619D01*
X95672333Y4905238D01*
X95672333Y4790952D01*
X95710428Y4638571D01*
X95748523Y4562380D01*
X95824714Y4486190D01*
X95939000Y4448095D01*
X96129476Y4448095D01*
X94910428Y4448095D02*
X95367571Y4448095D01*
X95139000Y4448095D02*
X95139000Y5248095D01*
X95215190Y5133809D01*
X95291380Y5057619D01*
X95367571Y5019523D01*
X96148523Y7750000D02*
X96224714Y7788095D01*
X96339000Y7788095D01*
X96453285Y7750000D01*
X96529476Y7673809D01*
X96567571Y7597619D01*
X96605666Y7445238D01*
X96605666Y7330952D01*
X96567571Y7178571D01*
X96529476Y7102380D01*
X96453285Y7026190D01*
X96339000Y6988095D01*
X96262809Y6988095D01*
X96148523Y7026190D01*
X96110428Y7064285D01*
X96110428Y7330952D01*
X96262809Y7330952D01*
X95767571Y6988095D02*
X95767571Y7788095D01*
X95310428Y6988095D01*
X95310428Y7788095D01*
X94929476Y6988095D02*
X94929476Y7788095D01*
X94739000Y7788095D01*
X94624714Y7750000D01*
X94548523Y7673809D01*
X94510428Y7597619D01*
X94472333Y7445238D01*
X94472333Y7330952D01*
X94510428Y7178571D01*
X94548523Y7102380D01*
X94624714Y7026190D01*
X94739000Y6988095D01*
X94929476Y6988095D01*
X96148523Y10290000D02*
X96224714Y10328095D01*
X96339000Y10328095D01*
X96453285Y10290000D01*
X96529476Y10213809D01*
X96567571Y10137619D01*
X96605666Y9985238D01*
X96605666Y9870952D01*
X96567571Y9718571D01*
X96529476Y9642380D01*
X96453285Y9566190D01*
X96339000Y9528095D01*
X96262809Y9528095D01*
X96148523Y9566190D01*
X96110428Y9604285D01*
X96110428Y9870952D01*
X96262809Y9870952D01*
X95767571Y9528095D02*
X95767571Y10328095D01*
X95310428Y9528095D01*
X95310428Y10328095D01*
X94929476Y9528095D02*
X94929476Y10328095D01*
X94739000Y10328095D01*
X94624714Y10290000D01*
X94548523Y10213809D01*
X94510428Y10137619D01*
X94472333Y9985238D01*
X94472333Y9870952D01*
X94510428Y9718571D01*
X94548523Y9642380D01*
X94624714Y9566190D01*
X94739000Y9528095D01*
X94929476Y9528095D01*
X96129476Y-631904D02*
X96129476Y168095D01*
X95939000Y168095D01*
X95824714Y130000D01*
X95748523Y53809D01*
X95710428Y-22380D01*
X95672333Y-174761D01*
X95672333Y-289047D01*
X95710428Y-441428D01*
X95748523Y-517619D01*
X95824714Y-593809D01*
X95939000Y-631904D01*
X96129476Y-631904D01*
X94986619Y-98571D02*
X94986619Y-631904D01*
X95177095Y206190D02*
X95367571Y-365238D01*
X94872333Y-365238D01*
X95672333Y-3095714D02*
X95710428Y-3133809D01*
X95824714Y-3171904D01*
X95900904Y-3171904D01*
X96015190Y-3133809D01*
X96091380Y-3057619D01*
X96129476Y-2981428D01*
X96167571Y-2829047D01*
X96167571Y-2714761D01*
X96129476Y-2562380D01*
X96091380Y-2486190D01*
X96015190Y-2410000D01*
X95900904Y-2371904D01*
X95824714Y-2371904D01*
X95710428Y-2410000D01*
X95672333Y-2448095D01*
X94986619Y-2371904D02*
X95139000Y-2371904D01*
X95215190Y-2410000D01*
X95253285Y-2448095D01*
X95329476Y-2562380D01*
X95367571Y-2714761D01*
X95367571Y-3019523D01*
X95329476Y-3095714D01*
X95291380Y-3133809D01*
X95215190Y-3171904D01*
X95062809Y-3171904D01*
X94986619Y-3133809D01*
X94948523Y-3095714D01*
X94910428Y-3019523D01*
X94910428Y-2829047D01*
X94948523Y-2752857D01*
X94986619Y-2714761D01*
X95062809Y-2676666D01*
X95215190Y-2676666D01*
X95291380Y-2714761D01*
X95329476Y-2752857D01*
X95367571Y-2829047D01*
X96129476Y-5711904D02*
X96129476Y-4911904D01*
X95939000Y-4911904D01*
X95824714Y-4950000D01*
X95748523Y-5026190D01*
X95710428Y-5102380D01*
X95672333Y-5254761D01*
X95672333Y-5369047D01*
X95710428Y-5521428D01*
X95748523Y-5597619D01*
X95824714Y-5673809D01*
X95939000Y-5711904D01*
X96129476Y-5711904D01*
X95405666Y-4911904D02*
X94872333Y-4911904D01*
X95215190Y-5711904D01*
X96091380Y-7832857D02*
X95824714Y-7832857D01*
X95710428Y-8251904D02*
X96091380Y-8251904D01*
X96091380Y-7451904D01*
X95710428Y-7451904D01*
X95024714Y-7451904D02*
X95177095Y-7451904D01*
X95253285Y-7490000D01*
X95291380Y-7528095D01*
X95367571Y-7642380D01*
X95405666Y-7794761D01*
X95405666Y-8099523D01*
X95367571Y-8175714D01*
X95329476Y-8213809D01*
X95253285Y-8251904D01*
X95100904Y-8251904D01*
X95024714Y-8213809D01*
X94986619Y-8175714D01*
X94948523Y-8099523D01*
X94948523Y-7909047D01*
X94986619Y-7832857D01*
X95024714Y-7794761D01*
X95100904Y-7756666D01*
X95253285Y-7756666D01*
X95329476Y-7794761D01*
X95367571Y-7832857D01*
X95405666Y-7909047D01*
X95862809Y-10372857D02*
X95748523Y-10410952D01*
X95710428Y-10449047D01*
X95672333Y-10525238D01*
X95672333Y-10639523D01*
X95710428Y-10715714D01*
X95748523Y-10753809D01*
X95824714Y-10791904D01*
X96129476Y-10791904D01*
X96129476Y-9991904D01*
X95862809Y-9991904D01*
X95786619Y-10030000D01*
X95748523Y-10068095D01*
X95710428Y-10144285D01*
X95710428Y-10220476D01*
X95748523Y-10296666D01*
X95786619Y-10334761D01*
X95862809Y-10372857D01*
X96129476Y-10372857D01*
X94986619Y-10258571D02*
X94986619Y-10791904D01*
X95177095Y-9953809D02*
X95367571Y-10525238D01*
X94872333Y-10525238D01*
X95862809Y-12912857D02*
X95748523Y-12950952D01*
X95710428Y-12989047D01*
X95672333Y-13065238D01*
X95672333Y-13179523D01*
X95710428Y-13255714D01*
X95748523Y-13293809D01*
X95824714Y-13331904D01*
X96129476Y-13331904D01*
X96129476Y-12531904D01*
X95862809Y-12531904D01*
X95786619Y-12570000D01*
X95748523Y-12608095D01*
X95710428Y-12684285D01*
X95710428Y-12760476D01*
X95748523Y-12836666D01*
X95786619Y-12874761D01*
X95862809Y-12912857D01*
X96129476Y-12912857D01*
X94948523Y-12531904D02*
X95329476Y-12531904D01*
X95367571Y-12912857D01*
X95329476Y-12874761D01*
X95253285Y-12836666D01*
X95062809Y-12836666D01*
X94986619Y-12874761D01*
X94948523Y-12912857D01*
X94910428Y-12989047D01*
X94910428Y-13179523D01*
X94948523Y-13255714D01*
X94986619Y-13293809D01*
X95062809Y-13331904D01*
X95253285Y-13331904D01*
X95329476Y-13293809D01*
X95367571Y-13255714D01*
X106784809Y-12912857D02*
X106670523Y-12950952D01*
X106632428Y-12989047D01*
X106594333Y-13065238D01*
X106594333Y-13179523D01*
X106632428Y-13255714D01*
X106670523Y-13293809D01*
X106746714Y-13331904D01*
X107051476Y-13331904D01*
X107051476Y-12531904D01*
X106784809Y-12531904D01*
X106708619Y-12570000D01*
X106670523Y-12608095D01*
X106632428Y-12684285D01*
X106632428Y-12760476D01*
X106670523Y-12836666D01*
X106708619Y-12874761D01*
X106784809Y-12912857D01*
X107051476Y-12912857D01*
X105908619Y-12531904D02*
X106061000Y-12531904D01*
X106137190Y-12570000D01*
X106175285Y-12608095D01*
X106251476Y-12722380D01*
X106289571Y-12874761D01*
X106289571Y-13179523D01*
X106251476Y-13255714D01*
X106213380Y-13293809D01*
X106137190Y-13331904D01*
X105984809Y-13331904D01*
X105908619Y-13293809D01*
X105870523Y-13255714D01*
X105832428Y-13179523D01*
X105832428Y-12989047D01*
X105870523Y-12912857D01*
X105908619Y-12874761D01*
X105984809Y-12836666D01*
X106137190Y-12836666D01*
X106213380Y-12874761D01*
X106251476Y-12912857D01*
X106289571Y-12989047D01*
X106784809Y-7832857D02*
X106670523Y-7870952D01*
X106632428Y-7909047D01*
X106594333Y-7985238D01*
X106594333Y-8099523D01*
X106632428Y-8175714D01*
X106670523Y-8213809D01*
X106746714Y-8251904D01*
X107051476Y-8251904D01*
X107051476Y-7451904D01*
X106784809Y-7451904D01*
X106708619Y-7490000D01*
X106670523Y-7528095D01*
X106632428Y-7604285D01*
X106632428Y-7680476D01*
X106670523Y-7756666D01*
X106708619Y-7794761D01*
X106784809Y-7832857D01*
X107051476Y-7832857D01*
X106327666Y-7451904D02*
X105832428Y-7451904D01*
X106099095Y-7756666D01*
X105984809Y-7756666D01*
X105908619Y-7794761D01*
X105870523Y-7832857D01*
X105832428Y-7909047D01*
X105832428Y-8099523D01*
X105870523Y-8175714D01*
X105908619Y-8213809D01*
X105984809Y-8251904D01*
X106213380Y-8251904D01*
X106289571Y-8213809D01*
X106327666Y-8175714D01*
X106784809Y-5292857D02*
X106670523Y-5330952D01*
X106632428Y-5369047D01*
X106594333Y-5445238D01*
X106594333Y-5559523D01*
X106632428Y-5635714D01*
X106670523Y-5673809D01*
X106746714Y-5711904D01*
X107051476Y-5711904D01*
X107051476Y-4911904D01*
X106784809Y-4911904D01*
X106708619Y-4950000D01*
X106670523Y-4988095D01*
X106632428Y-5064285D01*
X106632428Y-5140476D01*
X106670523Y-5216666D01*
X106708619Y-5254761D01*
X106784809Y-5292857D01*
X107051476Y-5292857D01*
X105832428Y-5711904D02*
X106289571Y-5711904D01*
X106061000Y-5711904D02*
X106061000Y-4911904D01*
X106137190Y-5026190D01*
X106213380Y-5102380D01*
X106289571Y-5140476D01*
X106727666Y4867142D02*
X106994333Y4867142D01*
X106994333Y4448095D02*
X106994333Y5248095D01*
X106613380Y5248095D01*
X105965761Y4981428D02*
X105965761Y4448095D01*
X106156238Y5286190D02*
X106346714Y4714761D01*
X105851476Y4714761D01*
X107527666Y7788095D02*
X107261000Y6988095D01*
X106994333Y7788095D01*
X106270523Y7064285D02*
X106308619Y7026190D01*
X106422904Y6988095D01*
X106499095Y6988095D01*
X106613380Y7026190D01*
X106689571Y7102380D01*
X106727666Y7178571D01*
X106765761Y7330952D01*
X106765761Y7445238D01*
X106727666Y7597619D01*
X106689571Y7673809D01*
X106613380Y7750000D01*
X106499095Y7788095D01*
X106422904Y7788095D01*
X106308619Y7750000D01*
X106270523Y7711904D01*
X105470523Y7064285D02*
X105508619Y7026190D01*
X105622904Y6988095D01*
X105699095Y6988095D01*
X105813380Y7026190D01*
X105889571Y7102380D01*
X105927666Y7178571D01*
X105965761Y7330952D01*
X105965761Y7445238D01*
X105927666Y7597619D01*
X105889571Y7673809D01*
X105813380Y7750000D01*
X105699095Y7788095D01*
X105622904Y7788095D01*
X105508619Y7750000D01*
X105470523Y7711904D01*
X107070523Y12830000D02*
X107146714Y12868095D01*
X107261000Y12868095D01*
X107375285Y12830000D01*
X107451476Y12753809D01*
X107489571Y12677619D01*
X107527666Y12525238D01*
X107527666Y12410952D01*
X107489571Y12258571D01*
X107451476Y12182380D01*
X107375285Y12106190D01*
X107261000Y12068095D01*
X107184809Y12068095D01*
X107070523Y12106190D01*
X107032428Y12144285D01*
X107032428Y12410952D01*
X107184809Y12410952D01*
X106689571Y12068095D02*
X106689571Y12868095D01*
X106232428Y12068095D01*
X106232428Y12868095D01*
X105851476Y12068095D02*
X105851476Y12868095D01*
X105661000Y12868095D01*
X105546714Y12830000D01*
X105470523Y12753809D01*
X105432428Y12677619D01*
X105394333Y12525238D01*
X105394333Y12410952D01*
X105432428Y12258571D01*
X105470523Y12182380D01*
X105546714Y12106190D01*
X105661000Y12068095D01*
X105851476Y12068095D01*
X107013380Y14608095D02*
X107280047Y14989047D01*
X107470523Y14608095D02*
X107470523Y15408095D01*
X107165761Y15408095D01*
X107089571Y15370000D01*
X107051476Y15331904D01*
X107013380Y15255714D01*
X107013380Y15141428D01*
X107051476Y15065238D01*
X107089571Y15027142D01*
X107165761Y14989047D01*
X107470523Y14989047D01*
X106708619Y14836666D02*
X106327666Y14836666D01*
X106784809Y14608095D02*
X106518142Y15408095D01*
X106251476Y14608095D01*
X106061000Y15408095D02*
X105870523Y14608095D01*
X105718142Y15179523D01*
X105565761Y14608095D01*
X105375285Y15408095D01*
X106727666Y2327142D02*
X106994333Y2327142D01*
X106994333Y1908095D02*
X106994333Y2708095D01*
X106613380Y2708095D01*
X105927666Y2708095D02*
X106308619Y2708095D01*
X106346714Y2327142D01*
X106308619Y2365238D01*
X106232428Y2403333D01*
X106041952Y2403333D01*
X105965761Y2365238D01*
X105927666Y2327142D01*
X105889571Y2250952D01*
X105889571Y2060476D01*
X105927666Y1984285D01*
X105965761Y1946190D01*
X106041952Y1908095D01*
X106232428Y1908095D01*
X106308619Y1946190D01*
X106346714Y1984285D01*
X106727666Y-212857D02*
X106994333Y-212857D01*
X106994333Y-631904D02*
X106994333Y168095D01*
X106613380Y168095D01*
X105965761Y168095D02*
X106118142Y168095D01*
X106194333Y130000D01*
X106232428Y91904D01*
X106308619Y-22380D01*
X106346714Y-174761D01*
X106346714Y-479523D01*
X106308619Y-555714D01*
X106270523Y-593809D01*
X106194333Y-631904D01*
X106041952Y-631904D01*
X105965761Y-593809D01*
X105927666Y-555714D01*
X105889571Y-479523D01*
X105889571Y-289047D01*
X105927666Y-212857D01*
X105965761Y-174761D01*
X106041952Y-136666D01*
X106194333Y-136666D01*
X106270523Y-174761D01*
X106308619Y-212857D01*
X106346714Y-289047D01*
X106727666Y-2752857D02*
X106994333Y-2752857D01*
X106994333Y-3171904D02*
X106994333Y-2371904D01*
X106613380Y-2371904D01*
X106384809Y-2371904D02*
X105851476Y-2371904D01*
X106194333Y-3171904D01*
X106784809Y-10372857D02*
X106670523Y-10410952D01*
X106632428Y-10449047D01*
X106594333Y-10525238D01*
X106594333Y-10639523D01*
X106632428Y-10715714D01*
X106670523Y-10753809D01*
X106746714Y-10791904D01*
X107051476Y-10791904D01*
X107051476Y-9991904D01*
X106784809Y-9991904D01*
X106708619Y-10030000D01*
X106670523Y-10068095D01*
X106632428Y-10144285D01*
X106632428Y-10220476D01*
X106670523Y-10296666D01*
X106708619Y-10334761D01*
X106784809Y-10372857D01*
X107051476Y-10372857D01*
X106289571Y-10068095D02*
X106251476Y-10030000D01*
X106175285Y-9991904D01*
X105984809Y-9991904D01*
X105908619Y-10030000D01*
X105870523Y-10068095D01*
X105832428Y-10144285D01*
X105832428Y-10220476D01*
X105870523Y-10334761D01*
X106327666Y-10791904D01*
X105832428Y-10791904D01*
X99618604Y15408095D02*
X99161461Y15408095D01*
X99390032Y14608095D02*
X99390032Y15408095D01*
X98970985Y15408095D02*
X98437651Y14608095D01*
X98437651Y15408095D02*
X98970985Y14608095D01*
X97980508Y15408095D02*
X97904318Y15408095D01*
X97828128Y15370000D01*
X97790032Y15331904D01*
X97751937Y15255714D01*
X97713842Y15103333D01*
X97713842Y14912857D01*
X97751937Y14760476D01*
X97790032Y14684285D01*
X97828128Y14646190D01*
X97904318Y14608095D01*
X97980508Y14608095D01*
X98056699Y14646190D01*
X98094794Y14684285D01*
X98132889Y14760476D01*
X98170985Y14912857D01*
X98170985Y15103333D01*
X98132889Y15255714D01*
X98094794Y15331904D01*
X98056699Y15370000D01*
X97980508Y15408095D01*
X96799556Y15446190D02*
X97485270Y14417619D01*
X96532889Y14608095D02*
X96532889Y15408095D01*
X96342413Y15408095D01*
X96228128Y15370000D01*
X96151937Y15293809D01*
X96113842Y15217619D01*
X96075747Y15065238D01*
X96075747Y14950952D01*
X96113842Y14798571D01*
X96151937Y14722380D01*
X96228128Y14646190D01*
X96342413Y14608095D01*
X96532889Y14608095D01*
X95809080Y15408095D02*
X95313842Y15408095D01*
X95580508Y15103333D01*
X95466223Y15103333D01*
X95390032Y15065238D01*
X95351937Y15027142D01*
X95313842Y14950952D01*
X95313842Y14760476D01*
X95351937Y14684285D01*
X95390032Y14646190D01*
X95466223Y14608095D01*
X95694794Y14608095D01*
X95770985Y14646190D01*
X95809080Y14684285D01*
X106573333Y9586190D02*
X106459047Y9548095D01*
X106268571Y9548095D01*
X106192380Y9586190D01*
X106154285Y9624285D01*
X106116190Y9700476D01*
X106116190Y9776666D01*
X106154285Y9852857D01*
X106192380Y9890952D01*
X106268571Y9929047D01*
X106420952Y9967142D01*
X106497142Y10005238D01*
X106535238Y10043333D01*
X106573333Y10119523D01*
X106573333Y10195714D01*
X106535238Y10271904D01*
X106497142Y10310000D01*
X106420952Y10348095D01*
X106230476Y10348095D01*
X106116190Y10310000D01*
X105887619Y10348095D02*
X105430476Y10348095D01*
X105659047Y9548095D02*
X105659047Y10348095D01*
M02*
