M48
; DRILL file {KiCad (5.1.2-1)-1} date 2020 June 20, Saturday 08:49:11
; FORMAT={-:-/ absolute / metric / decimal}
; #@! TF.CreationDate,2020-06-20T08:49:11+09:00
; #@! TF.GenerationSoftware,Kicad,Pcbnew,(5.1.2-1)-1
; #@! TF.FileFunction,NonPlated,1,2,NPTH
FMAT,2
METRIC
T1C1.000
T2C1.700
T3C1.900
T4C2.200
T5C4.000
%
G90
G05
T1
X105.194Y-42.3
X115.634Y-42.3
X57.188Y-4.2
X67.628Y-4.2
X133.997Y-4.2
X144.437Y-4.2
X153.2Y-23.25
X163.64Y-23.25
X85.991Y-42.3
X96.431Y-42.3
X143.599Y-42.3
X154.039Y-42.3
X133.997Y-23.25
X144.437Y-23.25
X76.39Y-23.25
X86.83Y-23.25
X109.994Y-61.35
X120.434Y-61.35
X66.789Y-42.3
X77.229Y-42.3
X114.795Y-23.25
X125.235Y-23.25
X124.396Y-42.3
X134.836Y-42.3
X37.985Y-23.25
X48.425Y-23.25
X47.587Y-42.3
X58.027Y-42.3
X57.188Y-23.25
X67.628Y-23.25
X167.602Y-42.3
X178.042Y-42.3
X23.584Y-42.3
X34.024Y-42.3
X81.191Y-61.35
X91.631Y-61.35
T2
X134.137Y-19.05
X144.297Y-19.05
X76.53Y-19.05
X86.69Y-19.05
X110.134Y-57.15
X120.294Y-57.15
X66.929Y-38.1
X77.089Y-38.1
X114.935Y-19.05
X125.095Y-19.05
X124.536Y-38.1
X134.696Y-38.1
X38.125Y-19.05
X48.285Y-19.05
X47.727Y-38.1
X57.887Y-38.1
X57.328Y-19.05
X67.488Y-19.05
X167.742Y-38.1
X177.902Y-38.1
X23.724Y-38.1
X33.884Y-38.1
X81.331Y-57.15
X91.491Y-57.15
X105.334Y-38.1
X115.494Y-38.1
X57.328Y0.0
X67.488Y0.0
X134.137Y0.0
X144.297Y0.0
X153.34Y-19.05
X163.5Y-19.05
X86.131Y-38.1
X96.291Y-38.1
X143.739Y-38.1
X153.899Y-38.1
T3
X133.717Y-19.05
X144.717Y-19.05
X76.11Y-19.05
X87.11Y-19.05
X109.714Y-57.15
X120.714Y-57.15
X66.509Y-38.1
X77.509Y-38.1
X114.515Y-19.05
X125.515Y-19.05
X124.116Y-38.1
X135.116Y-38.1
X37.705Y-19.05
X48.705Y-19.05
X47.307Y-38.1
X58.307Y-38.1
X56.908Y-19.05
X67.908Y-19.05
X167.322Y-38.1
X178.322Y-38.1
X23.304Y-38.1
X34.304Y-38.1
X80.911Y-57.15
X91.911Y-57.15
X104.914Y-38.1
X115.914Y-38.1
X56.908Y0.0
X67.908Y0.0
X133.717Y0.0
X144.717Y0.0
X152.92Y-19.05
X163.92Y-19.05
X85.711Y-38.1
X96.711Y-38.1
X143.319Y-38.1
X154.319Y-38.1
T4
X185.0Y-64.5
X185.0Y14.5
X16.0Y-64.5
X16.0Y14.5
T5
X62.408Y0.0
X139.217Y0.0
X158.42Y-19.05
X91.211Y-38.1
X148.819Y-38.1
X139.217Y-19.05
X81.61Y-19.05
X115.214Y-57.15
X72.009Y-38.1
X120.015Y-19.05
X129.616Y-38.1
X43.205Y-19.05
X52.807Y-38.1
X62.408Y-19.05
X172.822Y-38.1
X28.804Y-38.1
X86.411Y-57.15
X110.414Y-38.1
T0
M30
