G04 #@! TF.GenerationSoftware,KiCad,Pcbnew,(5.1.2-1)-1*
G04 #@! TF.CreationDate,2020-06-20T08:49:02+09:00*
G04 #@! TF.ProjectId,xipad,78697061-642e-46b6-9963-61645f706362,rev?*
G04 #@! TF.SameCoordinates,Original*
G04 #@! TF.FileFunction,Soldermask,Top*
G04 #@! TF.FilePolarity,Negative*
%FSLAX46Y46*%
G04 Gerber Fmt 4.6, Leading zero omitted, Abs format (unit mm)*
G04 Created by KiCad (PCBNEW (5.1.2-1)-1) date 2020-06-20 08:49:02*
%MOMM*%
%LPD*%
G04 APERTURE LIST*
%ADD10C,0.010000*%
%ADD11C,0.100000*%
G04 APERTURE END LIST*
D10*
G36*
X161715580Y-50833180D02*
G01*
X161898603Y-50938147D01*
X162067665Y-51146675D01*
X162126201Y-51240974D01*
X162231767Y-51503642D01*
X162276505Y-51805218D01*
X162264669Y-52108564D01*
X162200517Y-52376545D01*
X162088306Y-52572024D01*
X161964476Y-52651887D01*
X161713597Y-52687032D01*
X161459603Y-52675095D01*
X161341332Y-52645328D01*
X161218789Y-52566886D01*
X161086604Y-52450931D01*
X161010561Y-52356539D01*
X160964131Y-52235824D01*
X160940371Y-52052977D01*
X160932334Y-51772189D01*
X160931948Y-51653588D01*
X160943274Y-51287349D01*
X160987168Y-51042446D01*
X161078504Y-50895738D01*
X161232156Y-50824083D01*
X161462996Y-50804338D01*
X161477793Y-50804298D01*
X161715580Y-50833180D01*
X161715580Y-50833180D01*
G37*
X161715580Y-50833180D02*
X161898603Y-50938147D01*
X162067665Y-51146675D01*
X162126201Y-51240974D01*
X162231767Y-51503642D01*
X162276505Y-51805218D01*
X162264669Y-52108564D01*
X162200517Y-52376545D01*
X162088306Y-52572024D01*
X161964476Y-52651887D01*
X161713597Y-52687032D01*
X161459603Y-52675095D01*
X161341332Y-52645328D01*
X161218789Y-52566886D01*
X161086604Y-52450931D01*
X161010561Y-52356539D01*
X160964131Y-52235824D01*
X160940371Y-52052977D01*
X160932334Y-51772189D01*
X160931948Y-51653588D01*
X160943274Y-51287349D01*
X160987168Y-51042446D01*
X161078504Y-50895738D01*
X161232156Y-50824083D01*
X161462996Y-50804338D01*
X161477793Y-50804298D01*
X161715580Y-50833180D01*
G36*
X164477597Y-48871711D02*
G01*
X165125160Y-48964197D01*
X165189541Y-48977755D01*
X166011725Y-49217479D01*
X166725693Y-49554386D01*
X167331341Y-49988400D01*
X167828564Y-50519448D01*
X168217261Y-51147453D01*
X168238439Y-51190943D01*
X168571199Y-51889138D01*
X168844009Y-52475592D01*
X169062495Y-52968513D01*
X169232282Y-53386112D01*
X169358996Y-53746597D01*
X169448261Y-54068178D01*
X169505704Y-54369065D01*
X169536950Y-54667467D01*
X169547623Y-54981593D01*
X169543350Y-55329653D01*
X169541111Y-55407751D01*
X169532493Y-55675451D01*
X169521404Y-55904261D01*
X169503115Y-56112344D01*
X169472895Y-56317862D01*
X169426013Y-56538976D01*
X169357738Y-56793848D01*
X169263339Y-57100641D01*
X169138086Y-57477517D01*
X168977248Y-57942637D01*
X168776094Y-58514163D01*
X168608647Y-58987602D01*
X168449015Y-59469373D01*
X168344547Y-59866316D01*
X168284623Y-60223449D01*
X168265270Y-60443190D01*
X168265542Y-60937454D01*
X168318048Y-61466573D01*
X168414744Y-61996303D01*
X168547588Y-62492397D01*
X168708537Y-62920613D01*
X168889548Y-63246704D01*
X168938607Y-63310179D01*
X169071088Y-63505985D01*
X169156972Y-63700950D01*
X169159181Y-63709331D01*
X169208186Y-63904584D01*
X151269540Y-63904584D01*
X151304014Y-63376934D01*
X151331846Y-63111323D01*
X152065825Y-63111323D01*
X152072619Y-63135895D01*
X152149390Y-63141359D01*
X152362342Y-63146608D01*
X152702096Y-63151595D01*
X153159276Y-63156272D01*
X153724502Y-63160592D01*
X154388398Y-63164505D01*
X155141585Y-63167965D01*
X155974685Y-63170923D01*
X156878320Y-63173332D01*
X157843113Y-63175143D01*
X158859686Y-63176309D01*
X159918661Y-63176782D01*
X160078512Y-63176790D01*
X161370081Y-63176492D01*
X162522893Y-63175544D01*
X163543753Y-63173868D01*
X164439460Y-63171388D01*
X165216818Y-63168024D01*
X165882628Y-63163698D01*
X166443692Y-63158333D01*
X166906813Y-63151850D01*
X167278792Y-63144172D01*
X167566431Y-63135221D01*
X167776532Y-63124918D01*
X167915897Y-63113185D01*
X167991328Y-63099945D01*
X168009934Y-63085816D01*
X167970441Y-62967213D01*
X167906677Y-62764832D01*
X167865519Y-62630945D01*
X167776064Y-62337286D01*
X167683638Y-62033917D01*
X167654882Y-61939541D01*
X167613191Y-61721563D01*
X167581718Y-61400714D01*
X167561531Y-61019396D01*
X167553703Y-60620009D01*
X167559304Y-60244954D01*
X167579405Y-59936632D01*
X167600657Y-59792550D01*
X167657677Y-59576130D01*
X167758555Y-59250828D01*
X167894313Y-58843392D01*
X168055975Y-58380569D01*
X168234563Y-57889107D01*
X168284611Y-57754727D01*
X168477717Y-57229572D01*
X168621807Y-56808808D01*
X168723839Y-56462462D01*
X168790772Y-56160558D01*
X168829566Y-55873122D01*
X168847180Y-55570182D01*
X168850674Y-55316619D01*
X168848038Y-54988258D01*
X168839786Y-54707893D01*
X168827320Y-54511589D01*
X168816758Y-54443266D01*
X168778864Y-54319074D01*
X168715401Y-54104424D01*
X168649810Y-53879226D01*
X168518211Y-53424355D01*
X166734868Y-53424355D01*
X166728508Y-54097564D01*
X166721822Y-54416760D01*
X166709358Y-54697461D01*
X166693333Y-54895627D01*
X166685883Y-54944570D01*
X166508871Y-55583181D01*
X166266171Y-56139949D01*
X166154868Y-56329569D01*
X166013080Y-56562621D01*
X165830508Y-56879953D01*
X165632782Y-57236318D01*
X165478709Y-57523286D01*
X165063294Y-58310756D01*
X164558011Y-57632455D01*
X164197308Y-57140862D01*
X163916998Y-56740102D01*
X163704140Y-56409309D01*
X163545796Y-56127617D01*
X163429026Y-55874163D01*
X163369999Y-55716737D01*
X163259298Y-55342345D01*
X163155971Y-54900060D01*
X163070424Y-54444051D01*
X163013066Y-54028484D01*
X162994483Y-53762309D01*
X162992252Y-53651145D01*
X163733954Y-53651145D01*
X163780731Y-54442847D01*
X163926434Y-55147249D01*
X164179119Y-55790762D01*
X164546841Y-56399795D01*
X164591001Y-56460841D01*
X164747873Y-56676188D01*
X164858302Y-56804746D01*
X164947304Y-56840186D01*
X165039896Y-56776181D01*
X165161093Y-56606403D01*
X165335912Y-56324526D01*
X165374162Y-56262750D01*
X165612487Y-55860373D01*
X165776779Y-55528502D01*
X165883472Y-55223613D01*
X165949000Y-54902181D01*
X165977104Y-54665827D01*
X166006186Y-53982240D01*
X165959796Y-53354837D01*
X165841994Y-52803105D01*
X165656837Y-52346531D01*
X165426751Y-52023352D01*
X165295491Y-51907165D01*
X165152927Y-51846835D01*
X164945276Y-51825054D01*
X164804838Y-51823209D01*
X164550310Y-51831515D01*
X164385839Y-51869358D01*
X164256278Y-51956123D01*
X164164223Y-52048406D01*
X163944818Y-52385755D01*
X163802894Y-52845352D01*
X163738316Y-53427699D01*
X163733954Y-53651145D01*
X162992252Y-53651145D01*
X162987700Y-53424355D01*
X158374895Y-53424355D01*
X158250041Y-53952005D01*
X158159204Y-54277757D01*
X158031808Y-54662224D01*
X157892486Y-55032048D01*
X157865156Y-55098280D01*
X157658386Y-55724583D01*
X157558907Y-56348242D01*
X157570706Y-56935535D01*
X157617315Y-57195662D01*
X157742029Y-57550161D01*
X157946722Y-57955648D01*
X158202937Y-58366008D01*
X158482219Y-58735123D01*
X158723465Y-58988304D01*
X159241511Y-59386165D01*
X159809035Y-59703157D01*
X160392466Y-59924788D01*
X160958237Y-60036566D01*
X161176593Y-60047278D01*
X161447349Y-60059400D01*
X161603853Y-60112842D01*
X161676564Y-60233213D01*
X161695941Y-60446123D01*
X161696131Y-60484124D01*
X161666821Y-60643736D01*
X161549995Y-60718081D01*
X161495988Y-60730835D01*
X161263762Y-60743879D01*
X160944644Y-60719158D01*
X160590120Y-60664074D01*
X160251673Y-60586028D01*
X160058596Y-60524220D01*
X159897479Y-60463975D01*
X159679067Y-60382394D01*
X159621919Y-60361060D01*
X159267521Y-60191513D01*
X158867866Y-59940961D01*
X158468614Y-59642072D01*
X158115425Y-59327513D01*
X157982205Y-59187901D01*
X157751633Y-58901143D01*
X157515549Y-58559334D01*
X157297703Y-58201944D01*
X157121840Y-57868440D01*
X157011710Y-57598294D01*
X156999473Y-57554584D01*
X156932731Y-57409685D01*
X156851263Y-57354441D01*
X156771189Y-57411746D01*
X156636309Y-57565803D01*
X156468787Y-57789821D01*
X156364196Y-57943081D01*
X156154332Y-58241132D01*
X155887170Y-58584298D01*
X155554666Y-58981710D01*
X155148777Y-59442493D01*
X154661457Y-59975778D01*
X154084664Y-60590691D01*
X153410354Y-61296362D01*
X153396550Y-61310703D01*
X152952267Y-61779838D01*
X152610208Y-62158600D01*
X152364435Y-62454026D01*
X152209013Y-62673154D01*
X152148730Y-62790193D01*
X152086645Y-62981762D01*
X152065825Y-63111323D01*
X151331846Y-63111323D01*
X151338577Y-63047095D01*
X151404466Y-62754562D01*
X151514711Y-62477555D01*
X151682342Y-62194296D01*
X151920389Y-61883006D01*
X152241882Y-61521907D01*
X152659851Y-61089221D01*
X152692431Y-61056323D01*
X153014259Y-60727798D01*
X153315067Y-60413485D01*
X153573685Y-60136056D01*
X153768946Y-59918181D01*
X153872423Y-59792550D01*
X154007080Y-59625096D01*
X154214100Y-59384670D01*
X154465212Y-59103465D01*
X154730814Y-58815094D01*
X155537211Y-57859301D01*
X156235618Y-56826362D01*
X156831837Y-55705649D01*
X157331667Y-54486536D01*
X157662967Y-53444146D01*
X157735237Y-53206017D01*
X158431956Y-53206017D01*
X162995840Y-53206017D01*
X163081584Y-52787535D01*
X163204076Y-52344274D01*
X163374294Y-51942731D01*
X163574215Y-51619104D01*
X163757676Y-51429557D01*
X164152055Y-51214928D01*
X164595498Y-51110437D01*
X165051853Y-51115328D01*
X165484966Y-51228845D01*
X165858686Y-51450232D01*
X165886652Y-51474086D01*
X166080570Y-51668868D01*
X166235001Y-51890561D01*
X166369787Y-52175396D01*
X166504768Y-52559603D01*
X166536187Y-52660172D01*
X166692886Y-53169627D01*
X167542360Y-53190132D01*
X167874461Y-53196229D01*
X168145730Y-53197558D01*
X168327667Y-53194233D01*
X168391833Y-53186667D01*
X168357762Y-53082539D01*
X168270000Y-52904830D01*
X168150223Y-52690039D01*
X168020109Y-52474664D01*
X167901333Y-52295204D01*
X167815572Y-52188158D01*
X167790071Y-52173439D01*
X167683841Y-52242078D01*
X167587333Y-52337193D01*
X167458106Y-52446073D01*
X167348432Y-52476851D01*
X167300203Y-52418243D01*
X167300143Y-52414541D01*
X167237542Y-52356278D01*
X167095570Y-52309945D01*
X166894610Y-52200225D01*
X166765896Y-51975057D01*
X166718025Y-51649898D01*
X166717908Y-51630870D01*
X166750443Y-51406161D01*
X166832831Y-51187590D01*
X166942247Y-51020448D01*
X167055868Y-50950026D01*
X167061107Y-50949856D01*
X167145234Y-50920342D01*
X167118033Y-50827170D01*
X166975857Y-50663394D01*
X166845272Y-50538814D01*
X166458769Y-50225800D01*
X166049015Y-49985227D01*
X165590525Y-49808721D01*
X165057813Y-49687908D01*
X164425393Y-49614411D01*
X163952292Y-49588178D01*
X163508989Y-49575678D01*
X163166610Y-49578527D01*
X162881034Y-49599841D01*
X162608140Y-49642740D01*
X162337216Y-49702307D01*
X161477868Y-49975691D01*
X160699070Y-50362722D01*
X160009381Y-50856376D01*
X159417354Y-51449631D01*
X158931548Y-52135463D01*
X158622994Y-52751146D01*
X158431956Y-53206017D01*
X157735237Y-53206017D01*
X157784392Y-53044052D01*
X157920791Y-52643780D01*
X158054906Y-52291520D01*
X158162700Y-52048758D01*
X158617171Y-51297324D01*
X159178031Y-50639173D01*
X159848447Y-50071758D01*
X160631588Y-49592532D01*
X161530621Y-49198951D01*
X161841690Y-49091204D01*
X162414414Y-48951070D01*
X163075674Y-48866725D01*
X163778918Y-48839746D01*
X164477597Y-48871711D01*
X164477597Y-48871711D01*
G37*
X164477597Y-48871711D02*
X165125160Y-48964197D01*
X165189541Y-48977755D01*
X166011725Y-49217479D01*
X166725693Y-49554386D01*
X167331341Y-49988400D01*
X167828564Y-50519448D01*
X168217261Y-51147453D01*
X168238439Y-51190943D01*
X168571199Y-51889138D01*
X168844009Y-52475592D01*
X169062495Y-52968513D01*
X169232282Y-53386112D01*
X169358996Y-53746597D01*
X169448261Y-54068178D01*
X169505704Y-54369065D01*
X169536950Y-54667467D01*
X169547623Y-54981593D01*
X169543350Y-55329653D01*
X169541111Y-55407751D01*
X169532493Y-55675451D01*
X169521404Y-55904261D01*
X169503115Y-56112344D01*
X169472895Y-56317862D01*
X169426013Y-56538976D01*
X169357738Y-56793848D01*
X169263339Y-57100641D01*
X169138086Y-57477517D01*
X168977248Y-57942637D01*
X168776094Y-58514163D01*
X168608647Y-58987602D01*
X168449015Y-59469373D01*
X168344547Y-59866316D01*
X168284623Y-60223449D01*
X168265270Y-60443190D01*
X168265542Y-60937454D01*
X168318048Y-61466573D01*
X168414744Y-61996303D01*
X168547588Y-62492397D01*
X168708537Y-62920613D01*
X168889548Y-63246704D01*
X168938607Y-63310179D01*
X169071088Y-63505985D01*
X169156972Y-63700950D01*
X169159181Y-63709331D01*
X169208186Y-63904584D01*
X151269540Y-63904584D01*
X151304014Y-63376934D01*
X151331846Y-63111323D01*
X152065825Y-63111323D01*
X152072619Y-63135895D01*
X152149390Y-63141359D01*
X152362342Y-63146608D01*
X152702096Y-63151595D01*
X153159276Y-63156272D01*
X153724502Y-63160592D01*
X154388398Y-63164505D01*
X155141585Y-63167965D01*
X155974685Y-63170923D01*
X156878320Y-63173332D01*
X157843113Y-63175143D01*
X158859686Y-63176309D01*
X159918661Y-63176782D01*
X160078512Y-63176790D01*
X161370081Y-63176492D01*
X162522893Y-63175544D01*
X163543753Y-63173868D01*
X164439460Y-63171388D01*
X165216818Y-63168024D01*
X165882628Y-63163698D01*
X166443692Y-63158333D01*
X166906813Y-63151850D01*
X167278792Y-63144172D01*
X167566431Y-63135221D01*
X167776532Y-63124918D01*
X167915897Y-63113185D01*
X167991328Y-63099945D01*
X168009934Y-63085816D01*
X167970441Y-62967213D01*
X167906677Y-62764832D01*
X167865519Y-62630945D01*
X167776064Y-62337286D01*
X167683638Y-62033917D01*
X167654882Y-61939541D01*
X167613191Y-61721563D01*
X167581718Y-61400714D01*
X167561531Y-61019396D01*
X167553703Y-60620009D01*
X167559304Y-60244954D01*
X167579405Y-59936632D01*
X167600657Y-59792550D01*
X167657677Y-59576130D01*
X167758555Y-59250828D01*
X167894313Y-58843392D01*
X168055975Y-58380569D01*
X168234563Y-57889107D01*
X168284611Y-57754727D01*
X168477717Y-57229572D01*
X168621807Y-56808808D01*
X168723839Y-56462462D01*
X168790772Y-56160558D01*
X168829566Y-55873122D01*
X168847180Y-55570182D01*
X168850674Y-55316619D01*
X168848038Y-54988258D01*
X168839786Y-54707893D01*
X168827320Y-54511589D01*
X168816758Y-54443266D01*
X168778864Y-54319074D01*
X168715401Y-54104424D01*
X168649810Y-53879226D01*
X168518211Y-53424355D01*
X166734868Y-53424355D01*
X166728508Y-54097564D01*
X166721822Y-54416760D01*
X166709358Y-54697461D01*
X166693333Y-54895627D01*
X166685883Y-54944570D01*
X166508871Y-55583181D01*
X166266171Y-56139949D01*
X166154868Y-56329569D01*
X166013080Y-56562621D01*
X165830508Y-56879953D01*
X165632782Y-57236318D01*
X165478709Y-57523286D01*
X165063294Y-58310756D01*
X164558011Y-57632455D01*
X164197308Y-57140862D01*
X163916998Y-56740102D01*
X163704140Y-56409309D01*
X163545796Y-56127617D01*
X163429026Y-55874163D01*
X163369999Y-55716737D01*
X163259298Y-55342345D01*
X163155971Y-54900060D01*
X163070424Y-54444051D01*
X163013066Y-54028484D01*
X162994483Y-53762309D01*
X162992252Y-53651145D01*
X163733954Y-53651145D01*
X163780731Y-54442847D01*
X163926434Y-55147249D01*
X164179119Y-55790762D01*
X164546841Y-56399795D01*
X164591001Y-56460841D01*
X164747873Y-56676188D01*
X164858302Y-56804746D01*
X164947304Y-56840186D01*
X165039896Y-56776181D01*
X165161093Y-56606403D01*
X165335912Y-56324526D01*
X165374162Y-56262750D01*
X165612487Y-55860373D01*
X165776779Y-55528502D01*
X165883472Y-55223613D01*
X165949000Y-54902181D01*
X165977104Y-54665827D01*
X166006186Y-53982240D01*
X165959796Y-53354837D01*
X165841994Y-52803105D01*
X165656837Y-52346531D01*
X165426751Y-52023352D01*
X165295491Y-51907165D01*
X165152927Y-51846835D01*
X164945276Y-51825054D01*
X164804838Y-51823209D01*
X164550310Y-51831515D01*
X164385839Y-51869358D01*
X164256278Y-51956123D01*
X164164223Y-52048406D01*
X163944818Y-52385755D01*
X163802894Y-52845352D01*
X163738316Y-53427699D01*
X163733954Y-53651145D01*
X162992252Y-53651145D01*
X162987700Y-53424355D01*
X158374895Y-53424355D01*
X158250041Y-53952005D01*
X158159204Y-54277757D01*
X158031808Y-54662224D01*
X157892486Y-55032048D01*
X157865156Y-55098280D01*
X157658386Y-55724583D01*
X157558907Y-56348242D01*
X157570706Y-56935535D01*
X157617315Y-57195662D01*
X157742029Y-57550161D01*
X157946722Y-57955648D01*
X158202937Y-58366008D01*
X158482219Y-58735123D01*
X158723465Y-58988304D01*
X159241511Y-59386165D01*
X159809035Y-59703157D01*
X160392466Y-59924788D01*
X160958237Y-60036566D01*
X161176593Y-60047278D01*
X161447349Y-60059400D01*
X161603853Y-60112842D01*
X161676564Y-60233213D01*
X161695941Y-60446123D01*
X161696131Y-60484124D01*
X161666821Y-60643736D01*
X161549995Y-60718081D01*
X161495988Y-60730835D01*
X161263762Y-60743879D01*
X160944644Y-60719158D01*
X160590120Y-60664074D01*
X160251673Y-60586028D01*
X160058596Y-60524220D01*
X159897479Y-60463975D01*
X159679067Y-60382394D01*
X159621919Y-60361060D01*
X159267521Y-60191513D01*
X158867866Y-59940961D01*
X158468614Y-59642072D01*
X158115425Y-59327513D01*
X157982205Y-59187901D01*
X157751633Y-58901143D01*
X157515549Y-58559334D01*
X157297703Y-58201944D01*
X157121840Y-57868440D01*
X157011710Y-57598294D01*
X156999473Y-57554584D01*
X156932731Y-57409685D01*
X156851263Y-57354441D01*
X156771189Y-57411746D01*
X156636309Y-57565803D01*
X156468787Y-57789821D01*
X156364196Y-57943081D01*
X156154332Y-58241132D01*
X155887170Y-58584298D01*
X155554666Y-58981710D01*
X155148777Y-59442493D01*
X154661457Y-59975778D01*
X154084664Y-60590691D01*
X153410354Y-61296362D01*
X153396550Y-61310703D01*
X152952267Y-61779838D01*
X152610208Y-62158600D01*
X152364435Y-62454026D01*
X152209013Y-62673154D01*
X152148730Y-62790193D01*
X152086645Y-62981762D01*
X152065825Y-63111323D01*
X151331846Y-63111323D01*
X151338577Y-63047095D01*
X151404466Y-62754562D01*
X151514711Y-62477555D01*
X151682342Y-62194296D01*
X151920389Y-61883006D01*
X152241882Y-61521907D01*
X152659851Y-61089221D01*
X152692431Y-61056323D01*
X153014259Y-60727798D01*
X153315067Y-60413485D01*
X153573685Y-60136056D01*
X153768946Y-59918181D01*
X153872423Y-59792550D01*
X154007080Y-59625096D01*
X154214100Y-59384670D01*
X154465212Y-59103465D01*
X154730814Y-58815094D01*
X155537211Y-57859301D01*
X156235618Y-56826362D01*
X156831837Y-55705649D01*
X157331667Y-54486536D01*
X157662967Y-53444146D01*
X157735237Y-53206017D01*
X158431956Y-53206017D01*
X162995840Y-53206017D01*
X163081584Y-52787535D01*
X163204076Y-52344274D01*
X163374294Y-51942731D01*
X163574215Y-51619104D01*
X163757676Y-51429557D01*
X164152055Y-51214928D01*
X164595498Y-51110437D01*
X165051853Y-51115328D01*
X165484966Y-51228845D01*
X165858686Y-51450232D01*
X165886652Y-51474086D01*
X166080570Y-51668868D01*
X166235001Y-51890561D01*
X166369787Y-52175396D01*
X166504768Y-52559603D01*
X166536187Y-52660172D01*
X166692886Y-53169627D01*
X167542360Y-53190132D01*
X167874461Y-53196229D01*
X168145730Y-53197558D01*
X168327667Y-53194233D01*
X168391833Y-53186667D01*
X168357762Y-53082539D01*
X168270000Y-52904830D01*
X168150223Y-52690039D01*
X168020109Y-52474664D01*
X167901333Y-52295204D01*
X167815572Y-52188158D01*
X167790071Y-52173439D01*
X167683841Y-52242078D01*
X167587333Y-52337193D01*
X167458106Y-52446073D01*
X167348432Y-52476851D01*
X167300203Y-52418243D01*
X167300143Y-52414541D01*
X167237542Y-52356278D01*
X167095570Y-52309945D01*
X166894610Y-52200225D01*
X166765896Y-51975057D01*
X166718025Y-51649898D01*
X166717908Y-51630870D01*
X166750443Y-51406161D01*
X166832831Y-51187590D01*
X166942247Y-51020448D01*
X167055868Y-50950026D01*
X167061107Y-50949856D01*
X167145234Y-50920342D01*
X167118033Y-50827170D01*
X166975857Y-50663394D01*
X166845272Y-50538814D01*
X166458769Y-50225800D01*
X166049015Y-49985227D01*
X165590525Y-49808721D01*
X165057813Y-49687908D01*
X164425393Y-49614411D01*
X163952292Y-49588178D01*
X163508989Y-49575678D01*
X163166610Y-49578527D01*
X162881034Y-49599841D01*
X162608140Y-49642740D01*
X162337216Y-49702307D01*
X161477868Y-49975691D01*
X160699070Y-50362722D01*
X160009381Y-50856376D01*
X159417354Y-51449631D01*
X158931548Y-52135463D01*
X158622994Y-52751146D01*
X158431956Y-53206017D01*
X157735237Y-53206017D01*
X157784392Y-53044052D01*
X157920791Y-52643780D01*
X158054906Y-52291520D01*
X158162700Y-52048758D01*
X158617171Y-51297324D01*
X159178031Y-50639173D01*
X159848447Y-50071758D01*
X160631588Y-49592532D01*
X161530621Y-49198951D01*
X161841690Y-49091204D01*
X162414414Y-48951070D01*
X163075674Y-48866725D01*
X163778918Y-48839746D01*
X164477597Y-48871711D01*
D11*
G36*
X185224549Y-63371116D02*
G01*
X185335734Y-63393232D01*
X185545203Y-63479997D01*
X185733720Y-63605960D01*
X185894040Y-63766280D01*
X186020003Y-63954797D01*
X186106768Y-64164266D01*
X186151000Y-64386636D01*
X186151000Y-64613364D01*
X186106768Y-64835734D01*
X186020003Y-65045203D01*
X185894040Y-65233720D01*
X185733720Y-65394040D01*
X185545203Y-65520003D01*
X185335734Y-65606768D01*
X185224549Y-65628884D01*
X185113365Y-65651000D01*
X184886635Y-65651000D01*
X184775451Y-65628884D01*
X184664266Y-65606768D01*
X184454797Y-65520003D01*
X184266280Y-65394040D01*
X184105960Y-65233720D01*
X183979997Y-65045203D01*
X183893232Y-64835734D01*
X183849000Y-64613364D01*
X183849000Y-64386636D01*
X183893232Y-64164266D01*
X183979997Y-63954797D01*
X184105960Y-63766280D01*
X184266280Y-63605960D01*
X184454797Y-63479997D01*
X184664266Y-63393232D01*
X184775451Y-63371116D01*
X184886635Y-63349000D01*
X185113365Y-63349000D01*
X185224549Y-63371116D01*
X185224549Y-63371116D01*
G37*
G36*
X16224549Y-63371116D02*
G01*
X16335734Y-63393232D01*
X16545203Y-63479997D01*
X16733720Y-63605960D01*
X16894040Y-63766280D01*
X17020003Y-63954797D01*
X17106768Y-64164266D01*
X17151000Y-64386636D01*
X17151000Y-64613364D01*
X17106768Y-64835734D01*
X17020003Y-65045203D01*
X16894040Y-65233720D01*
X16733720Y-65394040D01*
X16545203Y-65520003D01*
X16335734Y-65606768D01*
X16224549Y-65628884D01*
X16113365Y-65651000D01*
X15886635Y-65651000D01*
X15775451Y-65628884D01*
X15664266Y-65606768D01*
X15454797Y-65520003D01*
X15266280Y-65394040D01*
X15105960Y-65233720D01*
X14979997Y-65045203D01*
X14893232Y-64835734D01*
X14849000Y-64613364D01*
X14849000Y-64386636D01*
X14893232Y-64164266D01*
X14979997Y-63954797D01*
X15105960Y-63766280D01*
X15266280Y-63605960D01*
X15454797Y-63479997D01*
X15664266Y-63393232D01*
X15775451Y-63371116D01*
X15886635Y-63349000D01*
X16113365Y-63349000D01*
X16224549Y-63371116D01*
X16224549Y-63371116D01*
G37*
G36*
X119751000Y-64851000D02*
G01*
X118049000Y-64851000D01*
X118049000Y-63149000D01*
X119751000Y-63149000D01*
X119751000Y-64851000D01*
X119751000Y-64851000D01*
G37*
G36*
X111348228Y-63181703D02*
G01*
X111503100Y-63245853D01*
X111642481Y-63338985D01*
X111761015Y-63457519D01*
X111854147Y-63596900D01*
X111918297Y-63751772D01*
X111951000Y-63916184D01*
X111951000Y-64083816D01*
X111918297Y-64248228D01*
X111854147Y-64403100D01*
X111761015Y-64542481D01*
X111642481Y-64661015D01*
X111503100Y-64754147D01*
X111348228Y-64818297D01*
X111183816Y-64851000D01*
X111016184Y-64851000D01*
X110851772Y-64818297D01*
X110696900Y-64754147D01*
X110557519Y-64661015D01*
X110438985Y-64542481D01*
X110345853Y-64403100D01*
X110281703Y-64248228D01*
X110249000Y-64083816D01*
X110249000Y-63916184D01*
X110281703Y-63751772D01*
X110345853Y-63596900D01*
X110438985Y-63457519D01*
X110557519Y-63338985D01*
X110696900Y-63245853D01*
X110851772Y-63181703D01*
X111016184Y-63149000D01*
X111183816Y-63149000D01*
X111348228Y-63181703D01*
X111348228Y-63181703D01*
G37*
G36*
X90751000Y-64851000D02*
G01*
X89049000Y-64851000D01*
X89049000Y-63149000D01*
X90751000Y-63149000D01*
X90751000Y-64851000D01*
X90751000Y-64851000D01*
G37*
G36*
X82348228Y-63181703D02*
G01*
X82503100Y-63245853D01*
X82642481Y-63338985D01*
X82761015Y-63457519D01*
X82854147Y-63596900D01*
X82918297Y-63751772D01*
X82951000Y-63916184D01*
X82951000Y-64083816D01*
X82918297Y-64248228D01*
X82854147Y-64403100D01*
X82761015Y-64542481D01*
X82642481Y-64661015D01*
X82503100Y-64754147D01*
X82348228Y-64818297D01*
X82183816Y-64851000D01*
X82016184Y-64851000D01*
X81851772Y-64818297D01*
X81696900Y-64754147D01*
X81557519Y-64661015D01*
X81438985Y-64542481D01*
X81345853Y-64403100D01*
X81281703Y-64248228D01*
X81249000Y-64083816D01*
X81249000Y-63916184D01*
X81281703Y-63751772D01*
X81345853Y-63596900D01*
X81438985Y-63457519D01*
X81557519Y-63338985D01*
X81696900Y-63245853D01*
X81851772Y-63181703D01*
X82016184Y-63149000D01*
X82183816Y-63149000D01*
X82348228Y-63181703D01*
X82348228Y-63181703D01*
G37*
G36*
X117251000Y-64651000D02*
G01*
X115549000Y-64651000D01*
X115549000Y-63349000D01*
X117251000Y-63349000D01*
X117251000Y-64651000D01*
X117251000Y-64651000D01*
G37*
G36*
X114451000Y-64651000D02*
G01*
X112749000Y-64651000D01*
X112749000Y-63349000D01*
X114451000Y-63349000D01*
X114451000Y-64651000D01*
X114451000Y-64651000D01*
G37*
G36*
X85451000Y-64651000D02*
G01*
X83749000Y-64651000D01*
X83749000Y-63349000D01*
X85451000Y-63349000D01*
X85451000Y-64651000D01*
X85451000Y-64651000D01*
G37*
G36*
X88251000Y-64651000D02*
G01*
X86549000Y-64651000D01*
X86549000Y-63349000D01*
X88251000Y-63349000D01*
X88251000Y-64651000D01*
X88251000Y-64651000D01*
G37*
G36*
X81351521Y-60820174D02*
G01*
X81451795Y-60861709D01*
X81451796Y-60861710D01*
X81542042Y-60922010D01*
X81618790Y-60998758D01*
X81618791Y-60998760D01*
X81679091Y-61089005D01*
X81720626Y-61189279D01*
X81741800Y-61295730D01*
X81741800Y-61404270D01*
X81720626Y-61510721D01*
X81679091Y-61610995D01*
X81679090Y-61610996D01*
X81618790Y-61701242D01*
X81542042Y-61777990D01*
X81496612Y-61808345D01*
X81451795Y-61838291D01*
X81351521Y-61879826D01*
X81245070Y-61901000D01*
X81136530Y-61901000D01*
X81030079Y-61879826D01*
X80929805Y-61838291D01*
X80884988Y-61808345D01*
X80839558Y-61777990D01*
X80762810Y-61701242D01*
X80702510Y-61610996D01*
X80702509Y-61610995D01*
X80660974Y-61510721D01*
X80639800Y-61404270D01*
X80639800Y-61295730D01*
X80660974Y-61189279D01*
X80702509Y-61089005D01*
X80762809Y-60998760D01*
X80762810Y-60998758D01*
X80839558Y-60922010D01*
X80929804Y-60861710D01*
X80929805Y-60861709D01*
X81030079Y-60820174D01*
X81136530Y-60799000D01*
X81245070Y-60799000D01*
X81351521Y-60820174D01*
X81351521Y-60820174D01*
G37*
G36*
X91791521Y-60820174D02*
G01*
X91891795Y-60861709D01*
X91891796Y-60861710D01*
X91982042Y-60922010D01*
X92058790Y-60998758D01*
X92058791Y-60998760D01*
X92119091Y-61089005D01*
X92160626Y-61189279D01*
X92181800Y-61295730D01*
X92181800Y-61404270D01*
X92160626Y-61510721D01*
X92119091Y-61610995D01*
X92119090Y-61610996D01*
X92058790Y-61701242D01*
X91982042Y-61777990D01*
X91936612Y-61808345D01*
X91891795Y-61838291D01*
X91791521Y-61879826D01*
X91685070Y-61901000D01*
X91576530Y-61901000D01*
X91470079Y-61879826D01*
X91369805Y-61838291D01*
X91324988Y-61808345D01*
X91279558Y-61777990D01*
X91202810Y-61701242D01*
X91142510Y-61610996D01*
X91142509Y-61610995D01*
X91100974Y-61510721D01*
X91079800Y-61404270D01*
X91079800Y-61295730D01*
X91100974Y-61189279D01*
X91142509Y-61089005D01*
X91202809Y-60998760D01*
X91202810Y-60998758D01*
X91279558Y-60922010D01*
X91369804Y-60861710D01*
X91369805Y-60861709D01*
X91470079Y-60820174D01*
X91576530Y-60799000D01*
X91685070Y-60799000D01*
X91791521Y-60820174D01*
X91791521Y-60820174D01*
G37*
G36*
X110155121Y-60820174D02*
G01*
X110255395Y-60861709D01*
X110255396Y-60861710D01*
X110345642Y-60922010D01*
X110422390Y-60998758D01*
X110422391Y-60998760D01*
X110482691Y-61089005D01*
X110524226Y-61189279D01*
X110545400Y-61295730D01*
X110545400Y-61404270D01*
X110524226Y-61510721D01*
X110482691Y-61610995D01*
X110482690Y-61610996D01*
X110422390Y-61701242D01*
X110345642Y-61777990D01*
X110300212Y-61808345D01*
X110255395Y-61838291D01*
X110155121Y-61879826D01*
X110048670Y-61901000D01*
X109940130Y-61901000D01*
X109833679Y-61879826D01*
X109733405Y-61838291D01*
X109688588Y-61808345D01*
X109643158Y-61777990D01*
X109566410Y-61701242D01*
X109506110Y-61610996D01*
X109506109Y-61610995D01*
X109464574Y-61510721D01*
X109443400Y-61404270D01*
X109443400Y-61295730D01*
X109464574Y-61189279D01*
X109506109Y-61089005D01*
X109566409Y-60998760D01*
X109566410Y-60998758D01*
X109643158Y-60922010D01*
X109733404Y-60861710D01*
X109733405Y-60861709D01*
X109833679Y-60820174D01*
X109940130Y-60799000D01*
X110048670Y-60799000D01*
X110155121Y-60820174D01*
X110155121Y-60820174D01*
G37*
G36*
X120595121Y-60820174D02*
G01*
X120695395Y-60861709D01*
X120695396Y-60861710D01*
X120785642Y-60922010D01*
X120862390Y-60998758D01*
X120862391Y-60998760D01*
X120922691Y-61089005D01*
X120964226Y-61189279D01*
X120985400Y-61295730D01*
X120985400Y-61404270D01*
X120964226Y-61510721D01*
X120922691Y-61610995D01*
X120922690Y-61610996D01*
X120862390Y-61701242D01*
X120785642Y-61777990D01*
X120740212Y-61808345D01*
X120695395Y-61838291D01*
X120595121Y-61879826D01*
X120488670Y-61901000D01*
X120380130Y-61901000D01*
X120273679Y-61879826D01*
X120173405Y-61838291D01*
X120128588Y-61808345D01*
X120083158Y-61777990D01*
X120006410Y-61701242D01*
X119946110Y-61610996D01*
X119946109Y-61610995D01*
X119904574Y-61510721D01*
X119883400Y-61404270D01*
X119883400Y-61295730D01*
X119904574Y-61189279D01*
X119946109Y-61089005D01*
X120006409Y-60998760D01*
X120006410Y-60998758D01*
X120083158Y-60922010D01*
X120173404Y-60861710D01*
X120173405Y-60861709D01*
X120273679Y-60820174D01*
X120380130Y-60799000D01*
X120488670Y-60799000D01*
X120595121Y-60820174D01*
X120595121Y-60820174D01*
G37*
G36*
X115812654Y-55177818D02*
G01*
X116185911Y-55332426D01*
X116185913Y-55332427D01*
X116521836Y-55556884D01*
X116807516Y-55842564D01*
X117031974Y-56178489D01*
X117186582Y-56551746D01*
X117265400Y-56947993D01*
X117265400Y-57352007D01*
X117186582Y-57748254D01*
X117057239Y-58060515D01*
X117031973Y-58121513D01*
X116807516Y-58457436D01*
X116521836Y-58743116D01*
X116185913Y-58967573D01*
X116185912Y-58967574D01*
X116185911Y-58967574D01*
X115812654Y-59122182D01*
X115416407Y-59201000D01*
X115012393Y-59201000D01*
X114616146Y-59122182D01*
X114242889Y-58967574D01*
X114242888Y-58967574D01*
X114242887Y-58967573D01*
X113906964Y-58743116D01*
X113621284Y-58457436D01*
X113396827Y-58121513D01*
X113371561Y-58060515D01*
X113242218Y-57748254D01*
X113163400Y-57352007D01*
X113163400Y-56947993D01*
X113242218Y-56551746D01*
X113396826Y-56178489D01*
X113621284Y-55842564D01*
X113906964Y-55556884D01*
X114242887Y-55332427D01*
X114242889Y-55332426D01*
X114616146Y-55177818D01*
X115012393Y-55099000D01*
X115416407Y-55099000D01*
X115812654Y-55177818D01*
X115812654Y-55177818D01*
G37*
G36*
X87009054Y-55177818D02*
G01*
X87382311Y-55332426D01*
X87382313Y-55332427D01*
X87718236Y-55556884D01*
X88003916Y-55842564D01*
X88228374Y-56178489D01*
X88382982Y-56551746D01*
X88461800Y-56947993D01*
X88461800Y-57352007D01*
X88382982Y-57748254D01*
X88253639Y-58060515D01*
X88228373Y-58121513D01*
X88003916Y-58457436D01*
X87718236Y-58743116D01*
X87382313Y-58967573D01*
X87382312Y-58967574D01*
X87382311Y-58967574D01*
X87009054Y-59122182D01*
X86612807Y-59201000D01*
X86208793Y-59201000D01*
X85812546Y-59122182D01*
X85439289Y-58967574D01*
X85439288Y-58967574D01*
X85439287Y-58967573D01*
X85103364Y-58743116D01*
X84817684Y-58457436D01*
X84593227Y-58121513D01*
X84567961Y-58060515D01*
X84438618Y-57748254D01*
X84359800Y-57352007D01*
X84359800Y-56947993D01*
X84438618Y-56551746D01*
X84593226Y-56178489D01*
X84817684Y-55842564D01*
X85103364Y-55556884D01*
X85439287Y-55332427D01*
X85439289Y-55332426D01*
X85812546Y-55177818D01*
X86208793Y-55099000D01*
X86612807Y-55099000D01*
X87009054Y-55177818D01*
X87009054Y-55177818D01*
G37*
G36*
X121006381Y-56187468D02*
G01*
X121188551Y-56262926D01*
X121352500Y-56372473D01*
X121491927Y-56511900D01*
X121601474Y-56675849D01*
X121676932Y-56858019D01*
X121715400Y-57051410D01*
X121715400Y-57248590D01*
X121676932Y-57441981D01*
X121601474Y-57624151D01*
X121491927Y-57788100D01*
X121352500Y-57927527D01*
X121188551Y-58037074D01*
X121006381Y-58112532D01*
X120909685Y-58131766D01*
X120812991Y-58151000D01*
X120615809Y-58151000D01*
X120519115Y-58131766D01*
X120422419Y-58112532D01*
X120296840Y-58060515D01*
X120273391Y-58053402D01*
X120249005Y-58051000D01*
X120205658Y-58051000D01*
X120180888Y-58046073D01*
X120031588Y-58016376D01*
X119867616Y-57948456D01*
X119720046Y-57849853D01*
X119594547Y-57724354D01*
X119495944Y-57576784D01*
X119428024Y-57412812D01*
X119393400Y-57238741D01*
X119393400Y-57061259D01*
X119428024Y-56887188D01*
X119495944Y-56723216D01*
X119594547Y-56575646D01*
X119720046Y-56450147D01*
X119867616Y-56351544D01*
X120031588Y-56283624D01*
X120180888Y-56253927D01*
X120205658Y-56249000D01*
X120249005Y-56249000D01*
X120273391Y-56246598D01*
X120296840Y-56239485D01*
X120302090Y-56237311D01*
X120422419Y-56187468D01*
X120615809Y-56149000D01*
X120812991Y-56149000D01*
X121006381Y-56187468D01*
X121006381Y-56187468D01*
G37*
G36*
X110006381Y-56187468D02*
G01*
X110126710Y-56237311D01*
X110131960Y-56239485D01*
X110155409Y-56246598D01*
X110179795Y-56249000D01*
X110223142Y-56249000D01*
X110247912Y-56253927D01*
X110397212Y-56283624D01*
X110561184Y-56351544D01*
X110708754Y-56450147D01*
X110834253Y-56575646D01*
X110932856Y-56723216D01*
X111000776Y-56887188D01*
X111035400Y-57061259D01*
X111035400Y-57238741D01*
X111000776Y-57412812D01*
X110932856Y-57576784D01*
X110834253Y-57724354D01*
X110708754Y-57849853D01*
X110561184Y-57948456D01*
X110397212Y-58016376D01*
X110247912Y-58046073D01*
X110223142Y-58051000D01*
X110179795Y-58051000D01*
X110155409Y-58053402D01*
X110131960Y-58060515D01*
X110006381Y-58112532D01*
X109909685Y-58131766D01*
X109812991Y-58151000D01*
X109615809Y-58151000D01*
X109519115Y-58131766D01*
X109422419Y-58112532D01*
X109240249Y-58037074D01*
X109076300Y-57927527D01*
X108936873Y-57788100D01*
X108827326Y-57624151D01*
X108751868Y-57441981D01*
X108713400Y-57248590D01*
X108713400Y-57051410D01*
X108751868Y-56858019D01*
X108827326Y-56675849D01*
X108936873Y-56511900D01*
X109076300Y-56372473D01*
X109240249Y-56262926D01*
X109422419Y-56187468D01*
X109615809Y-56149000D01*
X109812991Y-56149000D01*
X110006381Y-56187468D01*
X110006381Y-56187468D01*
G37*
G36*
X92202781Y-56187468D02*
G01*
X92384951Y-56262926D01*
X92548900Y-56372473D01*
X92688327Y-56511900D01*
X92797874Y-56675849D01*
X92873332Y-56858019D01*
X92911800Y-57051410D01*
X92911800Y-57248590D01*
X92873332Y-57441981D01*
X92797874Y-57624151D01*
X92688327Y-57788100D01*
X92548900Y-57927527D01*
X92384951Y-58037074D01*
X92202781Y-58112532D01*
X92106085Y-58131766D01*
X92009391Y-58151000D01*
X91812209Y-58151000D01*
X91715515Y-58131766D01*
X91618819Y-58112532D01*
X91493240Y-58060515D01*
X91469791Y-58053402D01*
X91445405Y-58051000D01*
X91402058Y-58051000D01*
X91377288Y-58046073D01*
X91227988Y-58016376D01*
X91064016Y-57948456D01*
X90916446Y-57849853D01*
X90790947Y-57724354D01*
X90692344Y-57576784D01*
X90624424Y-57412812D01*
X90589800Y-57238741D01*
X90589800Y-57061259D01*
X90624424Y-56887188D01*
X90692344Y-56723216D01*
X90790947Y-56575646D01*
X90916446Y-56450147D01*
X91064016Y-56351544D01*
X91227988Y-56283624D01*
X91377288Y-56253927D01*
X91402058Y-56249000D01*
X91445405Y-56249000D01*
X91469791Y-56246598D01*
X91493240Y-56239485D01*
X91498490Y-56237311D01*
X91618819Y-56187468D01*
X91812209Y-56149000D01*
X92009391Y-56149000D01*
X92202781Y-56187468D01*
X92202781Y-56187468D01*
G37*
G36*
X81202781Y-56187468D02*
G01*
X81323110Y-56237311D01*
X81328360Y-56239485D01*
X81351809Y-56246598D01*
X81376195Y-56249000D01*
X81419542Y-56249000D01*
X81444312Y-56253927D01*
X81593612Y-56283624D01*
X81757584Y-56351544D01*
X81905154Y-56450147D01*
X82030653Y-56575646D01*
X82129256Y-56723216D01*
X82197176Y-56887188D01*
X82231800Y-57061259D01*
X82231800Y-57238741D01*
X82197176Y-57412812D01*
X82129256Y-57576784D01*
X82030653Y-57724354D01*
X81905154Y-57849853D01*
X81757584Y-57948456D01*
X81593612Y-58016376D01*
X81444312Y-58046073D01*
X81419542Y-58051000D01*
X81376195Y-58051000D01*
X81351809Y-58053402D01*
X81328360Y-58060515D01*
X81202781Y-58112532D01*
X81106085Y-58131766D01*
X81009391Y-58151000D01*
X80812209Y-58151000D01*
X80715515Y-58131766D01*
X80618819Y-58112532D01*
X80436649Y-58037074D01*
X80272700Y-57927527D01*
X80133273Y-57788100D01*
X80023726Y-57624151D01*
X79948268Y-57441981D01*
X79909800Y-57248590D01*
X79909800Y-57051410D01*
X79948268Y-56858019D01*
X80023726Y-56675849D01*
X80133273Y-56511900D01*
X80272700Y-56372473D01*
X80436649Y-56262926D01*
X80618819Y-56187468D01*
X80812209Y-56149000D01*
X81009391Y-56149000D01*
X81202781Y-56187468D01*
X81202781Y-56187468D01*
G37*
G36*
X48948228Y-44181703D02*
G01*
X49103100Y-44245853D01*
X49242481Y-44338985D01*
X49361015Y-44457519D01*
X49454147Y-44596900D01*
X49518297Y-44751772D01*
X49551000Y-44916184D01*
X49551000Y-45083816D01*
X49518297Y-45248228D01*
X49454147Y-45403100D01*
X49361015Y-45542481D01*
X49242481Y-45661015D01*
X49103100Y-45754147D01*
X48948228Y-45818297D01*
X48783816Y-45851000D01*
X48616184Y-45851000D01*
X48451772Y-45818297D01*
X48296900Y-45754147D01*
X48157519Y-45661015D01*
X48038985Y-45542481D01*
X47945853Y-45403100D01*
X47881703Y-45248228D01*
X47849000Y-45083816D01*
X47849000Y-44916184D01*
X47881703Y-44751772D01*
X47945853Y-44596900D01*
X48038985Y-44457519D01*
X48157519Y-44338985D01*
X48296900Y-44245853D01*
X48451772Y-44181703D01*
X48616184Y-44149000D01*
X48783816Y-44149000D01*
X48948228Y-44181703D01*
X48948228Y-44181703D01*
G37*
G36*
X33351000Y-45851000D02*
G01*
X31649000Y-45851000D01*
X31649000Y-44149000D01*
X33351000Y-44149000D01*
X33351000Y-45851000D01*
X33351000Y-45851000D01*
G37*
G36*
X24948228Y-44181703D02*
G01*
X25103100Y-44245853D01*
X25242481Y-44338985D01*
X25361015Y-44457519D01*
X25454147Y-44596900D01*
X25518297Y-44751772D01*
X25551000Y-44916184D01*
X25551000Y-45083816D01*
X25518297Y-45248228D01*
X25454147Y-45403100D01*
X25361015Y-45542481D01*
X25242481Y-45661015D01*
X25103100Y-45754147D01*
X24948228Y-45818297D01*
X24783816Y-45851000D01*
X24616184Y-45851000D01*
X24451772Y-45818297D01*
X24296900Y-45754147D01*
X24157519Y-45661015D01*
X24038985Y-45542481D01*
X23945853Y-45403100D01*
X23881703Y-45248228D01*
X23849000Y-45083816D01*
X23849000Y-44916184D01*
X23881703Y-44751772D01*
X23945853Y-44596900D01*
X24038985Y-44457519D01*
X24157519Y-44338985D01*
X24296900Y-44245853D01*
X24451772Y-44181703D01*
X24616184Y-44149000D01*
X24783816Y-44149000D01*
X24948228Y-44181703D01*
X24948228Y-44181703D01*
G37*
G36*
X57351000Y-45851000D02*
G01*
X55649000Y-45851000D01*
X55649000Y-44149000D01*
X57351000Y-44149000D01*
X57351000Y-45851000D01*
X57351000Y-45851000D01*
G37*
G36*
X68448228Y-44181703D02*
G01*
X68603100Y-44245853D01*
X68742481Y-44338985D01*
X68861015Y-44457519D01*
X68954147Y-44596900D01*
X69018297Y-44751772D01*
X69051000Y-44916184D01*
X69051000Y-45083816D01*
X69018297Y-45248228D01*
X68954147Y-45403100D01*
X68861015Y-45542481D01*
X68742481Y-45661015D01*
X68603100Y-45754147D01*
X68448228Y-45818297D01*
X68283816Y-45851000D01*
X68116184Y-45851000D01*
X67951772Y-45818297D01*
X67796900Y-45754147D01*
X67657519Y-45661015D01*
X67538985Y-45542481D01*
X67445853Y-45403100D01*
X67381703Y-45248228D01*
X67349000Y-45083816D01*
X67349000Y-44916184D01*
X67381703Y-44751772D01*
X67445853Y-44596900D01*
X67538985Y-44457519D01*
X67657519Y-44338985D01*
X67796900Y-44245853D01*
X67951772Y-44181703D01*
X68116184Y-44149000D01*
X68283816Y-44149000D01*
X68448228Y-44181703D01*
X68448228Y-44181703D01*
G37*
G36*
X76851000Y-45851000D02*
G01*
X75149000Y-45851000D01*
X75149000Y-44149000D01*
X76851000Y-44149000D01*
X76851000Y-45851000D01*
X76851000Y-45851000D01*
G37*
G36*
X87348228Y-44181703D02*
G01*
X87503100Y-44245853D01*
X87642481Y-44338985D01*
X87761015Y-44457519D01*
X87854147Y-44596900D01*
X87918297Y-44751772D01*
X87951000Y-44916184D01*
X87951000Y-45083816D01*
X87918297Y-45248228D01*
X87854147Y-45403100D01*
X87761015Y-45542481D01*
X87642481Y-45661015D01*
X87503100Y-45754147D01*
X87348228Y-45818297D01*
X87183816Y-45851000D01*
X87016184Y-45851000D01*
X86851772Y-45818297D01*
X86696900Y-45754147D01*
X86557519Y-45661015D01*
X86438985Y-45542481D01*
X86345853Y-45403100D01*
X86281703Y-45248228D01*
X86249000Y-45083816D01*
X86249000Y-44916184D01*
X86281703Y-44751772D01*
X86345853Y-44596900D01*
X86438985Y-44457519D01*
X86557519Y-44338985D01*
X86696900Y-44245853D01*
X86851772Y-44181703D01*
X87016184Y-44149000D01*
X87183816Y-44149000D01*
X87348228Y-44181703D01*
X87348228Y-44181703D01*
G37*
G36*
X95751000Y-45851000D02*
G01*
X94049000Y-45851000D01*
X94049000Y-44149000D01*
X95751000Y-44149000D01*
X95751000Y-45851000D01*
X95751000Y-45851000D01*
G37*
G36*
X107348228Y-44181703D02*
G01*
X107503100Y-44245853D01*
X107642481Y-44338985D01*
X107761015Y-44457519D01*
X107854147Y-44596900D01*
X107918297Y-44751772D01*
X107951000Y-44916184D01*
X107951000Y-45083816D01*
X107918297Y-45248228D01*
X107854147Y-45403100D01*
X107761015Y-45542481D01*
X107642481Y-45661015D01*
X107503100Y-45754147D01*
X107348228Y-45818297D01*
X107183816Y-45851000D01*
X107016184Y-45851000D01*
X106851772Y-45818297D01*
X106696900Y-45754147D01*
X106557519Y-45661015D01*
X106438985Y-45542481D01*
X106345853Y-45403100D01*
X106281703Y-45248228D01*
X106249000Y-45083816D01*
X106249000Y-44916184D01*
X106281703Y-44751772D01*
X106345853Y-44596900D01*
X106438985Y-44457519D01*
X106557519Y-44338985D01*
X106696900Y-44245853D01*
X106851772Y-44181703D01*
X107016184Y-44149000D01*
X107183816Y-44149000D01*
X107348228Y-44181703D01*
X107348228Y-44181703D01*
G37*
G36*
X115751000Y-45851000D02*
G01*
X114049000Y-45851000D01*
X114049000Y-44149000D01*
X115751000Y-44149000D01*
X115751000Y-45851000D01*
X115751000Y-45851000D01*
G37*
G36*
X134751000Y-45851000D02*
G01*
X133049000Y-45851000D01*
X133049000Y-44149000D01*
X134751000Y-44149000D01*
X134751000Y-45851000D01*
X134751000Y-45851000D01*
G37*
G36*
X126348228Y-44181703D02*
G01*
X126503100Y-44245853D01*
X126642481Y-44338985D01*
X126761015Y-44457519D01*
X126854147Y-44596900D01*
X126918297Y-44751772D01*
X126951000Y-44916184D01*
X126951000Y-45083816D01*
X126918297Y-45248228D01*
X126854147Y-45403100D01*
X126761015Y-45542481D01*
X126642481Y-45661015D01*
X126503100Y-45754147D01*
X126348228Y-45818297D01*
X126183816Y-45851000D01*
X126016184Y-45851000D01*
X125851772Y-45818297D01*
X125696900Y-45754147D01*
X125557519Y-45661015D01*
X125438985Y-45542481D01*
X125345853Y-45403100D01*
X125281703Y-45248228D01*
X125249000Y-45083816D01*
X125249000Y-44916184D01*
X125281703Y-44751772D01*
X125345853Y-44596900D01*
X125438985Y-44457519D01*
X125557519Y-44338985D01*
X125696900Y-44245853D01*
X125851772Y-44181703D01*
X126016184Y-44149000D01*
X126183816Y-44149000D01*
X126348228Y-44181703D01*
X126348228Y-44181703D01*
G37*
G36*
X153751000Y-45851000D02*
G01*
X152049000Y-45851000D01*
X152049000Y-44149000D01*
X153751000Y-44149000D01*
X153751000Y-45851000D01*
X153751000Y-45851000D01*
G37*
G36*
X145348228Y-44181703D02*
G01*
X145503100Y-44245853D01*
X145642481Y-44338985D01*
X145761015Y-44457519D01*
X145854147Y-44596900D01*
X145918297Y-44751772D01*
X145951000Y-44916184D01*
X145951000Y-45083816D01*
X145918297Y-45248228D01*
X145854147Y-45403100D01*
X145761015Y-45542481D01*
X145642481Y-45661015D01*
X145503100Y-45754147D01*
X145348228Y-45818297D01*
X145183816Y-45851000D01*
X145016184Y-45851000D01*
X144851772Y-45818297D01*
X144696900Y-45754147D01*
X144557519Y-45661015D01*
X144438985Y-45542481D01*
X144345853Y-45403100D01*
X144281703Y-45248228D01*
X144249000Y-45083816D01*
X144249000Y-44916184D01*
X144281703Y-44751772D01*
X144345853Y-44596900D01*
X144438985Y-44457519D01*
X144557519Y-44338985D01*
X144696900Y-44245853D01*
X144851772Y-44181703D01*
X145016184Y-44149000D01*
X145183816Y-44149000D01*
X145348228Y-44181703D01*
X145348228Y-44181703D01*
G37*
G36*
X177751000Y-45851000D02*
G01*
X176049000Y-45851000D01*
X176049000Y-44149000D01*
X177751000Y-44149000D01*
X177751000Y-45851000D01*
X177751000Y-45851000D01*
G37*
G36*
X169348228Y-44181703D02*
G01*
X169503100Y-44245853D01*
X169642481Y-44338985D01*
X169761015Y-44457519D01*
X169854147Y-44596900D01*
X169918297Y-44751772D01*
X169951000Y-44916184D01*
X169951000Y-45083816D01*
X169918297Y-45248228D01*
X169854147Y-45403100D01*
X169761015Y-45542481D01*
X169642481Y-45661015D01*
X169503100Y-45754147D01*
X169348228Y-45818297D01*
X169183816Y-45851000D01*
X169016184Y-45851000D01*
X168851772Y-45818297D01*
X168696900Y-45754147D01*
X168557519Y-45661015D01*
X168438985Y-45542481D01*
X168345853Y-45403100D01*
X168281703Y-45248228D01*
X168249000Y-45083816D01*
X168249000Y-44916184D01*
X168281703Y-44751772D01*
X168345853Y-44596900D01*
X168438985Y-44457519D01*
X168557519Y-44338985D01*
X168696900Y-44245853D01*
X168851772Y-44181703D01*
X169016184Y-44149000D01*
X169183816Y-44149000D01*
X169348228Y-44181703D01*
X169348228Y-44181703D01*
G37*
G36*
X148451000Y-45651000D02*
G01*
X146749000Y-45651000D01*
X146749000Y-44349000D01*
X148451000Y-44349000D01*
X148451000Y-45651000D01*
X148451000Y-45651000D01*
G37*
G36*
X129451000Y-45651000D02*
G01*
X127749000Y-45651000D01*
X127749000Y-44349000D01*
X129451000Y-44349000D01*
X129451000Y-45651000D01*
X129451000Y-45651000D01*
G37*
G36*
X151251000Y-45651000D02*
G01*
X149549000Y-45651000D01*
X149549000Y-44349000D01*
X151251000Y-44349000D01*
X151251000Y-45651000D01*
X151251000Y-45651000D01*
G37*
G36*
X172451000Y-45651000D02*
G01*
X170749000Y-45651000D01*
X170749000Y-44349000D01*
X172451000Y-44349000D01*
X172451000Y-45651000D01*
X172451000Y-45651000D01*
G37*
G36*
X132251000Y-45651000D02*
G01*
X130549000Y-45651000D01*
X130549000Y-44349000D01*
X132251000Y-44349000D01*
X132251000Y-45651000D01*
X132251000Y-45651000D01*
G37*
G36*
X175251000Y-45651000D02*
G01*
X173549000Y-45651000D01*
X173549000Y-44349000D01*
X175251000Y-44349000D01*
X175251000Y-45651000D01*
X175251000Y-45651000D01*
G37*
G36*
X113251000Y-45651000D02*
G01*
X111549000Y-45651000D01*
X111549000Y-44349000D01*
X113251000Y-44349000D01*
X113251000Y-45651000D01*
X113251000Y-45651000D01*
G37*
G36*
X110451000Y-45651000D02*
G01*
X108749000Y-45651000D01*
X108749000Y-44349000D01*
X110451000Y-44349000D01*
X110451000Y-45651000D01*
X110451000Y-45651000D01*
G37*
G36*
X93251000Y-45651000D02*
G01*
X91549000Y-45651000D01*
X91549000Y-44349000D01*
X93251000Y-44349000D01*
X93251000Y-45651000D01*
X93251000Y-45651000D01*
G37*
G36*
X90451000Y-45651000D02*
G01*
X88749000Y-45651000D01*
X88749000Y-44349000D01*
X90451000Y-44349000D01*
X90451000Y-45651000D01*
X90451000Y-45651000D01*
G37*
G36*
X74351000Y-45651000D02*
G01*
X72649000Y-45651000D01*
X72649000Y-44349000D01*
X74351000Y-44349000D01*
X74351000Y-45651000D01*
X74351000Y-45651000D01*
G37*
G36*
X71551000Y-45651000D02*
G01*
X69849000Y-45651000D01*
X69849000Y-44349000D01*
X71551000Y-44349000D01*
X71551000Y-45651000D01*
X71551000Y-45651000D01*
G37*
G36*
X54851000Y-45651000D02*
G01*
X53149000Y-45651000D01*
X53149000Y-44349000D01*
X54851000Y-44349000D01*
X54851000Y-45651000D01*
X54851000Y-45651000D01*
G37*
G36*
X52051000Y-45651000D02*
G01*
X50349000Y-45651000D01*
X50349000Y-44349000D01*
X52051000Y-44349000D01*
X52051000Y-45651000D01*
X52051000Y-45651000D01*
G37*
G36*
X30851000Y-45651000D02*
G01*
X29149000Y-45651000D01*
X29149000Y-44349000D01*
X30851000Y-44349000D01*
X30851000Y-45651000D01*
X30851000Y-45651000D01*
G37*
G36*
X28051000Y-45651000D02*
G01*
X26349000Y-45651000D01*
X26349000Y-44349000D01*
X28051000Y-44349000D01*
X28051000Y-45651000D01*
X28051000Y-45651000D01*
G37*
G36*
X178202321Y-41770174D02*
G01*
X178302595Y-41811709D01*
X178302596Y-41811710D01*
X178392842Y-41872010D01*
X178469590Y-41948758D01*
X178469591Y-41948760D01*
X178529891Y-42039005D01*
X178571426Y-42139279D01*
X178592600Y-42245730D01*
X178592600Y-42354270D01*
X178571426Y-42460721D01*
X178529891Y-42560995D01*
X178529890Y-42560996D01*
X178469590Y-42651242D01*
X178392842Y-42727990D01*
X178347412Y-42758345D01*
X178302595Y-42788291D01*
X178202321Y-42829826D01*
X178095870Y-42851000D01*
X177987330Y-42851000D01*
X177880879Y-42829826D01*
X177780605Y-42788291D01*
X177735788Y-42758345D01*
X177690358Y-42727990D01*
X177613610Y-42651242D01*
X177553310Y-42560996D01*
X177553309Y-42560995D01*
X177511774Y-42460721D01*
X177490600Y-42354270D01*
X177490600Y-42245730D01*
X177511774Y-42139279D01*
X177553309Y-42039005D01*
X177613609Y-41948760D01*
X177613610Y-41948758D01*
X177690358Y-41872010D01*
X177780604Y-41811710D01*
X177780605Y-41811709D01*
X177880879Y-41770174D01*
X177987330Y-41749000D01*
X178095870Y-41749000D01*
X178202321Y-41770174D01*
X178202321Y-41770174D01*
G37*
G36*
X23744321Y-41770174D02*
G01*
X23844595Y-41811709D01*
X23844596Y-41811710D01*
X23934842Y-41872010D01*
X24011590Y-41948758D01*
X24011591Y-41948760D01*
X24071891Y-42039005D01*
X24113426Y-42139279D01*
X24134600Y-42245730D01*
X24134600Y-42354270D01*
X24113426Y-42460721D01*
X24071891Y-42560995D01*
X24071890Y-42560996D01*
X24011590Y-42651242D01*
X23934842Y-42727990D01*
X23889412Y-42758345D01*
X23844595Y-42788291D01*
X23744321Y-42829826D01*
X23637870Y-42851000D01*
X23529330Y-42851000D01*
X23422879Y-42829826D01*
X23322605Y-42788291D01*
X23277788Y-42758345D01*
X23232358Y-42727990D01*
X23155610Y-42651242D01*
X23095310Y-42560996D01*
X23095309Y-42560995D01*
X23053774Y-42460721D01*
X23032600Y-42354270D01*
X23032600Y-42245730D01*
X23053774Y-42139279D01*
X23095309Y-42039005D01*
X23155609Y-41948760D01*
X23155610Y-41948758D01*
X23232358Y-41872010D01*
X23322604Y-41811710D01*
X23322605Y-41811709D01*
X23422879Y-41770174D01*
X23529330Y-41749000D01*
X23637870Y-41749000D01*
X23744321Y-41770174D01*
X23744321Y-41770174D01*
G37*
G36*
X34184321Y-41770174D02*
G01*
X34284595Y-41811709D01*
X34284596Y-41811710D01*
X34374842Y-41872010D01*
X34451590Y-41948758D01*
X34451591Y-41948760D01*
X34511891Y-42039005D01*
X34553426Y-42139279D01*
X34574600Y-42245730D01*
X34574600Y-42354270D01*
X34553426Y-42460721D01*
X34511891Y-42560995D01*
X34511890Y-42560996D01*
X34451590Y-42651242D01*
X34374842Y-42727990D01*
X34329412Y-42758345D01*
X34284595Y-42788291D01*
X34184321Y-42829826D01*
X34077870Y-42851000D01*
X33969330Y-42851000D01*
X33862879Y-42829826D01*
X33762605Y-42788291D01*
X33717788Y-42758345D01*
X33672358Y-42727990D01*
X33595610Y-42651242D01*
X33535310Y-42560996D01*
X33535309Y-42560995D01*
X33493774Y-42460721D01*
X33472600Y-42354270D01*
X33472600Y-42245730D01*
X33493774Y-42139279D01*
X33535309Y-42039005D01*
X33595609Y-41948760D01*
X33595610Y-41948758D01*
X33672358Y-41872010D01*
X33762604Y-41811710D01*
X33762605Y-41811709D01*
X33862879Y-41770174D01*
X33969330Y-41749000D01*
X34077870Y-41749000D01*
X34184321Y-41770174D01*
X34184321Y-41770174D01*
G37*
G36*
X134996921Y-41770174D02*
G01*
X135097195Y-41811709D01*
X135097196Y-41811710D01*
X135187442Y-41872010D01*
X135264190Y-41948758D01*
X135264191Y-41948760D01*
X135324491Y-42039005D01*
X135366026Y-42139279D01*
X135387200Y-42245730D01*
X135387200Y-42354270D01*
X135366026Y-42460721D01*
X135324491Y-42560995D01*
X135324490Y-42560996D01*
X135264190Y-42651242D01*
X135187442Y-42727990D01*
X135142012Y-42758345D01*
X135097195Y-42788291D01*
X134996921Y-42829826D01*
X134890470Y-42851000D01*
X134781930Y-42851000D01*
X134675479Y-42829826D01*
X134575205Y-42788291D01*
X134530388Y-42758345D01*
X134484958Y-42727990D01*
X134408210Y-42651242D01*
X134347910Y-42560996D01*
X134347909Y-42560995D01*
X134306374Y-42460721D01*
X134285200Y-42354270D01*
X134285200Y-42245730D01*
X134306374Y-42139279D01*
X134347909Y-42039005D01*
X134408209Y-41948760D01*
X134408210Y-41948758D01*
X134484958Y-41872010D01*
X134575204Y-41811710D01*
X134575205Y-41811709D01*
X134675479Y-41770174D01*
X134781930Y-41749000D01*
X134890470Y-41749000D01*
X134996921Y-41770174D01*
X134996921Y-41770174D01*
G37*
G36*
X124556921Y-41770174D02*
G01*
X124657195Y-41811709D01*
X124657196Y-41811710D01*
X124747442Y-41872010D01*
X124824190Y-41948758D01*
X124824191Y-41948760D01*
X124884491Y-42039005D01*
X124926026Y-42139279D01*
X124947200Y-42245730D01*
X124947200Y-42354270D01*
X124926026Y-42460721D01*
X124884491Y-42560995D01*
X124884490Y-42560996D01*
X124824190Y-42651242D01*
X124747442Y-42727990D01*
X124702012Y-42758345D01*
X124657195Y-42788291D01*
X124556921Y-42829826D01*
X124450470Y-42851000D01*
X124341930Y-42851000D01*
X124235479Y-42829826D01*
X124135205Y-42788291D01*
X124090388Y-42758345D01*
X124044958Y-42727990D01*
X123968210Y-42651242D01*
X123907910Y-42560996D01*
X123907909Y-42560995D01*
X123866374Y-42460721D01*
X123845200Y-42354270D01*
X123845200Y-42245730D01*
X123866374Y-42139279D01*
X123907909Y-42039005D01*
X123968209Y-41948760D01*
X123968210Y-41948758D01*
X124044958Y-41872010D01*
X124135204Y-41811710D01*
X124135205Y-41811709D01*
X124235479Y-41770174D01*
X124341930Y-41749000D01*
X124450470Y-41749000D01*
X124556921Y-41770174D01*
X124556921Y-41770174D01*
G37*
G36*
X47747321Y-41770174D02*
G01*
X47847595Y-41811709D01*
X47847596Y-41811710D01*
X47937842Y-41872010D01*
X48014590Y-41948758D01*
X48014591Y-41948760D01*
X48074891Y-42039005D01*
X48116426Y-42139279D01*
X48137600Y-42245730D01*
X48137600Y-42354270D01*
X48116426Y-42460721D01*
X48074891Y-42560995D01*
X48074890Y-42560996D01*
X48014590Y-42651242D01*
X47937842Y-42727990D01*
X47892412Y-42758345D01*
X47847595Y-42788291D01*
X47747321Y-42829826D01*
X47640870Y-42851000D01*
X47532330Y-42851000D01*
X47425879Y-42829826D01*
X47325605Y-42788291D01*
X47280788Y-42758345D01*
X47235358Y-42727990D01*
X47158610Y-42651242D01*
X47098310Y-42560996D01*
X47098309Y-42560995D01*
X47056774Y-42460721D01*
X47035600Y-42354270D01*
X47035600Y-42245730D01*
X47056774Y-42139279D01*
X47098309Y-42039005D01*
X47158609Y-41948760D01*
X47158610Y-41948758D01*
X47235358Y-41872010D01*
X47325604Y-41811710D01*
X47325605Y-41811709D01*
X47425879Y-41770174D01*
X47532330Y-41749000D01*
X47640870Y-41749000D01*
X47747321Y-41770174D01*
X47747321Y-41770174D01*
G37*
G36*
X58187321Y-41770174D02*
G01*
X58287595Y-41811709D01*
X58287596Y-41811710D01*
X58377842Y-41872010D01*
X58454590Y-41948758D01*
X58454591Y-41948760D01*
X58514891Y-42039005D01*
X58556426Y-42139279D01*
X58577600Y-42245730D01*
X58577600Y-42354270D01*
X58556426Y-42460721D01*
X58514891Y-42560995D01*
X58514890Y-42560996D01*
X58454590Y-42651242D01*
X58377842Y-42727990D01*
X58332412Y-42758345D01*
X58287595Y-42788291D01*
X58187321Y-42829826D01*
X58080870Y-42851000D01*
X57972330Y-42851000D01*
X57865879Y-42829826D01*
X57765605Y-42788291D01*
X57720788Y-42758345D01*
X57675358Y-42727990D01*
X57598610Y-42651242D01*
X57538310Y-42560996D01*
X57538309Y-42560995D01*
X57496774Y-42460721D01*
X57475600Y-42354270D01*
X57475600Y-42245730D01*
X57496774Y-42139279D01*
X57538309Y-42039005D01*
X57598609Y-41948760D01*
X57598610Y-41948758D01*
X57675358Y-41872010D01*
X57765604Y-41811710D01*
X57765605Y-41811709D01*
X57865879Y-41770174D01*
X57972330Y-41749000D01*
X58080870Y-41749000D01*
X58187321Y-41770174D01*
X58187321Y-41770174D01*
G37*
G36*
X105354521Y-41770174D02*
G01*
X105454795Y-41811709D01*
X105454796Y-41811710D01*
X105545042Y-41872010D01*
X105621790Y-41948758D01*
X105621791Y-41948760D01*
X105682091Y-42039005D01*
X105723626Y-42139279D01*
X105744800Y-42245730D01*
X105744800Y-42354270D01*
X105723626Y-42460721D01*
X105682091Y-42560995D01*
X105682090Y-42560996D01*
X105621790Y-42651242D01*
X105545042Y-42727990D01*
X105499612Y-42758345D01*
X105454795Y-42788291D01*
X105354521Y-42829826D01*
X105248070Y-42851000D01*
X105139530Y-42851000D01*
X105033079Y-42829826D01*
X104932805Y-42788291D01*
X104887988Y-42758345D01*
X104842558Y-42727990D01*
X104765810Y-42651242D01*
X104705510Y-42560996D01*
X104705509Y-42560995D01*
X104663974Y-42460721D01*
X104642800Y-42354270D01*
X104642800Y-42245730D01*
X104663974Y-42139279D01*
X104705509Y-42039005D01*
X104765809Y-41948760D01*
X104765810Y-41948758D01*
X104842558Y-41872010D01*
X104932804Y-41811710D01*
X104932805Y-41811709D01*
X105033079Y-41770174D01*
X105139530Y-41749000D01*
X105248070Y-41749000D01*
X105354521Y-41770174D01*
X105354521Y-41770174D01*
G37*
G36*
X115794521Y-41770174D02*
G01*
X115894795Y-41811709D01*
X115894796Y-41811710D01*
X115985042Y-41872010D01*
X116061790Y-41948758D01*
X116061791Y-41948760D01*
X116122091Y-42039005D01*
X116163626Y-42139279D01*
X116184800Y-42245730D01*
X116184800Y-42354270D01*
X116163626Y-42460721D01*
X116122091Y-42560995D01*
X116122090Y-42560996D01*
X116061790Y-42651242D01*
X115985042Y-42727990D01*
X115939612Y-42758345D01*
X115894795Y-42788291D01*
X115794521Y-42829826D01*
X115688070Y-42851000D01*
X115579530Y-42851000D01*
X115473079Y-42829826D01*
X115372805Y-42788291D01*
X115327988Y-42758345D01*
X115282558Y-42727990D01*
X115205810Y-42651242D01*
X115145510Y-42560996D01*
X115145509Y-42560995D01*
X115103974Y-42460721D01*
X115082800Y-42354270D01*
X115082800Y-42245730D01*
X115103974Y-42139279D01*
X115145509Y-42039005D01*
X115205809Y-41948760D01*
X115205810Y-41948758D01*
X115282558Y-41872010D01*
X115372804Y-41811710D01*
X115372805Y-41811709D01*
X115473079Y-41770174D01*
X115579530Y-41749000D01*
X115688070Y-41749000D01*
X115794521Y-41770174D01*
X115794521Y-41770174D01*
G37*
G36*
X66949721Y-41770174D02*
G01*
X67049995Y-41811709D01*
X67049996Y-41811710D01*
X67140242Y-41872010D01*
X67216990Y-41948758D01*
X67216991Y-41948760D01*
X67277291Y-42039005D01*
X67318826Y-42139279D01*
X67340000Y-42245730D01*
X67340000Y-42354270D01*
X67318826Y-42460721D01*
X67277291Y-42560995D01*
X67277290Y-42560996D01*
X67216990Y-42651242D01*
X67140242Y-42727990D01*
X67094812Y-42758345D01*
X67049995Y-42788291D01*
X66949721Y-42829826D01*
X66843270Y-42851000D01*
X66734730Y-42851000D01*
X66628279Y-42829826D01*
X66528005Y-42788291D01*
X66483188Y-42758345D01*
X66437758Y-42727990D01*
X66361010Y-42651242D01*
X66300710Y-42560996D01*
X66300709Y-42560995D01*
X66259174Y-42460721D01*
X66238000Y-42354270D01*
X66238000Y-42245730D01*
X66259174Y-42139279D01*
X66300709Y-42039005D01*
X66361009Y-41948760D01*
X66361010Y-41948758D01*
X66437758Y-41872010D01*
X66528004Y-41811710D01*
X66528005Y-41811709D01*
X66628279Y-41770174D01*
X66734730Y-41749000D01*
X66843270Y-41749000D01*
X66949721Y-41770174D01*
X66949721Y-41770174D01*
G37*
G36*
X77389721Y-41770174D02*
G01*
X77489995Y-41811709D01*
X77489996Y-41811710D01*
X77580242Y-41872010D01*
X77656990Y-41948758D01*
X77656991Y-41948760D01*
X77717291Y-42039005D01*
X77758826Y-42139279D01*
X77780000Y-42245730D01*
X77780000Y-42354270D01*
X77758826Y-42460721D01*
X77717291Y-42560995D01*
X77717290Y-42560996D01*
X77656990Y-42651242D01*
X77580242Y-42727990D01*
X77534812Y-42758345D01*
X77489995Y-42788291D01*
X77389721Y-42829826D01*
X77283270Y-42851000D01*
X77174730Y-42851000D01*
X77068279Y-42829826D01*
X76968005Y-42788291D01*
X76923188Y-42758345D01*
X76877758Y-42727990D01*
X76801010Y-42651242D01*
X76740710Y-42560996D01*
X76740709Y-42560995D01*
X76699174Y-42460721D01*
X76678000Y-42354270D01*
X76678000Y-42245730D01*
X76699174Y-42139279D01*
X76740709Y-42039005D01*
X76801009Y-41948760D01*
X76801010Y-41948758D01*
X76877758Y-41872010D01*
X76968004Y-41811710D01*
X76968005Y-41811709D01*
X77068279Y-41770174D01*
X77174730Y-41749000D01*
X77283270Y-41749000D01*
X77389721Y-41770174D01*
X77389721Y-41770174D01*
G37*
G36*
X86152121Y-41770174D02*
G01*
X86252395Y-41811709D01*
X86252396Y-41811710D01*
X86342642Y-41872010D01*
X86419390Y-41948758D01*
X86419391Y-41948760D01*
X86479691Y-42039005D01*
X86521226Y-42139279D01*
X86542400Y-42245730D01*
X86542400Y-42354270D01*
X86521226Y-42460721D01*
X86479691Y-42560995D01*
X86479690Y-42560996D01*
X86419390Y-42651242D01*
X86342642Y-42727990D01*
X86297212Y-42758345D01*
X86252395Y-42788291D01*
X86152121Y-42829826D01*
X86045670Y-42851000D01*
X85937130Y-42851000D01*
X85830679Y-42829826D01*
X85730405Y-42788291D01*
X85685588Y-42758345D01*
X85640158Y-42727990D01*
X85563410Y-42651242D01*
X85503110Y-42560996D01*
X85503109Y-42560995D01*
X85461574Y-42460721D01*
X85440400Y-42354270D01*
X85440400Y-42245730D01*
X85461574Y-42139279D01*
X85503109Y-42039005D01*
X85563409Y-41948760D01*
X85563410Y-41948758D01*
X85640158Y-41872010D01*
X85730404Y-41811710D01*
X85730405Y-41811709D01*
X85830679Y-41770174D01*
X85937130Y-41749000D01*
X86045670Y-41749000D01*
X86152121Y-41770174D01*
X86152121Y-41770174D01*
G37*
G36*
X96592121Y-41770174D02*
G01*
X96692395Y-41811709D01*
X96692396Y-41811710D01*
X96782642Y-41872010D01*
X96859390Y-41948758D01*
X96859391Y-41948760D01*
X96919691Y-42039005D01*
X96961226Y-42139279D01*
X96982400Y-42245730D01*
X96982400Y-42354270D01*
X96961226Y-42460721D01*
X96919691Y-42560995D01*
X96919690Y-42560996D01*
X96859390Y-42651242D01*
X96782642Y-42727990D01*
X96737212Y-42758345D01*
X96692395Y-42788291D01*
X96592121Y-42829826D01*
X96485670Y-42851000D01*
X96377130Y-42851000D01*
X96270679Y-42829826D01*
X96170405Y-42788291D01*
X96125588Y-42758345D01*
X96080158Y-42727990D01*
X96003410Y-42651242D01*
X95943110Y-42560996D01*
X95943109Y-42560995D01*
X95901574Y-42460721D01*
X95880400Y-42354270D01*
X95880400Y-42245730D01*
X95901574Y-42139279D01*
X95943109Y-42039005D01*
X96003409Y-41948760D01*
X96003410Y-41948758D01*
X96080158Y-41872010D01*
X96170404Y-41811710D01*
X96170405Y-41811709D01*
X96270679Y-41770174D01*
X96377130Y-41749000D01*
X96485670Y-41749000D01*
X96592121Y-41770174D01*
X96592121Y-41770174D01*
G37*
G36*
X167762321Y-41770174D02*
G01*
X167862595Y-41811709D01*
X167862596Y-41811710D01*
X167952842Y-41872010D01*
X168029590Y-41948758D01*
X168029591Y-41948760D01*
X168089891Y-42039005D01*
X168131426Y-42139279D01*
X168152600Y-42245730D01*
X168152600Y-42354270D01*
X168131426Y-42460721D01*
X168089891Y-42560995D01*
X168089890Y-42560996D01*
X168029590Y-42651242D01*
X167952842Y-42727990D01*
X167907412Y-42758345D01*
X167862595Y-42788291D01*
X167762321Y-42829826D01*
X167655870Y-42851000D01*
X167547330Y-42851000D01*
X167440879Y-42829826D01*
X167340605Y-42788291D01*
X167295788Y-42758345D01*
X167250358Y-42727990D01*
X167173610Y-42651242D01*
X167113310Y-42560996D01*
X167113309Y-42560995D01*
X167071774Y-42460721D01*
X167050600Y-42354270D01*
X167050600Y-42245730D01*
X167071774Y-42139279D01*
X167113309Y-42039005D01*
X167173609Y-41948760D01*
X167173610Y-41948758D01*
X167250358Y-41872010D01*
X167340604Y-41811710D01*
X167340605Y-41811709D01*
X167440879Y-41770174D01*
X167547330Y-41749000D01*
X167655870Y-41749000D01*
X167762321Y-41770174D01*
X167762321Y-41770174D01*
G37*
G36*
X143759321Y-41770174D02*
G01*
X143859595Y-41811709D01*
X143859596Y-41811710D01*
X143949842Y-41872010D01*
X144026590Y-41948758D01*
X144026591Y-41948760D01*
X144086891Y-42039005D01*
X144128426Y-42139279D01*
X144149600Y-42245730D01*
X144149600Y-42354270D01*
X144128426Y-42460721D01*
X144086891Y-42560995D01*
X144086890Y-42560996D01*
X144026590Y-42651242D01*
X143949842Y-42727990D01*
X143904412Y-42758345D01*
X143859595Y-42788291D01*
X143759321Y-42829826D01*
X143652870Y-42851000D01*
X143544330Y-42851000D01*
X143437879Y-42829826D01*
X143337605Y-42788291D01*
X143292788Y-42758345D01*
X143247358Y-42727990D01*
X143170610Y-42651242D01*
X143110310Y-42560996D01*
X143110309Y-42560995D01*
X143068774Y-42460721D01*
X143047600Y-42354270D01*
X143047600Y-42245730D01*
X143068774Y-42139279D01*
X143110309Y-42039005D01*
X143170609Y-41948760D01*
X143170610Y-41948758D01*
X143247358Y-41872010D01*
X143337604Y-41811710D01*
X143337605Y-41811709D01*
X143437879Y-41770174D01*
X143544330Y-41749000D01*
X143652870Y-41749000D01*
X143759321Y-41770174D01*
X143759321Y-41770174D01*
G37*
G36*
X154199321Y-41770174D02*
G01*
X154299595Y-41811709D01*
X154299596Y-41811710D01*
X154389842Y-41872010D01*
X154466590Y-41948758D01*
X154466591Y-41948760D01*
X154526891Y-42039005D01*
X154568426Y-42139279D01*
X154589600Y-42245730D01*
X154589600Y-42354270D01*
X154568426Y-42460721D01*
X154526891Y-42560995D01*
X154526890Y-42560996D01*
X154466590Y-42651242D01*
X154389842Y-42727990D01*
X154344412Y-42758345D01*
X154299595Y-42788291D01*
X154199321Y-42829826D01*
X154092870Y-42851000D01*
X153984330Y-42851000D01*
X153877879Y-42829826D01*
X153777605Y-42788291D01*
X153732788Y-42758345D01*
X153687358Y-42727990D01*
X153610610Y-42651242D01*
X153550310Y-42560996D01*
X153550309Y-42560995D01*
X153508774Y-42460721D01*
X153487600Y-42354270D01*
X153487600Y-42245730D01*
X153508774Y-42139279D01*
X153550309Y-42039005D01*
X153610609Y-41948760D01*
X153610610Y-41948758D01*
X153687358Y-41872010D01*
X153777604Y-41811710D01*
X153777605Y-41811709D01*
X153877879Y-41770174D01*
X153984330Y-41749000D01*
X154092870Y-41749000D01*
X154199321Y-41770174D01*
X154199321Y-41770174D01*
G37*
G36*
X53404854Y-36127818D02*
G01*
X53778111Y-36282426D01*
X53778113Y-36282427D01*
X54114036Y-36506884D01*
X54399716Y-36792564D01*
X54624174Y-37128489D01*
X54778782Y-37501746D01*
X54857600Y-37897993D01*
X54857600Y-38302007D01*
X54778782Y-38698254D01*
X54649439Y-39010515D01*
X54624173Y-39071513D01*
X54399716Y-39407436D01*
X54114036Y-39693116D01*
X53778113Y-39917573D01*
X53778112Y-39917574D01*
X53778111Y-39917574D01*
X53404854Y-40072182D01*
X53008607Y-40151000D01*
X52604593Y-40151000D01*
X52208346Y-40072182D01*
X51835089Y-39917574D01*
X51835088Y-39917574D01*
X51835087Y-39917573D01*
X51499164Y-39693116D01*
X51213484Y-39407436D01*
X50989027Y-39071513D01*
X50963761Y-39010515D01*
X50834418Y-38698254D01*
X50755600Y-38302007D01*
X50755600Y-37897993D01*
X50834418Y-37501746D01*
X50989026Y-37128489D01*
X51213484Y-36792564D01*
X51499164Y-36506884D01*
X51835087Y-36282427D01*
X51835089Y-36282426D01*
X52208346Y-36127818D01*
X52604593Y-36049000D01*
X53008607Y-36049000D01*
X53404854Y-36127818D01*
X53404854Y-36127818D01*
G37*
G36*
X173419854Y-36127818D02*
G01*
X173793111Y-36282426D01*
X173793113Y-36282427D01*
X174129036Y-36506884D01*
X174414716Y-36792564D01*
X174639174Y-37128489D01*
X174793782Y-37501746D01*
X174872600Y-37897993D01*
X174872600Y-38302007D01*
X174793782Y-38698254D01*
X174664439Y-39010515D01*
X174639173Y-39071513D01*
X174414716Y-39407436D01*
X174129036Y-39693116D01*
X173793113Y-39917573D01*
X173793112Y-39917574D01*
X173793111Y-39917574D01*
X173419854Y-40072182D01*
X173023607Y-40151000D01*
X172619593Y-40151000D01*
X172223346Y-40072182D01*
X171850089Y-39917574D01*
X171850088Y-39917574D01*
X171850087Y-39917573D01*
X171514164Y-39693116D01*
X171228484Y-39407436D01*
X171004027Y-39071513D01*
X170978761Y-39010515D01*
X170849418Y-38698254D01*
X170770600Y-38302007D01*
X170770600Y-37897993D01*
X170849418Y-37501746D01*
X171004026Y-37128489D01*
X171228484Y-36792564D01*
X171514164Y-36506884D01*
X171850087Y-36282427D01*
X171850089Y-36282426D01*
X172223346Y-36127818D01*
X172619593Y-36049000D01*
X173023607Y-36049000D01*
X173419854Y-36127818D01*
X173419854Y-36127818D01*
G37*
G36*
X29401854Y-36127818D02*
G01*
X29775111Y-36282426D01*
X29775113Y-36282427D01*
X30111036Y-36506884D01*
X30396716Y-36792564D01*
X30621174Y-37128489D01*
X30775782Y-37501746D01*
X30854600Y-37897993D01*
X30854600Y-38302007D01*
X30775782Y-38698254D01*
X30646439Y-39010515D01*
X30621173Y-39071513D01*
X30396716Y-39407436D01*
X30111036Y-39693116D01*
X29775113Y-39917573D01*
X29775112Y-39917574D01*
X29775111Y-39917574D01*
X29401854Y-40072182D01*
X29005607Y-40151000D01*
X28601593Y-40151000D01*
X28205346Y-40072182D01*
X27832089Y-39917574D01*
X27832088Y-39917574D01*
X27832087Y-39917573D01*
X27496164Y-39693116D01*
X27210484Y-39407436D01*
X26986027Y-39071513D01*
X26960761Y-39010515D01*
X26831418Y-38698254D01*
X26752600Y-38302007D01*
X26752600Y-37897993D01*
X26831418Y-37501746D01*
X26986026Y-37128489D01*
X27210484Y-36792564D01*
X27496164Y-36506884D01*
X27832087Y-36282427D01*
X27832089Y-36282426D01*
X28205346Y-36127818D01*
X28601593Y-36049000D01*
X29005607Y-36049000D01*
X29401854Y-36127818D01*
X29401854Y-36127818D01*
G37*
G36*
X149416854Y-36127818D02*
G01*
X149790111Y-36282426D01*
X149790113Y-36282427D01*
X150126036Y-36506884D01*
X150411716Y-36792564D01*
X150636174Y-37128489D01*
X150790782Y-37501746D01*
X150869600Y-37897993D01*
X150869600Y-38302007D01*
X150790782Y-38698254D01*
X150661439Y-39010515D01*
X150636173Y-39071513D01*
X150411716Y-39407436D01*
X150126036Y-39693116D01*
X149790113Y-39917573D01*
X149790112Y-39917574D01*
X149790111Y-39917574D01*
X149416854Y-40072182D01*
X149020607Y-40151000D01*
X148616593Y-40151000D01*
X148220346Y-40072182D01*
X147847089Y-39917574D01*
X147847088Y-39917574D01*
X147847087Y-39917573D01*
X147511164Y-39693116D01*
X147225484Y-39407436D01*
X147001027Y-39071513D01*
X146975761Y-39010515D01*
X146846418Y-38698254D01*
X146767600Y-38302007D01*
X146767600Y-37897993D01*
X146846418Y-37501746D01*
X147001026Y-37128489D01*
X147225484Y-36792564D01*
X147511164Y-36506884D01*
X147847087Y-36282427D01*
X147847089Y-36282426D01*
X148220346Y-36127818D01*
X148616593Y-36049000D01*
X149020607Y-36049000D01*
X149416854Y-36127818D01*
X149416854Y-36127818D01*
G37*
G36*
X72607254Y-36127818D02*
G01*
X72980511Y-36282426D01*
X72980513Y-36282427D01*
X73316436Y-36506884D01*
X73602116Y-36792564D01*
X73826574Y-37128489D01*
X73981182Y-37501746D01*
X74060000Y-37897993D01*
X74060000Y-38302007D01*
X73981182Y-38698254D01*
X73851839Y-39010515D01*
X73826573Y-39071513D01*
X73602116Y-39407436D01*
X73316436Y-39693116D01*
X72980513Y-39917573D01*
X72980512Y-39917574D01*
X72980511Y-39917574D01*
X72607254Y-40072182D01*
X72211007Y-40151000D01*
X71806993Y-40151000D01*
X71410746Y-40072182D01*
X71037489Y-39917574D01*
X71037488Y-39917574D01*
X71037487Y-39917573D01*
X70701564Y-39693116D01*
X70415884Y-39407436D01*
X70191427Y-39071513D01*
X70166161Y-39010515D01*
X70036818Y-38698254D01*
X69958000Y-38302007D01*
X69958000Y-37897993D01*
X70036818Y-37501746D01*
X70191426Y-37128489D01*
X70415884Y-36792564D01*
X70701564Y-36506884D01*
X71037487Y-36282427D01*
X71037489Y-36282426D01*
X71410746Y-36127818D01*
X71806993Y-36049000D01*
X72211007Y-36049000D01*
X72607254Y-36127818D01*
X72607254Y-36127818D01*
G37*
G36*
X91809654Y-36127818D02*
G01*
X92182911Y-36282426D01*
X92182913Y-36282427D01*
X92518836Y-36506884D01*
X92804516Y-36792564D01*
X93028974Y-37128489D01*
X93183582Y-37501746D01*
X93262400Y-37897993D01*
X93262400Y-38302007D01*
X93183582Y-38698254D01*
X93054239Y-39010515D01*
X93028973Y-39071513D01*
X92804516Y-39407436D01*
X92518836Y-39693116D01*
X92182913Y-39917573D01*
X92182912Y-39917574D01*
X92182911Y-39917574D01*
X91809654Y-40072182D01*
X91413407Y-40151000D01*
X91009393Y-40151000D01*
X90613146Y-40072182D01*
X90239889Y-39917574D01*
X90239888Y-39917574D01*
X90239887Y-39917573D01*
X89903964Y-39693116D01*
X89618284Y-39407436D01*
X89393827Y-39071513D01*
X89368561Y-39010515D01*
X89239218Y-38698254D01*
X89160400Y-38302007D01*
X89160400Y-37897993D01*
X89239218Y-37501746D01*
X89393826Y-37128489D01*
X89618284Y-36792564D01*
X89903964Y-36506884D01*
X90239887Y-36282427D01*
X90239889Y-36282426D01*
X90613146Y-36127818D01*
X91009393Y-36049000D01*
X91413407Y-36049000D01*
X91809654Y-36127818D01*
X91809654Y-36127818D01*
G37*
G36*
X111012054Y-36127818D02*
G01*
X111385311Y-36282426D01*
X111385313Y-36282427D01*
X111721236Y-36506884D01*
X112006916Y-36792564D01*
X112231374Y-37128489D01*
X112385982Y-37501746D01*
X112464800Y-37897993D01*
X112464800Y-38302007D01*
X112385982Y-38698254D01*
X112256639Y-39010515D01*
X112231373Y-39071513D01*
X112006916Y-39407436D01*
X111721236Y-39693116D01*
X111385313Y-39917573D01*
X111385312Y-39917574D01*
X111385311Y-39917574D01*
X111012054Y-40072182D01*
X110615807Y-40151000D01*
X110211793Y-40151000D01*
X109815546Y-40072182D01*
X109442289Y-39917574D01*
X109442288Y-39917574D01*
X109442287Y-39917573D01*
X109106364Y-39693116D01*
X108820684Y-39407436D01*
X108596227Y-39071513D01*
X108570961Y-39010515D01*
X108441618Y-38698254D01*
X108362800Y-38302007D01*
X108362800Y-37897993D01*
X108441618Y-37501746D01*
X108596226Y-37128489D01*
X108820684Y-36792564D01*
X109106364Y-36506884D01*
X109442287Y-36282427D01*
X109442289Y-36282426D01*
X109815546Y-36127818D01*
X110211793Y-36049000D01*
X110615807Y-36049000D01*
X111012054Y-36127818D01*
X111012054Y-36127818D01*
G37*
G36*
X130214454Y-36127818D02*
G01*
X130587711Y-36282426D01*
X130587713Y-36282427D01*
X130923636Y-36506884D01*
X131209316Y-36792564D01*
X131433774Y-37128489D01*
X131588382Y-37501746D01*
X131667200Y-37897993D01*
X131667200Y-38302007D01*
X131588382Y-38698254D01*
X131459039Y-39010515D01*
X131433773Y-39071513D01*
X131209316Y-39407436D01*
X130923636Y-39693116D01*
X130587713Y-39917573D01*
X130587712Y-39917574D01*
X130587711Y-39917574D01*
X130214454Y-40072182D01*
X129818207Y-40151000D01*
X129414193Y-40151000D01*
X129017946Y-40072182D01*
X128644689Y-39917574D01*
X128644688Y-39917574D01*
X128644687Y-39917573D01*
X128308764Y-39693116D01*
X128023084Y-39407436D01*
X127798627Y-39071513D01*
X127773361Y-39010515D01*
X127644018Y-38698254D01*
X127565200Y-38302007D01*
X127565200Y-37897993D01*
X127644018Y-37501746D01*
X127798626Y-37128489D01*
X128023084Y-36792564D01*
X128308764Y-36506884D01*
X128644687Y-36282427D01*
X128644689Y-36282426D01*
X129017946Y-36127818D01*
X129414193Y-36049000D01*
X129818207Y-36049000D01*
X130214454Y-36127818D01*
X130214454Y-36127818D01*
G37*
G36*
X167516885Y-37118234D02*
G01*
X167613581Y-37137468D01*
X167733910Y-37187311D01*
X167739160Y-37189485D01*
X167762609Y-37196598D01*
X167786995Y-37199000D01*
X167830342Y-37199000D01*
X167855112Y-37203927D01*
X168004412Y-37233624D01*
X168168384Y-37301544D01*
X168315954Y-37400147D01*
X168441453Y-37525646D01*
X168540056Y-37673216D01*
X168607976Y-37837188D01*
X168642600Y-38011259D01*
X168642600Y-38188741D01*
X168607976Y-38362812D01*
X168540056Y-38526784D01*
X168441453Y-38674354D01*
X168315954Y-38799853D01*
X168168384Y-38898456D01*
X168004412Y-38966376D01*
X167855112Y-38996073D01*
X167830342Y-39001000D01*
X167786995Y-39001000D01*
X167762609Y-39003402D01*
X167739160Y-39010515D01*
X167613581Y-39062532D01*
X167420191Y-39101000D01*
X167223009Y-39101000D01*
X167029619Y-39062532D01*
X166847449Y-38987074D01*
X166683500Y-38877527D01*
X166544073Y-38738100D01*
X166434526Y-38574151D01*
X166359068Y-38391981D01*
X166320600Y-38198590D01*
X166320600Y-38001410D01*
X166359068Y-37808019D01*
X166434526Y-37625849D01*
X166544073Y-37461900D01*
X166683500Y-37322473D01*
X166847449Y-37212926D01*
X167029619Y-37137468D01*
X167126315Y-37118234D01*
X167223009Y-37099000D01*
X167420191Y-37099000D01*
X167516885Y-37118234D01*
X167516885Y-37118234D01*
G37*
G36*
X34498885Y-37118234D02*
G01*
X34595581Y-37137468D01*
X34777751Y-37212926D01*
X34941700Y-37322473D01*
X35081127Y-37461900D01*
X35190674Y-37625849D01*
X35266132Y-37808019D01*
X35304600Y-38001410D01*
X35304600Y-38198590D01*
X35266132Y-38391981D01*
X35190674Y-38574151D01*
X35081127Y-38738100D01*
X34941700Y-38877527D01*
X34777751Y-38987074D01*
X34595581Y-39062532D01*
X34402191Y-39101000D01*
X34205009Y-39101000D01*
X34011619Y-39062532D01*
X33886040Y-39010515D01*
X33862591Y-39003402D01*
X33838205Y-39001000D01*
X33794858Y-39001000D01*
X33770088Y-38996073D01*
X33620788Y-38966376D01*
X33456816Y-38898456D01*
X33309246Y-38799853D01*
X33183747Y-38674354D01*
X33085144Y-38526784D01*
X33017224Y-38362812D01*
X32982600Y-38188741D01*
X32982600Y-38011259D01*
X33017224Y-37837188D01*
X33085144Y-37673216D01*
X33183747Y-37525646D01*
X33309246Y-37400147D01*
X33456816Y-37301544D01*
X33620788Y-37233624D01*
X33770088Y-37203927D01*
X33794858Y-37199000D01*
X33838205Y-37199000D01*
X33862591Y-37196598D01*
X33886040Y-37189485D01*
X33891290Y-37187311D01*
X34011619Y-37137468D01*
X34108315Y-37118234D01*
X34205009Y-37099000D01*
X34402191Y-37099000D01*
X34498885Y-37118234D01*
X34498885Y-37118234D01*
G37*
G36*
X23498885Y-37118234D02*
G01*
X23595581Y-37137468D01*
X23715910Y-37187311D01*
X23721160Y-37189485D01*
X23744609Y-37196598D01*
X23768995Y-37199000D01*
X23812342Y-37199000D01*
X23837112Y-37203927D01*
X23986412Y-37233624D01*
X24150384Y-37301544D01*
X24297954Y-37400147D01*
X24423453Y-37525646D01*
X24522056Y-37673216D01*
X24589976Y-37837188D01*
X24624600Y-38011259D01*
X24624600Y-38188741D01*
X24589976Y-38362812D01*
X24522056Y-38526784D01*
X24423453Y-38674354D01*
X24297954Y-38799853D01*
X24150384Y-38898456D01*
X23986412Y-38966376D01*
X23837112Y-38996073D01*
X23812342Y-39001000D01*
X23768995Y-39001000D01*
X23744609Y-39003402D01*
X23721160Y-39010515D01*
X23595581Y-39062532D01*
X23402191Y-39101000D01*
X23205009Y-39101000D01*
X23011619Y-39062532D01*
X22829449Y-38987074D01*
X22665500Y-38877527D01*
X22526073Y-38738100D01*
X22416526Y-38574151D01*
X22341068Y-38391981D01*
X22302600Y-38198590D01*
X22302600Y-38001410D01*
X22341068Y-37808019D01*
X22416526Y-37625849D01*
X22526073Y-37461900D01*
X22665500Y-37322473D01*
X22829449Y-37212926D01*
X23011619Y-37137468D01*
X23108315Y-37118234D01*
X23205009Y-37099000D01*
X23402191Y-37099000D01*
X23498885Y-37118234D01*
X23498885Y-37118234D01*
G37*
G36*
X154513885Y-37118234D02*
G01*
X154610581Y-37137468D01*
X154792751Y-37212926D01*
X154956700Y-37322473D01*
X155096127Y-37461900D01*
X155205674Y-37625849D01*
X155281132Y-37808019D01*
X155319600Y-38001410D01*
X155319600Y-38198590D01*
X155281132Y-38391981D01*
X155205674Y-38574151D01*
X155096127Y-38738100D01*
X154956700Y-38877527D01*
X154792751Y-38987074D01*
X154610581Y-39062532D01*
X154417191Y-39101000D01*
X154220009Y-39101000D01*
X154026619Y-39062532D01*
X153901040Y-39010515D01*
X153877591Y-39003402D01*
X153853205Y-39001000D01*
X153809858Y-39001000D01*
X153785088Y-38996073D01*
X153635788Y-38966376D01*
X153471816Y-38898456D01*
X153324246Y-38799853D01*
X153198747Y-38674354D01*
X153100144Y-38526784D01*
X153032224Y-38362812D01*
X152997600Y-38188741D01*
X152997600Y-38011259D01*
X153032224Y-37837188D01*
X153100144Y-37673216D01*
X153198747Y-37525646D01*
X153324246Y-37400147D01*
X153471816Y-37301544D01*
X153635788Y-37233624D01*
X153785088Y-37203927D01*
X153809858Y-37199000D01*
X153853205Y-37199000D01*
X153877591Y-37196598D01*
X153901040Y-37189485D01*
X153906290Y-37187311D01*
X154026619Y-37137468D01*
X154123315Y-37118234D01*
X154220009Y-37099000D01*
X154417191Y-37099000D01*
X154513885Y-37118234D01*
X154513885Y-37118234D01*
G37*
G36*
X143513885Y-37118234D02*
G01*
X143610581Y-37137468D01*
X143730910Y-37187311D01*
X143736160Y-37189485D01*
X143759609Y-37196598D01*
X143783995Y-37199000D01*
X143827342Y-37199000D01*
X143852112Y-37203927D01*
X144001412Y-37233624D01*
X144165384Y-37301544D01*
X144312954Y-37400147D01*
X144438453Y-37525646D01*
X144537056Y-37673216D01*
X144604976Y-37837188D01*
X144639600Y-38011259D01*
X144639600Y-38188741D01*
X144604976Y-38362812D01*
X144537056Y-38526784D01*
X144438453Y-38674354D01*
X144312954Y-38799853D01*
X144165384Y-38898456D01*
X144001412Y-38966376D01*
X143852112Y-38996073D01*
X143827342Y-39001000D01*
X143783995Y-39001000D01*
X143759609Y-39003402D01*
X143736160Y-39010515D01*
X143610581Y-39062532D01*
X143417191Y-39101000D01*
X143220009Y-39101000D01*
X143026619Y-39062532D01*
X142844449Y-38987074D01*
X142680500Y-38877527D01*
X142541073Y-38738100D01*
X142431526Y-38574151D01*
X142356068Y-38391981D01*
X142317600Y-38198590D01*
X142317600Y-38001410D01*
X142356068Y-37808019D01*
X142431526Y-37625849D01*
X142541073Y-37461900D01*
X142680500Y-37322473D01*
X142844449Y-37212926D01*
X143026619Y-37137468D01*
X143123315Y-37118234D01*
X143220009Y-37099000D01*
X143417191Y-37099000D01*
X143513885Y-37118234D01*
X143513885Y-37118234D01*
G37*
G36*
X178516885Y-37118234D02*
G01*
X178613581Y-37137468D01*
X178795751Y-37212926D01*
X178959700Y-37322473D01*
X179099127Y-37461900D01*
X179208674Y-37625849D01*
X179284132Y-37808019D01*
X179322600Y-38001410D01*
X179322600Y-38198590D01*
X179284132Y-38391981D01*
X179208674Y-38574151D01*
X179099127Y-38738100D01*
X178959700Y-38877527D01*
X178795751Y-38987074D01*
X178613581Y-39062532D01*
X178420191Y-39101000D01*
X178223009Y-39101000D01*
X178029619Y-39062532D01*
X177904040Y-39010515D01*
X177880591Y-39003402D01*
X177856205Y-39001000D01*
X177812858Y-39001000D01*
X177788088Y-38996073D01*
X177638788Y-38966376D01*
X177474816Y-38898456D01*
X177327246Y-38799853D01*
X177201747Y-38674354D01*
X177103144Y-38526784D01*
X177035224Y-38362812D01*
X177000600Y-38188741D01*
X177000600Y-38011259D01*
X177035224Y-37837188D01*
X177103144Y-37673216D01*
X177201747Y-37525646D01*
X177327246Y-37400147D01*
X177474816Y-37301544D01*
X177638788Y-37233624D01*
X177788088Y-37203927D01*
X177812858Y-37199000D01*
X177856205Y-37199000D01*
X177880591Y-37196598D01*
X177904040Y-37189485D01*
X177909290Y-37187311D01*
X178029619Y-37137468D01*
X178126315Y-37118234D01*
X178223009Y-37099000D01*
X178420191Y-37099000D01*
X178516885Y-37118234D01*
X178516885Y-37118234D01*
G37*
G36*
X124311485Y-37118234D02*
G01*
X124408181Y-37137468D01*
X124528510Y-37187311D01*
X124533760Y-37189485D01*
X124557209Y-37196598D01*
X124581595Y-37199000D01*
X124624942Y-37199000D01*
X124649712Y-37203927D01*
X124799012Y-37233624D01*
X124962984Y-37301544D01*
X125110554Y-37400147D01*
X125236053Y-37525646D01*
X125334656Y-37673216D01*
X125402576Y-37837188D01*
X125437200Y-38011259D01*
X125437200Y-38188741D01*
X125402576Y-38362812D01*
X125334656Y-38526784D01*
X125236053Y-38674354D01*
X125110554Y-38799853D01*
X124962984Y-38898456D01*
X124799012Y-38966376D01*
X124649712Y-38996073D01*
X124624942Y-39001000D01*
X124581595Y-39001000D01*
X124557209Y-39003402D01*
X124533760Y-39010515D01*
X124408181Y-39062532D01*
X124214791Y-39101000D01*
X124017609Y-39101000D01*
X123824219Y-39062532D01*
X123642049Y-38987074D01*
X123478100Y-38877527D01*
X123338673Y-38738100D01*
X123229126Y-38574151D01*
X123153668Y-38391981D01*
X123115200Y-38198590D01*
X123115200Y-38001410D01*
X123153668Y-37808019D01*
X123229126Y-37625849D01*
X123338673Y-37461900D01*
X123478100Y-37322473D01*
X123642049Y-37212926D01*
X123824219Y-37137468D01*
X123920915Y-37118234D01*
X124017609Y-37099000D01*
X124214791Y-37099000D01*
X124311485Y-37118234D01*
X124311485Y-37118234D01*
G37*
G36*
X135311485Y-37118234D02*
G01*
X135408181Y-37137468D01*
X135590351Y-37212926D01*
X135754300Y-37322473D01*
X135893727Y-37461900D01*
X136003274Y-37625849D01*
X136078732Y-37808019D01*
X136117200Y-38001410D01*
X136117200Y-38198590D01*
X136078732Y-38391981D01*
X136003274Y-38574151D01*
X135893727Y-38738100D01*
X135754300Y-38877527D01*
X135590351Y-38987074D01*
X135408181Y-39062532D01*
X135214791Y-39101000D01*
X135017609Y-39101000D01*
X134824219Y-39062532D01*
X134698640Y-39010515D01*
X134675191Y-39003402D01*
X134650805Y-39001000D01*
X134607458Y-39001000D01*
X134582688Y-38996073D01*
X134433388Y-38966376D01*
X134269416Y-38898456D01*
X134121846Y-38799853D01*
X133996347Y-38674354D01*
X133897744Y-38526784D01*
X133829824Y-38362812D01*
X133795200Y-38188741D01*
X133795200Y-38011259D01*
X133829824Y-37837188D01*
X133897744Y-37673216D01*
X133996347Y-37525646D01*
X134121846Y-37400147D01*
X134269416Y-37301544D01*
X134433388Y-37233624D01*
X134582688Y-37203927D01*
X134607458Y-37199000D01*
X134650805Y-37199000D01*
X134675191Y-37196598D01*
X134698640Y-37189485D01*
X134703890Y-37187311D01*
X134824219Y-37137468D01*
X134920915Y-37118234D01*
X135017609Y-37099000D01*
X135214791Y-37099000D01*
X135311485Y-37118234D01*
X135311485Y-37118234D01*
G37*
G36*
X47501885Y-37118234D02*
G01*
X47598581Y-37137468D01*
X47718910Y-37187311D01*
X47724160Y-37189485D01*
X47747609Y-37196598D01*
X47771995Y-37199000D01*
X47815342Y-37199000D01*
X47840112Y-37203927D01*
X47989412Y-37233624D01*
X48153384Y-37301544D01*
X48300954Y-37400147D01*
X48426453Y-37525646D01*
X48525056Y-37673216D01*
X48592976Y-37837188D01*
X48627600Y-38011259D01*
X48627600Y-38188741D01*
X48592976Y-38362812D01*
X48525056Y-38526784D01*
X48426453Y-38674354D01*
X48300954Y-38799853D01*
X48153384Y-38898456D01*
X47989412Y-38966376D01*
X47840112Y-38996073D01*
X47815342Y-39001000D01*
X47771995Y-39001000D01*
X47747609Y-39003402D01*
X47724160Y-39010515D01*
X47598581Y-39062532D01*
X47405191Y-39101000D01*
X47208009Y-39101000D01*
X47014619Y-39062532D01*
X46832449Y-38987074D01*
X46668500Y-38877527D01*
X46529073Y-38738100D01*
X46419526Y-38574151D01*
X46344068Y-38391981D01*
X46305600Y-38198590D01*
X46305600Y-38001410D01*
X46344068Y-37808019D01*
X46419526Y-37625849D01*
X46529073Y-37461900D01*
X46668500Y-37322473D01*
X46832449Y-37212926D01*
X47014619Y-37137468D01*
X47111315Y-37118234D01*
X47208009Y-37099000D01*
X47405191Y-37099000D01*
X47501885Y-37118234D01*
X47501885Y-37118234D01*
G37*
G36*
X58501885Y-37118234D02*
G01*
X58598581Y-37137468D01*
X58780751Y-37212926D01*
X58944700Y-37322473D01*
X59084127Y-37461900D01*
X59193674Y-37625849D01*
X59269132Y-37808019D01*
X59307600Y-38001410D01*
X59307600Y-38198590D01*
X59269132Y-38391981D01*
X59193674Y-38574151D01*
X59084127Y-38738100D01*
X58944700Y-38877527D01*
X58780751Y-38987074D01*
X58598581Y-39062532D01*
X58405191Y-39101000D01*
X58208009Y-39101000D01*
X58014619Y-39062532D01*
X57889040Y-39010515D01*
X57865591Y-39003402D01*
X57841205Y-39001000D01*
X57797858Y-39001000D01*
X57773088Y-38996073D01*
X57623788Y-38966376D01*
X57459816Y-38898456D01*
X57312246Y-38799853D01*
X57186747Y-38674354D01*
X57088144Y-38526784D01*
X57020224Y-38362812D01*
X56985600Y-38188741D01*
X56985600Y-38011259D01*
X57020224Y-37837188D01*
X57088144Y-37673216D01*
X57186747Y-37525646D01*
X57312246Y-37400147D01*
X57459816Y-37301544D01*
X57623788Y-37233624D01*
X57773088Y-37203927D01*
X57797858Y-37199000D01*
X57841205Y-37199000D01*
X57865591Y-37196598D01*
X57889040Y-37189485D01*
X57894290Y-37187311D01*
X58014619Y-37137468D01*
X58111315Y-37118234D01*
X58208009Y-37099000D01*
X58405191Y-37099000D01*
X58501885Y-37118234D01*
X58501885Y-37118234D01*
G37*
G36*
X116109085Y-37118234D02*
G01*
X116205781Y-37137468D01*
X116387951Y-37212926D01*
X116551900Y-37322473D01*
X116691327Y-37461900D01*
X116800874Y-37625849D01*
X116876332Y-37808019D01*
X116914800Y-38001410D01*
X116914800Y-38198590D01*
X116876332Y-38391981D01*
X116800874Y-38574151D01*
X116691327Y-38738100D01*
X116551900Y-38877527D01*
X116387951Y-38987074D01*
X116205781Y-39062532D01*
X116012391Y-39101000D01*
X115815209Y-39101000D01*
X115621819Y-39062532D01*
X115496240Y-39010515D01*
X115472791Y-39003402D01*
X115448405Y-39001000D01*
X115405058Y-39001000D01*
X115380288Y-38996073D01*
X115230988Y-38966376D01*
X115067016Y-38898456D01*
X114919446Y-38799853D01*
X114793947Y-38674354D01*
X114695344Y-38526784D01*
X114627424Y-38362812D01*
X114592800Y-38188741D01*
X114592800Y-38011259D01*
X114627424Y-37837188D01*
X114695344Y-37673216D01*
X114793947Y-37525646D01*
X114919446Y-37400147D01*
X115067016Y-37301544D01*
X115230988Y-37233624D01*
X115380288Y-37203927D01*
X115405058Y-37199000D01*
X115448405Y-37199000D01*
X115472791Y-37196598D01*
X115496240Y-37189485D01*
X115501490Y-37187311D01*
X115621819Y-37137468D01*
X115718515Y-37118234D01*
X115815209Y-37099000D01*
X116012391Y-37099000D01*
X116109085Y-37118234D01*
X116109085Y-37118234D01*
G37*
G36*
X105109085Y-37118234D02*
G01*
X105205781Y-37137468D01*
X105326110Y-37187311D01*
X105331360Y-37189485D01*
X105354809Y-37196598D01*
X105379195Y-37199000D01*
X105422542Y-37199000D01*
X105447312Y-37203927D01*
X105596612Y-37233624D01*
X105760584Y-37301544D01*
X105908154Y-37400147D01*
X106033653Y-37525646D01*
X106132256Y-37673216D01*
X106200176Y-37837188D01*
X106234800Y-38011259D01*
X106234800Y-38188741D01*
X106200176Y-38362812D01*
X106132256Y-38526784D01*
X106033653Y-38674354D01*
X105908154Y-38799853D01*
X105760584Y-38898456D01*
X105596612Y-38966376D01*
X105447312Y-38996073D01*
X105422542Y-39001000D01*
X105379195Y-39001000D01*
X105354809Y-39003402D01*
X105331360Y-39010515D01*
X105205781Y-39062532D01*
X105012391Y-39101000D01*
X104815209Y-39101000D01*
X104621819Y-39062532D01*
X104439649Y-38987074D01*
X104275700Y-38877527D01*
X104136273Y-38738100D01*
X104026726Y-38574151D01*
X103951268Y-38391981D01*
X103912800Y-38198590D01*
X103912800Y-38001410D01*
X103951268Y-37808019D01*
X104026726Y-37625849D01*
X104136273Y-37461900D01*
X104275700Y-37322473D01*
X104439649Y-37212926D01*
X104621819Y-37137468D01*
X104718515Y-37118234D01*
X104815209Y-37099000D01*
X105012391Y-37099000D01*
X105109085Y-37118234D01*
X105109085Y-37118234D01*
G37*
G36*
X85906685Y-37118234D02*
G01*
X86003381Y-37137468D01*
X86123710Y-37187311D01*
X86128960Y-37189485D01*
X86152409Y-37196598D01*
X86176795Y-37199000D01*
X86220142Y-37199000D01*
X86244912Y-37203927D01*
X86394212Y-37233624D01*
X86558184Y-37301544D01*
X86705754Y-37400147D01*
X86831253Y-37525646D01*
X86929856Y-37673216D01*
X86997776Y-37837188D01*
X87032400Y-38011259D01*
X87032400Y-38188741D01*
X86997776Y-38362812D01*
X86929856Y-38526784D01*
X86831253Y-38674354D01*
X86705754Y-38799853D01*
X86558184Y-38898456D01*
X86394212Y-38966376D01*
X86244912Y-38996073D01*
X86220142Y-39001000D01*
X86176795Y-39001000D01*
X86152409Y-39003402D01*
X86128960Y-39010515D01*
X86003381Y-39062532D01*
X85809991Y-39101000D01*
X85612809Y-39101000D01*
X85419419Y-39062532D01*
X85237249Y-38987074D01*
X85073300Y-38877527D01*
X84933873Y-38738100D01*
X84824326Y-38574151D01*
X84748868Y-38391981D01*
X84710400Y-38198590D01*
X84710400Y-38001410D01*
X84748868Y-37808019D01*
X84824326Y-37625849D01*
X84933873Y-37461900D01*
X85073300Y-37322473D01*
X85237249Y-37212926D01*
X85419419Y-37137468D01*
X85516115Y-37118234D01*
X85612809Y-37099000D01*
X85809991Y-37099000D01*
X85906685Y-37118234D01*
X85906685Y-37118234D01*
G37*
G36*
X96906685Y-37118234D02*
G01*
X97003381Y-37137468D01*
X97185551Y-37212926D01*
X97349500Y-37322473D01*
X97488927Y-37461900D01*
X97598474Y-37625849D01*
X97673932Y-37808019D01*
X97712400Y-38001410D01*
X97712400Y-38198590D01*
X97673932Y-38391981D01*
X97598474Y-38574151D01*
X97488927Y-38738100D01*
X97349500Y-38877527D01*
X97185551Y-38987074D01*
X97003381Y-39062532D01*
X96809991Y-39101000D01*
X96612809Y-39101000D01*
X96419419Y-39062532D01*
X96293840Y-39010515D01*
X96270391Y-39003402D01*
X96246005Y-39001000D01*
X96202658Y-39001000D01*
X96177888Y-38996073D01*
X96028588Y-38966376D01*
X95864616Y-38898456D01*
X95717046Y-38799853D01*
X95591547Y-38674354D01*
X95492944Y-38526784D01*
X95425024Y-38362812D01*
X95390400Y-38188741D01*
X95390400Y-38011259D01*
X95425024Y-37837188D01*
X95492944Y-37673216D01*
X95591547Y-37525646D01*
X95717046Y-37400147D01*
X95864616Y-37301544D01*
X96028588Y-37233624D01*
X96177888Y-37203927D01*
X96202658Y-37199000D01*
X96246005Y-37199000D01*
X96270391Y-37196598D01*
X96293840Y-37189485D01*
X96299090Y-37187311D01*
X96419419Y-37137468D01*
X96516115Y-37118234D01*
X96612809Y-37099000D01*
X96809991Y-37099000D01*
X96906685Y-37118234D01*
X96906685Y-37118234D01*
G37*
G36*
X77704285Y-37118234D02*
G01*
X77800981Y-37137468D01*
X77983151Y-37212926D01*
X78147100Y-37322473D01*
X78286527Y-37461900D01*
X78396074Y-37625849D01*
X78471532Y-37808019D01*
X78510000Y-38001410D01*
X78510000Y-38198590D01*
X78471532Y-38391981D01*
X78396074Y-38574151D01*
X78286527Y-38738100D01*
X78147100Y-38877527D01*
X77983151Y-38987074D01*
X77800981Y-39062532D01*
X77607591Y-39101000D01*
X77410409Y-39101000D01*
X77217019Y-39062532D01*
X77091440Y-39010515D01*
X77067991Y-39003402D01*
X77043605Y-39001000D01*
X77000258Y-39001000D01*
X76975488Y-38996073D01*
X76826188Y-38966376D01*
X76662216Y-38898456D01*
X76514646Y-38799853D01*
X76389147Y-38674354D01*
X76290544Y-38526784D01*
X76222624Y-38362812D01*
X76188000Y-38188741D01*
X76188000Y-38011259D01*
X76222624Y-37837188D01*
X76290544Y-37673216D01*
X76389147Y-37525646D01*
X76514646Y-37400147D01*
X76662216Y-37301544D01*
X76826188Y-37233624D01*
X76975488Y-37203927D01*
X77000258Y-37199000D01*
X77043605Y-37199000D01*
X77067991Y-37196598D01*
X77091440Y-37189485D01*
X77096690Y-37187311D01*
X77217019Y-37137468D01*
X77313715Y-37118234D01*
X77410409Y-37099000D01*
X77607591Y-37099000D01*
X77704285Y-37118234D01*
X77704285Y-37118234D01*
G37*
G36*
X66704285Y-37118234D02*
G01*
X66800981Y-37137468D01*
X66921310Y-37187311D01*
X66926560Y-37189485D01*
X66950009Y-37196598D01*
X66974395Y-37199000D01*
X67017742Y-37199000D01*
X67042512Y-37203927D01*
X67191812Y-37233624D01*
X67355784Y-37301544D01*
X67503354Y-37400147D01*
X67628853Y-37525646D01*
X67727456Y-37673216D01*
X67795376Y-37837188D01*
X67830000Y-38011259D01*
X67830000Y-38188741D01*
X67795376Y-38362812D01*
X67727456Y-38526784D01*
X67628853Y-38674354D01*
X67503354Y-38799853D01*
X67355784Y-38898456D01*
X67191812Y-38966376D01*
X67042512Y-38996073D01*
X67017742Y-39001000D01*
X66974395Y-39001000D01*
X66950009Y-39003402D01*
X66926560Y-39010515D01*
X66800981Y-39062532D01*
X66607591Y-39101000D01*
X66410409Y-39101000D01*
X66217019Y-39062532D01*
X66034849Y-38987074D01*
X65870900Y-38877527D01*
X65731473Y-38738100D01*
X65621926Y-38574151D01*
X65546468Y-38391981D01*
X65508000Y-38198590D01*
X65508000Y-38001410D01*
X65546468Y-37808019D01*
X65621926Y-37625849D01*
X65731473Y-37461900D01*
X65870900Y-37322473D01*
X66034849Y-37212926D01*
X66217019Y-37137468D01*
X66313715Y-37118234D01*
X66410409Y-37099000D01*
X66607591Y-37099000D01*
X66704285Y-37118234D01*
X66704285Y-37118234D01*
G37*
G36*
X124351000Y-26851000D02*
G01*
X122649000Y-26851000D01*
X122649000Y-25149000D01*
X124351000Y-25149000D01*
X124351000Y-26851000D01*
X124351000Y-26851000D01*
G37*
G36*
X143251000Y-26851000D02*
G01*
X141549000Y-26851000D01*
X141549000Y-25149000D01*
X143251000Y-25149000D01*
X143251000Y-26851000D01*
X143251000Y-26851000D01*
G37*
G36*
X153948228Y-25181703D02*
G01*
X154103100Y-25245853D01*
X154242481Y-25338985D01*
X154361015Y-25457519D01*
X154454147Y-25596900D01*
X154518297Y-25751772D01*
X154551000Y-25916184D01*
X154551000Y-26083816D01*
X154518297Y-26248228D01*
X154454147Y-26403100D01*
X154361015Y-26542481D01*
X154242481Y-26661015D01*
X154103100Y-26754147D01*
X153948228Y-26818297D01*
X153783816Y-26851000D01*
X153616184Y-26851000D01*
X153451772Y-26818297D01*
X153296900Y-26754147D01*
X153157519Y-26661015D01*
X153038985Y-26542481D01*
X152945853Y-26403100D01*
X152881703Y-26248228D01*
X152849000Y-26083816D01*
X152849000Y-25916184D01*
X152881703Y-25751772D01*
X152945853Y-25596900D01*
X153038985Y-25457519D01*
X153157519Y-25338985D01*
X153296900Y-25245853D01*
X153451772Y-25181703D01*
X153616184Y-25149000D01*
X153783816Y-25149000D01*
X153948228Y-25181703D01*
X153948228Y-25181703D01*
G37*
G36*
X162351000Y-26851000D02*
G01*
X160649000Y-26851000D01*
X160649000Y-25149000D01*
X162351000Y-25149000D01*
X162351000Y-26851000D01*
X162351000Y-26851000D01*
G37*
G36*
X134848228Y-25181703D02*
G01*
X135003100Y-25245853D01*
X135142481Y-25338985D01*
X135261015Y-25457519D01*
X135354147Y-25596900D01*
X135418297Y-25751772D01*
X135451000Y-25916184D01*
X135451000Y-26083816D01*
X135418297Y-26248228D01*
X135354147Y-26403100D01*
X135261015Y-26542481D01*
X135142481Y-26661015D01*
X135003100Y-26754147D01*
X134848228Y-26818297D01*
X134683816Y-26851000D01*
X134516184Y-26851000D01*
X134351772Y-26818297D01*
X134196900Y-26754147D01*
X134057519Y-26661015D01*
X133938985Y-26542481D01*
X133845853Y-26403100D01*
X133781703Y-26248228D01*
X133749000Y-26083816D01*
X133749000Y-25916184D01*
X133781703Y-25751772D01*
X133845853Y-25596900D01*
X133938985Y-25457519D01*
X134057519Y-25338985D01*
X134196900Y-25245853D01*
X134351772Y-25181703D01*
X134516184Y-25149000D01*
X134683816Y-25149000D01*
X134848228Y-25181703D01*
X134848228Y-25181703D01*
G37*
G36*
X115948228Y-25181703D02*
G01*
X116103100Y-25245853D01*
X116242481Y-25338985D01*
X116361015Y-25457519D01*
X116454147Y-25596900D01*
X116518297Y-25751772D01*
X116551000Y-25916184D01*
X116551000Y-26083816D01*
X116518297Y-26248228D01*
X116454147Y-26403100D01*
X116361015Y-26542481D01*
X116242481Y-26661015D01*
X116103100Y-26754147D01*
X115948228Y-26818297D01*
X115783816Y-26851000D01*
X115616184Y-26851000D01*
X115451772Y-26818297D01*
X115296900Y-26754147D01*
X115157519Y-26661015D01*
X115038985Y-26542481D01*
X114945853Y-26403100D01*
X114881703Y-26248228D01*
X114849000Y-26083816D01*
X114849000Y-25916184D01*
X114881703Y-25751772D01*
X114945853Y-25596900D01*
X115038985Y-25457519D01*
X115157519Y-25338985D01*
X115296900Y-25245853D01*
X115451772Y-25181703D01*
X115616184Y-25149000D01*
X115783816Y-25149000D01*
X115948228Y-25181703D01*
X115948228Y-25181703D01*
G37*
G36*
X76748228Y-25181703D02*
G01*
X76903100Y-25245853D01*
X77042481Y-25338985D01*
X77161015Y-25457519D01*
X77254147Y-25596900D01*
X77318297Y-25751772D01*
X77351000Y-25916184D01*
X77351000Y-26083816D01*
X77318297Y-26248228D01*
X77254147Y-26403100D01*
X77161015Y-26542481D01*
X77042481Y-26661015D01*
X76903100Y-26754147D01*
X76748228Y-26818297D01*
X76583816Y-26851000D01*
X76416184Y-26851000D01*
X76251772Y-26818297D01*
X76096900Y-26754147D01*
X75957519Y-26661015D01*
X75838985Y-26542481D01*
X75745853Y-26403100D01*
X75681703Y-26248228D01*
X75649000Y-26083816D01*
X75649000Y-25916184D01*
X75681703Y-25751772D01*
X75745853Y-25596900D01*
X75838985Y-25457519D01*
X75957519Y-25338985D01*
X76096900Y-25245853D01*
X76251772Y-25181703D01*
X76416184Y-25149000D01*
X76583816Y-25149000D01*
X76748228Y-25181703D01*
X76748228Y-25181703D01*
G37*
G36*
X85151000Y-26851000D02*
G01*
X83449000Y-26851000D01*
X83449000Y-25149000D01*
X85151000Y-25149000D01*
X85151000Y-26851000D01*
X85151000Y-26851000D01*
G37*
G36*
X66351000Y-26851000D02*
G01*
X64649000Y-26851000D01*
X64649000Y-25149000D01*
X66351000Y-25149000D01*
X66351000Y-26851000D01*
X66351000Y-26851000D01*
G37*
G36*
X57948228Y-25181703D02*
G01*
X58103100Y-25245853D01*
X58242481Y-25338985D01*
X58361015Y-25457519D01*
X58454147Y-25596900D01*
X58518297Y-25751772D01*
X58551000Y-25916184D01*
X58551000Y-26083816D01*
X58518297Y-26248228D01*
X58454147Y-26403100D01*
X58361015Y-26542481D01*
X58242481Y-26661015D01*
X58103100Y-26754147D01*
X57948228Y-26818297D01*
X57783816Y-26851000D01*
X57616184Y-26851000D01*
X57451772Y-26818297D01*
X57296900Y-26754147D01*
X57157519Y-26661015D01*
X57038985Y-26542481D01*
X56945853Y-26403100D01*
X56881703Y-26248228D01*
X56849000Y-26083816D01*
X56849000Y-25916184D01*
X56881703Y-25751772D01*
X56945853Y-25596900D01*
X57038985Y-25457519D01*
X57157519Y-25338985D01*
X57296900Y-25245853D01*
X57451772Y-25181703D01*
X57616184Y-25149000D01*
X57783816Y-25149000D01*
X57948228Y-25181703D01*
X57948228Y-25181703D01*
G37*
G36*
X47751000Y-26851000D02*
G01*
X46049000Y-26851000D01*
X46049000Y-25149000D01*
X47751000Y-25149000D01*
X47751000Y-26851000D01*
X47751000Y-26851000D01*
G37*
G36*
X39348228Y-25181703D02*
G01*
X39503100Y-25245853D01*
X39642481Y-25338985D01*
X39761015Y-25457519D01*
X39854147Y-25596900D01*
X39918297Y-25751772D01*
X39951000Y-25916184D01*
X39951000Y-26083816D01*
X39918297Y-26248228D01*
X39854147Y-26403100D01*
X39761015Y-26542481D01*
X39642481Y-26661015D01*
X39503100Y-26754147D01*
X39348228Y-26818297D01*
X39183816Y-26851000D01*
X39016184Y-26851000D01*
X38851772Y-26818297D01*
X38696900Y-26754147D01*
X38557519Y-26661015D01*
X38438985Y-26542481D01*
X38345853Y-26403100D01*
X38281703Y-26248228D01*
X38249000Y-26083816D01*
X38249000Y-25916184D01*
X38281703Y-25751772D01*
X38345853Y-25596900D01*
X38438985Y-25457519D01*
X38557519Y-25338985D01*
X38696900Y-25245853D01*
X38851772Y-25181703D01*
X39016184Y-25149000D01*
X39183816Y-25149000D01*
X39348228Y-25181703D01*
X39348228Y-25181703D01*
G37*
G36*
X159851000Y-26651000D02*
G01*
X158149000Y-26651000D01*
X158149000Y-25349000D01*
X159851000Y-25349000D01*
X159851000Y-26651000D01*
X159851000Y-26651000D01*
G37*
G36*
X157051000Y-26651000D02*
G01*
X155349000Y-26651000D01*
X155349000Y-25349000D01*
X157051000Y-25349000D01*
X157051000Y-26651000D01*
X157051000Y-26651000D01*
G37*
G36*
X140751000Y-26651000D02*
G01*
X139049000Y-26651000D01*
X139049000Y-25349000D01*
X140751000Y-25349000D01*
X140751000Y-26651000D01*
X140751000Y-26651000D01*
G37*
G36*
X137951000Y-26651000D02*
G01*
X136249000Y-26651000D01*
X136249000Y-25349000D01*
X137951000Y-25349000D01*
X137951000Y-26651000D01*
X137951000Y-26651000D01*
G37*
G36*
X121851000Y-26651000D02*
G01*
X120149000Y-26651000D01*
X120149000Y-25349000D01*
X121851000Y-25349000D01*
X121851000Y-26651000D01*
X121851000Y-26651000D01*
G37*
G36*
X119051000Y-26651000D02*
G01*
X117349000Y-26651000D01*
X117349000Y-25349000D01*
X119051000Y-25349000D01*
X119051000Y-26651000D01*
X119051000Y-26651000D01*
G37*
G36*
X45251000Y-26651000D02*
G01*
X43549000Y-26651000D01*
X43549000Y-25349000D01*
X45251000Y-25349000D01*
X45251000Y-26651000D01*
X45251000Y-26651000D01*
G37*
G36*
X42451000Y-26651000D02*
G01*
X40749000Y-26651000D01*
X40749000Y-25349000D01*
X42451000Y-25349000D01*
X42451000Y-26651000D01*
X42451000Y-26651000D01*
G37*
G36*
X63851000Y-26651000D02*
G01*
X62149000Y-26651000D01*
X62149000Y-25349000D01*
X63851000Y-25349000D01*
X63851000Y-26651000D01*
X63851000Y-26651000D01*
G37*
G36*
X61051000Y-26651000D02*
G01*
X59349000Y-26651000D01*
X59349000Y-25349000D01*
X61051000Y-25349000D01*
X61051000Y-26651000D01*
X61051000Y-26651000D01*
G37*
G36*
X79851000Y-26651000D02*
G01*
X78149000Y-26651000D01*
X78149000Y-25349000D01*
X79851000Y-25349000D01*
X79851000Y-26651000D01*
X79851000Y-26651000D01*
G37*
G36*
X82651000Y-26651000D02*
G01*
X80949000Y-26651000D01*
X80949000Y-25349000D01*
X82651000Y-25349000D01*
X82651000Y-26651000D01*
X82651000Y-26651000D01*
G37*
G36*
X76550921Y-22720174D02*
G01*
X76651195Y-22761709D01*
X76651196Y-22761710D01*
X76741442Y-22822010D01*
X76818190Y-22898758D01*
X76818191Y-22898760D01*
X76878491Y-22989005D01*
X76920026Y-23089279D01*
X76941200Y-23195730D01*
X76941200Y-23304270D01*
X76920026Y-23410721D01*
X76878491Y-23510995D01*
X76878490Y-23510996D01*
X76818190Y-23601242D01*
X76741442Y-23677990D01*
X76696012Y-23708345D01*
X76651195Y-23738291D01*
X76550921Y-23779826D01*
X76444470Y-23801000D01*
X76335930Y-23801000D01*
X76229479Y-23779826D01*
X76129205Y-23738291D01*
X76084388Y-23708345D01*
X76038958Y-23677990D01*
X75962210Y-23601242D01*
X75901910Y-23510996D01*
X75901909Y-23510995D01*
X75860374Y-23410721D01*
X75839200Y-23304270D01*
X75839200Y-23195730D01*
X75860374Y-23089279D01*
X75901909Y-22989005D01*
X75962209Y-22898760D01*
X75962210Y-22898758D01*
X76038958Y-22822010D01*
X76129204Y-22761710D01*
X76129205Y-22761709D01*
X76229479Y-22720174D01*
X76335930Y-22699000D01*
X76444470Y-22699000D01*
X76550921Y-22720174D01*
X76550921Y-22720174D01*
G37*
G36*
X86990921Y-22720174D02*
G01*
X87091195Y-22761709D01*
X87091196Y-22761710D01*
X87181442Y-22822010D01*
X87258190Y-22898758D01*
X87258191Y-22898760D01*
X87318491Y-22989005D01*
X87360026Y-23089279D01*
X87381200Y-23195730D01*
X87381200Y-23304270D01*
X87360026Y-23410721D01*
X87318491Y-23510995D01*
X87318490Y-23510996D01*
X87258190Y-23601242D01*
X87181442Y-23677990D01*
X87136012Y-23708345D01*
X87091195Y-23738291D01*
X86990921Y-23779826D01*
X86884470Y-23801000D01*
X86775930Y-23801000D01*
X86669479Y-23779826D01*
X86569205Y-23738291D01*
X86524388Y-23708345D01*
X86478958Y-23677990D01*
X86402210Y-23601242D01*
X86341910Y-23510996D01*
X86341909Y-23510995D01*
X86300374Y-23410721D01*
X86279200Y-23304270D01*
X86279200Y-23195730D01*
X86300374Y-23089279D01*
X86341909Y-22989005D01*
X86402209Y-22898760D01*
X86402210Y-22898758D01*
X86478958Y-22822010D01*
X86569204Y-22761710D01*
X86569205Y-22761709D01*
X86669479Y-22720174D01*
X86775930Y-22699000D01*
X86884470Y-22699000D01*
X86990921Y-22720174D01*
X86990921Y-22720174D01*
G37*
G36*
X153360521Y-22720174D02*
G01*
X153460795Y-22761709D01*
X153460796Y-22761710D01*
X153551042Y-22822010D01*
X153627790Y-22898758D01*
X153627791Y-22898760D01*
X153688091Y-22989005D01*
X153729626Y-23089279D01*
X153750800Y-23195730D01*
X153750800Y-23304270D01*
X153729626Y-23410721D01*
X153688091Y-23510995D01*
X153688090Y-23510996D01*
X153627790Y-23601242D01*
X153551042Y-23677990D01*
X153505612Y-23708345D01*
X153460795Y-23738291D01*
X153360521Y-23779826D01*
X153254070Y-23801000D01*
X153145530Y-23801000D01*
X153039079Y-23779826D01*
X152938805Y-23738291D01*
X152893988Y-23708345D01*
X152848558Y-23677990D01*
X152771810Y-23601242D01*
X152711510Y-23510996D01*
X152711509Y-23510995D01*
X152669974Y-23410721D01*
X152648800Y-23304270D01*
X152648800Y-23195730D01*
X152669974Y-23089279D01*
X152711509Y-22989005D01*
X152771809Y-22898760D01*
X152771810Y-22898758D01*
X152848558Y-22822010D01*
X152938804Y-22761710D01*
X152938805Y-22761709D01*
X153039079Y-22720174D01*
X153145530Y-22699000D01*
X153254070Y-22699000D01*
X153360521Y-22720174D01*
X153360521Y-22720174D01*
G37*
G36*
X163800521Y-22720174D02*
G01*
X163900795Y-22761709D01*
X163900796Y-22761710D01*
X163991042Y-22822010D01*
X164067790Y-22898758D01*
X164067791Y-22898760D01*
X164128091Y-22989005D01*
X164169626Y-23089279D01*
X164190800Y-23195730D01*
X164190800Y-23304270D01*
X164169626Y-23410721D01*
X164128091Y-23510995D01*
X164128090Y-23510996D01*
X164067790Y-23601242D01*
X163991042Y-23677990D01*
X163945612Y-23708345D01*
X163900795Y-23738291D01*
X163800521Y-23779826D01*
X163694070Y-23801000D01*
X163585530Y-23801000D01*
X163479079Y-23779826D01*
X163378805Y-23738291D01*
X163333988Y-23708345D01*
X163288558Y-23677990D01*
X163211810Y-23601242D01*
X163151510Y-23510996D01*
X163151509Y-23510995D01*
X163109974Y-23410721D01*
X163088800Y-23304270D01*
X163088800Y-23195730D01*
X163109974Y-23089279D01*
X163151509Y-22989005D01*
X163211809Y-22898760D01*
X163211810Y-22898758D01*
X163288558Y-22822010D01*
X163378804Y-22761710D01*
X163378805Y-22761709D01*
X163479079Y-22720174D01*
X163585530Y-22699000D01*
X163694070Y-22699000D01*
X163800521Y-22720174D01*
X163800521Y-22720174D01*
G37*
G36*
X57348521Y-22720174D02*
G01*
X57448795Y-22761709D01*
X57448796Y-22761710D01*
X57539042Y-22822010D01*
X57615790Y-22898758D01*
X57615791Y-22898760D01*
X57676091Y-22989005D01*
X57717626Y-23089279D01*
X57738800Y-23195730D01*
X57738800Y-23304270D01*
X57717626Y-23410721D01*
X57676091Y-23510995D01*
X57676090Y-23510996D01*
X57615790Y-23601242D01*
X57539042Y-23677990D01*
X57493612Y-23708345D01*
X57448795Y-23738291D01*
X57348521Y-23779826D01*
X57242070Y-23801000D01*
X57133530Y-23801000D01*
X57027079Y-23779826D01*
X56926805Y-23738291D01*
X56881988Y-23708345D01*
X56836558Y-23677990D01*
X56759810Y-23601242D01*
X56699510Y-23510996D01*
X56699509Y-23510995D01*
X56657974Y-23410721D01*
X56636800Y-23304270D01*
X56636800Y-23195730D01*
X56657974Y-23089279D01*
X56699509Y-22989005D01*
X56759809Y-22898760D01*
X56759810Y-22898758D01*
X56836558Y-22822010D01*
X56926804Y-22761710D01*
X56926805Y-22761709D01*
X57027079Y-22720174D01*
X57133530Y-22699000D01*
X57242070Y-22699000D01*
X57348521Y-22720174D01*
X57348521Y-22720174D01*
G37*
G36*
X114955721Y-22720174D02*
G01*
X115055995Y-22761709D01*
X115055996Y-22761710D01*
X115146242Y-22822010D01*
X115222990Y-22898758D01*
X115222991Y-22898760D01*
X115283291Y-22989005D01*
X115324826Y-23089279D01*
X115346000Y-23195730D01*
X115346000Y-23304270D01*
X115324826Y-23410721D01*
X115283291Y-23510995D01*
X115283290Y-23510996D01*
X115222990Y-23601242D01*
X115146242Y-23677990D01*
X115100812Y-23708345D01*
X115055995Y-23738291D01*
X114955721Y-23779826D01*
X114849270Y-23801000D01*
X114740730Y-23801000D01*
X114634279Y-23779826D01*
X114534005Y-23738291D01*
X114489188Y-23708345D01*
X114443758Y-23677990D01*
X114367010Y-23601242D01*
X114306710Y-23510996D01*
X114306709Y-23510995D01*
X114265174Y-23410721D01*
X114244000Y-23304270D01*
X114244000Y-23195730D01*
X114265174Y-23089279D01*
X114306709Y-22989005D01*
X114367009Y-22898760D01*
X114367010Y-22898758D01*
X114443758Y-22822010D01*
X114534004Y-22761710D01*
X114534005Y-22761709D01*
X114634279Y-22720174D01*
X114740730Y-22699000D01*
X114849270Y-22699000D01*
X114955721Y-22720174D01*
X114955721Y-22720174D01*
G37*
G36*
X67788521Y-22720174D02*
G01*
X67888795Y-22761709D01*
X67888796Y-22761710D01*
X67979042Y-22822010D01*
X68055790Y-22898758D01*
X68055791Y-22898760D01*
X68116091Y-22989005D01*
X68157626Y-23089279D01*
X68178800Y-23195730D01*
X68178800Y-23304270D01*
X68157626Y-23410721D01*
X68116091Y-23510995D01*
X68116090Y-23510996D01*
X68055790Y-23601242D01*
X67979042Y-23677990D01*
X67933612Y-23708345D01*
X67888795Y-23738291D01*
X67788521Y-23779826D01*
X67682070Y-23801000D01*
X67573530Y-23801000D01*
X67467079Y-23779826D01*
X67366805Y-23738291D01*
X67321988Y-23708345D01*
X67276558Y-23677990D01*
X67199810Y-23601242D01*
X67139510Y-23510996D01*
X67139509Y-23510995D01*
X67097974Y-23410721D01*
X67076800Y-23304270D01*
X67076800Y-23195730D01*
X67097974Y-23089279D01*
X67139509Y-22989005D01*
X67199809Y-22898760D01*
X67199810Y-22898758D01*
X67276558Y-22822010D01*
X67366804Y-22761710D01*
X67366805Y-22761709D01*
X67467079Y-22720174D01*
X67573530Y-22699000D01*
X67682070Y-22699000D01*
X67788521Y-22720174D01*
X67788521Y-22720174D01*
G37*
G36*
X48586121Y-22720174D02*
G01*
X48686395Y-22761709D01*
X48686396Y-22761710D01*
X48776642Y-22822010D01*
X48853390Y-22898758D01*
X48853391Y-22898760D01*
X48913691Y-22989005D01*
X48955226Y-23089279D01*
X48976400Y-23195730D01*
X48976400Y-23304270D01*
X48955226Y-23410721D01*
X48913691Y-23510995D01*
X48913690Y-23510996D01*
X48853390Y-23601242D01*
X48776642Y-23677990D01*
X48731212Y-23708345D01*
X48686395Y-23738291D01*
X48586121Y-23779826D01*
X48479670Y-23801000D01*
X48371130Y-23801000D01*
X48264679Y-23779826D01*
X48164405Y-23738291D01*
X48119588Y-23708345D01*
X48074158Y-23677990D01*
X47997410Y-23601242D01*
X47937110Y-23510996D01*
X47937109Y-23510995D01*
X47895574Y-23410721D01*
X47874400Y-23304270D01*
X47874400Y-23195730D01*
X47895574Y-23089279D01*
X47937109Y-22989005D01*
X47997409Y-22898760D01*
X47997410Y-22898758D01*
X48074158Y-22822010D01*
X48164404Y-22761710D01*
X48164405Y-22761709D01*
X48264679Y-22720174D01*
X48371130Y-22699000D01*
X48479670Y-22699000D01*
X48586121Y-22720174D01*
X48586121Y-22720174D01*
G37*
G36*
X38146121Y-22720174D02*
G01*
X38246395Y-22761709D01*
X38246396Y-22761710D01*
X38336642Y-22822010D01*
X38413390Y-22898758D01*
X38413391Y-22898760D01*
X38473691Y-22989005D01*
X38515226Y-23089279D01*
X38536400Y-23195730D01*
X38536400Y-23304270D01*
X38515226Y-23410721D01*
X38473691Y-23510995D01*
X38473690Y-23510996D01*
X38413390Y-23601242D01*
X38336642Y-23677990D01*
X38291212Y-23708345D01*
X38246395Y-23738291D01*
X38146121Y-23779826D01*
X38039670Y-23801000D01*
X37931130Y-23801000D01*
X37824679Y-23779826D01*
X37724405Y-23738291D01*
X37679588Y-23708345D01*
X37634158Y-23677990D01*
X37557410Y-23601242D01*
X37497110Y-23510996D01*
X37497109Y-23510995D01*
X37455574Y-23410721D01*
X37434400Y-23304270D01*
X37434400Y-23195730D01*
X37455574Y-23089279D01*
X37497109Y-22989005D01*
X37557409Y-22898760D01*
X37557410Y-22898758D01*
X37634158Y-22822010D01*
X37724404Y-22761710D01*
X37724405Y-22761709D01*
X37824679Y-22720174D01*
X37931130Y-22699000D01*
X38039670Y-22699000D01*
X38146121Y-22720174D01*
X38146121Y-22720174D01*
G37*
G36*
X125395721Y-22720174D02*
G01*
X125495995Y-22761709D01*
X125495996Y-22761710D01*
X125586242Y-22822010D01*
X125662990Y-22898758D01*
X125662991Y-22898760D01*
X125723291Y-22989005D01*
X125764826Y-23089279D01*
X125786000Y-23195730D01*
X125786000Y-23304270D01*
X125764826Y-23410721D01*
X125723291Y-23510995D01*
X125723290Y-23510996D01*
X125662990Y-23601242D01*
X125586242Y-23677990D01*
X125540812Y-23708345D01*
X125495995Y-23738291D01*
X125395721Y-23779826D01*
X125289270Y-23801000D01*
X125180730Y-23801000D01*
X125074279Y-23779826D01*
X124974005Y-23738291D01*
X124929188Y-23708345D01*
X124883758Y-23677990D01*
X124807010Y-23601242D01*
X124746710Y-23510996D01*
X124746709Y-23510995D01*
X124705174Y-23410721D01*
X124684000Y-23304270D01*
X124684000Y-23195730D01*
X124705174Y-23089279D01*
X124746709Y-22989005D01*
X124807009Y-22898760D01*
X124807010Y-22898758D01*
X124883758Y-22822010D01*
X124974004Y-22761710D01*
X124974005Y-22761709D01*
X125074279Y-22720174D01*
X125180730Y-22699000D01*
X125289270Y-22699000D01*
X125395721Y-22720174D01*
X125395721Y-22720174D01*
G37*
G36*
X144598121Y-22720174D02*
G01*
X144698395Y-22761709D01*
X144698396Y-22761710D01*
X144788642Y-22822010D01*
X144865390Y-22898758D01*
X144865391Y-22898760D01*
X144925691Y-22989005D01*
X144967226Y-23089279D01*
X144988400Y-23195730D01*
X144988400Y-23304270D01*
X144967226Y-23410721D01*
X144925691Y-23510995D01*
X144925690Y-23510996D01*
X144865390Y-23601242D01*
X144788642Y-23677990D01*
X144743212Y-23708345D01*
X144698395Y-23738291D01*
X144598121Y-23779826D01*
X144491670Y-23801000D01*
X144383130Y-23801000D01*
X144276679Y-23779826D01*
X144176405Y-23738291D01*
X144131588Y-23708345D01*
X144086158Y-23677990D01*
X144009410Y-23601242D01*
X143949110Y-23510996D01*
X143949109Y-23510995D01*
X143907574Y-23410721D01*
X143886400Y-23304270D01*
X143886400Y-23195730D01*
X143907574Y-23089279D01*
X143949109Y-22989005D01*
X144009409Y-22898760D01*
X144009410Y-22898758D01*
X144086158Y-22822010D01*
X144176404Y-22761710D01*
X144176405Y-22761709D01*
X144276679Y-22720174D01*
X144383130Y-22699000D01*
X144491670Y-22699000D01*
X144598121Y-22720174D01*
X144598121Y-22720174D01*
G37*
G36*
X134158121Y-22720174D02*
G01*
X134258395Y-22761709D01*
X134258396Y-22761710D01*
X134348642Y-22822010D01*
X134425390Y-22898758D01*
X134425391Y-22898760D01*
X134485691Y-22989005D01*
X134527226Y-23089279D01*
X134548400Y-23195730D01*
X134548400Y-23304270D01*
X134527226Y-23410721D01*
X134485691Y-23510995D01*
X134485690Y-23510996D01*
X134425390Y-23601242D01*
X134348642Y-23677990D01*
X134303212Y-23708345D01*
X134258395Y-23738291D01*
X134158121Y-23779826D01*
X134051670Y-23801000D01*
X133943130Y-23801000D01*
X133836679Y-23779826D01*
X133736405Y-23738291D01*
X133691588Y-23708345D01*
X133646158Y-23677990D01*
X133569410Y-23601242D01*
X133509110Y-23510996D01*
X133509109Y-23510995D01*
X133467574Y-23410721D01*
X133446400Y-23304270D01*
X133446400Y-23195730D01*
X133467574Y-23089279D01*
X133509109Y-22989005D01*
X133569409Y-22898760D01*
X133569410Y-22898758D01*
X133646158Y-22822010D01*
X133736404Y-22761710D01*
X133736405Y-22761709D01*
X133836679Y-22720174D01*
X133943130Y-22699000D01*
X134051670Y-22699000D01*
X134158121Y-22720174D01*
X134158121Y-22720174D01*
G37*
G36*
X159018054Y-17077818D02*
G01*
X159391311Y-17232426D01*
X159391313Y-17232427D01*
X159727236Y-17456884D01*
X160012916Y-17742564D01*
X160211249Y-18039389D01*
X160237374Y-18078489D01*
X160391982Y-18451746D01*
X160470800Y-18847993D01*
X160470800Y-19252007D01*
X160391982Y-19648254D01*
X160262639Y-19960515D01*
X160237373Y-20021513D01*
X160012916Y-20357436D01*
X159727236Y-20643116D01*
X159391313Y-20867573D01*
X159391312Y-20867574D01*
X159391311Y-20867574D01*
X159018054Y-21022182D01*
X158621807Y-21101000D01*
X158217793Y-21101000D01*
X157821546Y-21022182D01*
X157448289Y-20867574D01*
X157448288Y-20867574D01*
X157448287Y-20867573D01*
X157112364Y-20643116D01*
X156826684Y-20357436D01*
X156602227Y-20021513D01*
X156576961Y-19960515D01*
X156447618Y-19648254D01*
X156368800Y-19252007D01*
X156368800Y-18847993D01*
X156447618Y-18451746D01*
X156602226Y-18078489D01*
X156628352Y-18039389D01*
X156826684Y-17742564D01*
X157112364Y-17456884D01*
X157448287Y-17232427D01*
X157448289Y-17232426D01*
X157821546Y-17077818D01*
X158217793Y-16999000D01*
X158621807Y-16999000D01*
X159018054Y-17077818D01*
X159018054Y-17077818D01*
G37*
G36*
X139815654Y-17077818D02*
G01*
X140188911Y-17232426D01*
X140188913Y-17232427D01*
X140524836Y-17456884D01*
X140810516Y-17742564D01*
X141008849Y-18039389D01*
X141034974Y-18078489D01*
X141189582Y-18451746D01*
X141268400Y-18847993D01*
X141268400Y-19252007D01*
X141189582Y-19648254D01*
X141060239Y-19960515D01*
X141034973Y-20021513D01*
X140810516Y-20357436D01*
X140524836Y-20643116D01*
X140188913Y-20867573D01*
X140188912Y-20867574D01*
X140188911Y-20867574D01*
X139815654Y-21022182D01*
X139419407Y-21101000D01*
X139015393Y-21101000D01*
X138619146Y-21022182D01*
X138245889Y-20867574D01*
X138245888Y-20867574D01*
X138245887Y-20867573D01*
X137909964Y-20643116D01*
X137624284Y-20357436D01*
X137399827Y-20021513D01*
X137374561Y-19960515D01*
X137245218Y-19648254D01*
X137166400Y-19252007D01*
X137166400Y-18847993D01*
X137245218Y-18451746D01*
X137399826Y-18078489D01*
X137425952Y-18039389D01*
X137624284Y-17742564D01*
X137909964Y-17456884D01*
X138245887Y-17232427D01*
X138245889Y-17232426D01*
X138619146Y-17077818D01*
X139015393Y-16999000D01*
X139419407Y-16999000D01*
X139815654Y-17077818D01*
X139815654Y-17077818D01*
G37*
G36*
X120613254Y-17077818D02*
G01*
X120986511Y-17232426D01*
X120986513Y-17232427D01*
X121322436Y-17456884D01*
X121608116Y-17742564D01*
X121806449Y-18039389D01*
X121832574Y-18078489D01*
X121987182Y-18451746D01*
X122066000Y-18847993D01*
X122066000Y-19252007D01*
X121987182Y-19648254D01*
X121857839Y-19960515D01*
X121832573Y-20021513D01*
X121608116Y-20357436D01*
X121322436Y-20643116D01*
X120986513Y-20867573D01*
X120986512Y-20867574D01*
X120986511Y-20867574D01*
X120613254Y-21022182D01*
X120217007Y-21101000D01*
X119812993Y-21101000D01*
X119416746Y-21022182D01*
X119043489Y-20867574D01*
X119043488Y-20867574D01*
X119043487Y-20867573D01*
X118707564Y-20643116D01*
X118421884Y-20357436D01*
X118197427Y-20021513D01*
X118172161Y-19960515D01*
X118042818Y-19648254D01*
X117964000Y-19252007D01*
X117964000Y-18847993D01*
X118042818Y-18451746D01*
X118197426Y-18078489D01*
X118223552Y-18039389D01*
X118421884Y-17742564D01*
X118707564Y-17456884D01*
X119043487Y-17232427D01*
X119043489Y-17232426D01*
X119416746Y-17077818D01*
X119812993Y-16999000D01*
X120217007Y-16999000D01*
X120613254Y-17077818D01*
X120613254Y-17077818D01*
G37*
G36*
X82208454Y-17077818D02*
G01*
X82581711Y-17232426D01*
X82581713Y-17232427D01*
X82917636Y-17456884D01*
X83203316Y-17742564D01*
X83401649Y-18039389D01*
X83427774Y-18078489D01*
X83582382Y-18451746D01*
X83661200Y-18847993D01*
X83661200Y-19252007D01*
X83582382Y-19648254D01*
X83453039Y-19960515D01*
X83427773Y-20021513D01*
X83203316Y-20357436D01*
X82917636Y-20643116D01*
X82581713Y-20867573D01*
X82581712Y-20867574D01*
X82581711Y-20867574D01*
X82208454Y-21022182D01*
X81812207Y-21101000D01*
X81408193Y-21101000D01*
X81011946Y-21022182D01*
X80638689Y-20867574D01*
X80638688Y-20867574D01*
X80638687Y-20867573D01*
X80302764Y-20643116D01*
X80017084Y-20357436D01*
X79792627Y-20021513D01*
X79767361Y-19960515D01*
X79638018Y-19648254D01*
X79559200Y-19252007D01*
X79559200Y-18847993D01*
X79638018Y-18451746D01*
X79792626Y-18078489D01*
X79818752Y-18039389D01*
X80017084Y-17742564D01*
X80302764Y-17456884D01*
X80638687Y-17232427D01*
X80638689Y-17232426D01*
X81011946Y-17077818D01*
X81408193Y-16999000D01*
X81812207Y-16999000D01*
X82208454Y-17077818D01*
X82208454Y-17077818D01*
G37*
G36*
X63006054Y-17077818D02*
G01*
X63379311Y-17232426D01*
X63379313Y-17232427D01*
X63715236Y-17456884D01*
X64000916Y-17742564D01*
X64199249Y-18039389D01*
X64225374Y-18078489D01*
X64379982Y-18451746D01*
X64458800Y-18847993D01*
X64458800Y-19252007D01*
X64379982Y-19648254D01*
X64250639Y-19960515D01*
X64225373Y-20021513D01*
X64000916Y-20357436D01*
X63715236Y-20643116D01*
X63379313Y-20867573D01*
X63379312Y-20867574D01*
X63379311Y-20867574D01*
X63006054Y-21022182D01*
X62609807Y-21101000D01*
X62205793Y-21101000D01*
X61809546Y-21022182D01*
X61436289Y-20867574D01*
X61436288Y-20867574D01*
X61436287Y-20867573D01*
X61100364Y-20643116D01*
X60814684Y-20357436D01*
X60590227Y-20021513D01*
X60564961Y-19960515D01*
X60435618Y-19648254D01*
X60356800Y-19252007D01*
X60356800Y-18847993D01*
X60435618Y-18451746D01*
X60590226Y-18078489D01*
X60616352Y-18039389D01*
X60814684Y-17742564D01*
X61100364Y-17456884D01*
X61436287Y-17232427D01*
X61436289Y-17232426D01*
X61809546Y-17077818D01*
X62205793Y-16999000D01*
X62609807Y-16999000D01*
X63006054Y-17077818D01*
X63006054Y-17077818D01*
G37*
G36*
X43803654Y-17077818D02*
G01*
X44176911Y-17232426D01*
X44176913Y-17232427D01*
X44512836Y-17456884D01*
X44798516Y-17742564D01*
X44996849Y-18039389D01*
X45022974Y-18078489D01*
X45177582Y-18451746D01*
X45256400Y-18847993D01*
X45256400Y-19252007D01*
X45177582Y-19648254D01*
X45048239Y-19960515D01*
X45022973Y-20021513D01*
X44798516Y-20357436D01*
X44512836Y-20643116D01*
X44176913Y-20867573D01*
X44176912Y-20867574D01*
X44176911Y-20867574D01*
X43803654Y-21022182D01*
X43407407Y-21101000D01*
X43003393Y-21101000D01*
X42607146Y-21022182D01*
X42233889Y-20867574D01*
X42233888Y-20867574D01*
X42233887Y-20867573D01*
X41897964Y-20643116D01*
X41612284Y-20357436D01*
X41387827Y-20021513D01*
X41362561Y-19960515D01*
X41233218Y-19648254D01*
X41154400Y-19252007D01*
X41154400Y-18847993D01*
X41233218Y-18451746D01*
X41387826Y-18078489D01*
X41413952Y-18039389D01*
X41612284Y-17742564D01*
X41897964Y-17456884D01*
X42233887Y-17232427D01*
X42233889Y-17232426D01*
X42607146Y-17077818D01*
X43003393Y-16999000D01*
X43407407Y-16999000D01*
X43803654Y-17077818D01*
X43803654Y-17077818D01*
G37*
G36*
X97869164Y-18039389D02*
G01*
X98060433Y-18118615D01*
X98060435Y-18118616D01*
X98232573Y-18233635D01*
X98378965Y-18380027D01*
X98442856Y-18475646D01*
X98493985Y-18552167D01*
X98573211Y-18743436D01*
X98613600Y-18946484D01*
X98613600Y-19153516D01*
X98573211Y-19356564D01*
X98523415Y-19476782D01*
X98493984Y-19547835D01*
X98378965Y-19719973D01*
X98232573Y-19866365D01*
X98060435Y-19981384D01*
X98060434Y-19981385D01*
X98060433Y-19981385D01*
X97869164Y-20060611D01*
X97666116Y-20101000D01*
X97459084Y-20101000D01*
X97256036Y-20060611D01*
X97064767Y-19981385D01*
X97064766Y-19981385D01*
X97064765Y-19981384D01*
X96892627Y-19866365D01*
X96746235Y-19719973D01*
X96631216Y-19547835D01*
X96601785Y-19476782D01*
X96551989Y-19356564D01*
X96511600Y-19153516D01*
X96511600Y-18946484D01*
X96551989Y-18743436D01*
X96631215Y-18552167D01*
X96682345Y-18475646D01*
X96746235Y-18380027D01*
X96892627Y-18233635D01*
X97064765Y-18118616D01*
X97064767Y-18118615D01*
X97256036Y-18039389D01*
X97459084Y-17999000D01*
X97666116Y-17999000D01*
X97869164Y-18039389D01*
X97869164Y-18039389D01*
G37*
G36*
X104369164Y-18039389D02*
G01*
X104560433Y-18118615D01*
X104560435Y-18118616D01*
X104732573Y-18233635D01*
X104878965Y-18380027D01*
X104942856Y-18475646D01*
X104993985Y-18552167D01*
X105073211Y-18743436D01*
X105113600Y-18946484D01*
X105113600Y-19153516D01*
X105073211Y-19356564D01*
X105023415Y-19476782D01*
X104993984Y-19547835D01*
X104878965Y-19719973D01*
X104732573Y-19866365D01*
X104560435Y-19981384D01*
X104560434Y-19981385D01*
X104560433Y-19981385D01*
X104369164Y-20060611D01*
X104166116Y-20101000D01*
X103959084Y-20101000D01*
X103756036Y-20060611D01*
X103564767Y-19981385D01*
X103564766Y-19981385D01*
X103564765Y-19981384D01*
X103392627Y-19866365D01*
X103246235Y-19719973D01*
X103131216Y-19547835D01*
X103101785Y-19476782D01*
X103051989Y-19356564D01*
X103011600Y-19153516D01*
X103011600Y-18946484D01*
X103051989Y-18743436D01*
X103131215Y-18552167D01*
X103182345Y-18475646D01*
X103246235Y-18380027D01*
X103392627Y-18233635D01*
X103564765Y-18118616D01*
X103564767Y-18118615D01*
X103756036Y-18039389D01*
X103959084Y-17999000D01*
X104166116Y-17999000D01*
X104369164Y-18039389D01*
X104369164Y-18039389D01*
G37*
G36*
X48997381Y-18087468D02*
G01*
X49179551Y-18162926D01*
X49343500Y-18272473D01*
X49482927Y-18411900D01*
X49592474Y-18575849D01*
X49667932Y-18758019D01*
X49706400Y-18951410D01*
X49706400Y-19148590D01*
X49667932Y-19341981D01*
X49592474Y-19524151D01*
X49482927Y-19688100D01*
X49343500Y-19827527D01*
X49179551Y-19937074D01*
X48997381Y-20012532D01*
X48803991Y-20051000D01*
X48606809Y-20051000D01*
X48413419Y-20012532D01*
X48287840Y-19960515D01*
X48264391Y-19953402D01*
X48240005Y-19951000D01*
X48196658Y-19951000D01*
X48171888Y-19946073D01*
X48022588Y-19916376D01*
X47858616Y-19848456D01*
X47711046Y-19749853D01*
X47585547Y-19624354D01*
X47486944Y-19476784D01*
X47419024Y-19312812D01*
X47384400Y-19138741D01*
X47384400Y-18961259D01*
X47419024Y-18787188D01*
X47486944Y-18623216D01*
X47585547Y-18475646D01*
X47711046Y-18350147D01*
X47858616Y-18251544D01*
X48022588Y-18183624D01*
X48171888Y-18153927D01*
X48196658Y-18149000D01*
X48240005Y-18149000D01*
X48264391Y-18146598D01*
X48287840Y-18139485D01*
X48338222Y-18118616D01*
X48413419Y-18087468D01*
X48510115Y-18068234D01*
X48606809Y-18049000D01*
X48803991Y-18049000D01*
X48997381Y-18087468D01*
X48997381Y-18087468D01*
G37*
G36*
X57199781Y-18087468D02*
G01*
X57274978Y-18118616D01*
X57325360Y-18139485D01*
X57348809Y-18146598D01*
X57373195Y-18149000D01*
X57416542Y-18149000D01*
X57441312Y-18153927D01*
X57590612Y-18183624D01*
X57754584Y-18251544D01*
X57902154Y-18350147D01*
X58027653Y-18475646D01*
X58126256Y-18623216D01*
X58194176Y-18787188D01*
X58228800Y-18961259D01*
X58228800Y-19138741D01*
X58194176Y-19312812D01*
X58126256Y-19476784D01*
X58027653Y-19624354D01*
X57902154Y-19749853D01*
X57754584Y-19848456D01*
X57590612Y-19916376D01*
X57441312Y-19946073D01*
X57416542Y-19951000D01*
X57373195Y-19951000D01*
X57348809Y-19953402D01*
X57325360Y-19960515D01*
X57199781Y-20012532D01*
X57006391Y-20051000D01*
X56809209Y-20051000D01*
X56615819Y-20012532D01*
X56433649Y-19937074D01*
X56269700Y-19827527D01*
X56130273Y-19688100D01*
X56020726Y-19524151D01*
X55945268Y-19341981D01*
X55906800Y-19148590D01*
X55906800Y-18951410D01*
X55945268Y-18758019D01*
X56020726Y-18575849D01*
X56130273Y-18411900D01*
X56269700Y-18272473D01*
X56433649Y-18162926D01*
X56615819Y-18087468D01*
X56712515Y-18068234D01*
X56809209Y-18049000D01*
X57006391Y-18049000D01*
X57199781Y-18087468D01*
X57199781Y-18087468D01*
G37*
G36*
X68199781Y-18087468D02*
G01*
X68381951Y-18162926D01*
X68545900Y-18272473D01*
X68685327Y-18411900D01*
X68794874Y-18575849D01*
X68870332Y-18758019D01*
X68908800Y-18951410D01*
X68908800Y-19148590D01*
X68870332Y-19341981D01*
X68794874Y-19524151D01*
X68685327Y-19688100D01*
X68545900Y-19827527D01*
X68381951Y-19937074D01*
X68199781Y-20012532D01*
X68006391Y-20051000D01*
X67809209Y-20051000D01*
X67615819Y-20012532D01*
X67490240Y-19960515D01*
X67466791Y-19953402D01*
X67442405Y-19951000D01*
X67399058Y-19951000D01*
X67374288Y-19946073D01*
X67224988Y-19916376D01*
X67061016Y-19848456D01*
X66913446Y-19749853D01*
X66787947Y-19624354D01*
X66689344Y-19476784D01*
X66621424Y-19312812D01*
X66586800Y-19138741D01*
X66586800Y-18961259D01*
X66621424Y-18787188D01*
X66689344Y-18623216D01*
X66787947Y-18475646D01*
X66913446Y-18350147D01*
X67061016Y-18251544D01*
X67224988Y-18183624D01*
X67374288Y-18153927D01*
X67399058Y-18149000D01*
X67442405Y-18149000D01*
X67466791Y-18146598D01*
X67490240Y-18139485D01*
X67540622Y-18118616D01*
X67615819Y-18087468D01*
X67712515Y-18068234D01*
X67809209Y-18049000D01*
X68006391Y-18049000D01*
X68199781Y-18087468D01*
X68199781Y-18087468D01*
G37*
G36*
X76402181Y-18087468D02*
G01*
X76477378Y-18118616D01*
X76527760Y-18139485D01*
X76551209Y-18146598D01*
X76575595Y-18149000D01*
X76618942Y-18149000D01*
X76643712Y-18153927D01*
X76793012Y-18183624D01*
X76956984Y-18251544D01*
X77104554Y-18350147D01*
X77230053Y-18475646D01*
X77328656Y-18623216D01*
X77396576Y-18787188D01*
X77431200Y-18961259D01*
X77431200Y-19138741D01*
X77396576Y-19312812D01*
X77328656Y-19476784D01*
X77230053Y-19624354D01*
X77104554Y-19749853D01*
X76956984Y-19848456D01*
X76793012Y-19916376D01*
X76643712Y-19946073D01*
X76618942Y-19951000D01*
X76575595Y-19951000D01*
X76551209Y-19953402D01*
X76527760Y-19960515D01*
X76402181Y-20012532D01*
X76208791Y-20051000D01*
X76011609Y-20051000D01*
X75818219Y-20012532D01*
X75636049Y-19937074D01*
X75472100Y-19827527D01*
X75332673Y-19688100D01*
X75223126Y-19524151D01*
X75147668Y-19341981D01*
X75109200Y-19148590D01*
X75109200Y-18951410D01*
X75147668Y-18758019D01*
X75223126Y-18575849D01*
X75332673Y-18411900D01*
X75472100Y-18272473D01*
X75636049Y-18162926D01*
X75818219Y-18087468D01*
X75914915Y-18068234D01*
X76011609Y-18049000D01*
X76208791Y-18049000D01*
X76402181Y-18087468D01*
X76402181Y-18087468D01*
G37*
G36*
X125806981Y-18087468D02*
G01*
X125989151Y-18162926D01*
X126153100Y-18272473D01*
X126292527Y-18411900D01*
X126402074Y-18575849D01*
X126477532Y-18758019D01*
X126516000Y-18951410D01*
X126516000Y-19148590D01*
X126477532Y-19341981D01*
X126402074Y-19524151D01*
X126292527Y-19688100D01*
X126153100Y-19827527D01*
X125989151Y-19937074D01*
X125806981Y-20012532D01*
X125613591Y-20051000D01*
X125416409Y-20051000D01*
X125223019Y-20012532D01*
X125097440Y-19960515D01*
X125073991Y-19953402D01*
X125049605Y-19951000D01*
X125006258Y-19951000D01*
X124981488Y-19946073D01*
X124832188Y-19916376D01*
X124668216Y-19848456D01*
X124520646Y-19749853D01*
X124395147Y-19624354D01*
X124296544Y-19476784D01*
X124228624Y-19312812D01*
X124194000Y-19138741D01*
X124194000Y-18961259D01*
X124228624Y-18787188D01*
X124296544Y-18623216D01*
X124395147Y-18475646D01*
X124520646Y-18350147D01*
X124668216Y-18251544D01*
X124832188Y-18183624D01*
X124981488Y-18153927D01*
X125006258Y-18149000D01*
X125049605Y-18149000D01*
X125073991Y-18146598D01*
X125097440Y-18139485D01*
X125147822Y-18118616D01*
X125223019Y-18087468D01*
X125319715Y-18068234D01*
X125416409Y-18049000D01*
X125613591Y-18049000D01*
X125806981Y-18087468D01*
X125806981Y-18087468D01*
G37*
G36*
X114806981Y-18087468D02*
G01*
X114882178Y-18118616D01*
X114932560Y-18139485D01*
X114956009Y-18146598D01*
X114980395Y-18149000D01*
X115023742Y-18149000D01*
X115048512Y-18153927D01*
X115197812Y-18183624D01*
X115361784Y-18251544D01*
X115509354Y-18350147D01*
X115634853Y-18475646D01*
X115733456Y-18623216D01*
X115801376Y-18787188D01*
X115836000Y-18961259D01*
X115836000Y-19138741D01*
X115801376Y-19312812D01*
X115733456Y-19476784D01*
X115634853Y-19624354D01*
X115509354Y-19749853D01*
X115361784Y-19848456D01*
X115197812Y-19916376D01*
X115048512Y-19946073D01*
X115023742Y-19951000D01*
X114980395Y-19951000D01*
X114956009Y-19953402D01*
X114932560Y-19960515D01*
X114806981Y-20012532D01*
X114613591Y-20051000D01*
X114416409Y-20051000D01*
X114223019Y-20012532D01*
X114040849Y-19937074D01*
X113876900Y-19827527D01*
X113737473Y-19688100D01*
X113627926Y-19524151D01*
X113552468Y-19341981D01*
X113514000Y-19148590D01*
X113514000Y-18951410D01*
X113552468Y-18758019D01*
X113627926Y-18575849D01*
X113737473Y-18411900D01*
X113876900Y-18272473D01*
X114040849Y-18162926D01*
X114223019Y-18087468D01*
X114319715Y-18068234D01*
X114416409Y-18049000D01*
X114613591Y-18049000D01*
X114806981Y-18087468D01*
X114806981Y-18087468D01*
G37*
G36*
X37997381Y-18087468D02*
G01*
X38072578Y-18118616D01*
X38122960Y-18139485D01*
X38146409Y-18146598D01*
X38170795Y-18149000D01*
X38214142Y-18149000D01*
X38238912Y-18153927D01*
X38388212Y-18183624D01*
X38552184Y-18251544D01*
X38699754Y-18350147D01*
X38825253Y-18475646D01*
X38923856Y-18623216D01*
X38991776Y-18787188D01*
X39026400Y-18961259D01*
X39026400Y-19138741D01*
X38991776Y-19312812D01*
X38923856Y-19476784D01*
X38825253Y-19624354D01*
X38699754Y-19749853D01*
X38552184Y-19848456D01*
X38388212Y-19916376D01*
X38238912Y-19946073D01*
X38214142Y-19951000D01*
X38170795Y-19951000D01*
X38146409Y-19953402D01*
X38122960Y-19960515D01*
X37997381Y-20012532D01*
X37803991Y-20051000D01*
X37606809Y-20051000D01*
X37413419Y-20012532D01*
X37231249Y-19937074D01*
X37067300Y-19827527D01*
X36927873Y-19688100D01*
X36818326Y-19524151D01*
X36742868Y-19341981D01*
X36704400Y-19148590D01*
X36704400Y-18951410D01*
X36742868Y-18758019D01*
X36818326Y-18575849D01*
X36927873Y-18411900D01*
X37067300Y-18272473D01*
X37231249Y-18162926D01*
X37413419Y-18087468D01*
X37606809Y-18049000D01*
X37803991Y-18049000D01*
X37997381Y-18087468D01*
X37997381Y-18087468D01*
G37*
G36*
X134009381Y-18087468D02*
G01*
X134084578Y-18118616D01*
X134134960Y-18139485D01*
X134158409Y-18146598D01*
X134182795Y-18149000D01*
X134226142Y-18149000D01*
X134250912Y-18153927D01*
X134400212Y-18183624D01*
X134564184Y-18251544D01*
X134711754Y-18350147D01*
X134837253Y-18475646D01*
X134935856Y-18623216D01*
X135003776Y-18787188D01*
X135038400Y-18961259D01*
X135038400Y-19138741D01*
X135003776Y-19312812D01*
X134935856Y-19476784D01*
X134837253Y-19624354D01*
X134711754Y-19749853D01*
X134564184Y-19848456D01*
X134400212Y-19916376D01*
X134250912Y-19946073D01*
X134226142Y-19951000D01*
X134182795Y-19951000D01*
X134158409Y-19953402D01*
X134134960Y-19960515D01*
X134009381Y-20012532D01*
X133815991Y-20051000D01*
X133618809Y-20051000D01*
X133425419Y-20012532D01*
X133243249Y-19937074D01*
X133079300Y-19827527D01*
X132939873Y-19688100D01*
X132830326Y-19524151D01*
X132754868Y-19341981D01*
X132716400Y-19148590D01*
X132716400Y-18951410D01*
X132754868Y-18758019D01*
X132830326Y-18575849D01*
X132939873Y-18411900D01*
X133079300Y-18272473D01*
X133243249Y-18162926D01*
X133425419Y-18087468D01*
X133522115Y-18068234D01*
X133618809Y-18049000D01*
X133815991Y-18049000D01*
X134009381Y-18087468D01*
X134009381Y-18087468D01*
G37*
G36*
X145009381Y-18087468D02*
G01*
X145191551Y-18162926D01*
X145355500Y-18272473D01*
X145494927Y-18411900D01*
X145604474Y-18575849D01*
X145679932Y-18758019D01*
X145718400Y-18951410D01*
X145718400Y-19148590D01*
X145679932Y-19341981D01*
X145604474Y-19524151D01*
X145494927Y-19688100D01*
X145355500Y-19827527D01*
X145191551Y-19937074D01*
X145009381Y-20012532D01*
X144815991Y-20051000D01*
X144618809Y-20051000D01*
X144425419Y-20012532D01*
X144299840Y-19960515D01*
X144276391Y-19953402D01*
X144252005Y-19951000D01*
X144208658Y-19951000D01*
X144183888Y-19946073D01*
X144034588Y-19916376D01*
X143870616Y-19848456D01*
X143723046Y-19749853D01*
X143597547Y-19624354D01*
X143498944Y-19476784D01*
X143431024Y-19312812D01*
X143396400Y-19138741D01*
X143396400Y-18961259D01*
X143431024Y-18787188D01*
X143498944Y-18623216D01*
X143597547Y-18475646D01*
X143723046Y-18350147D01*
X143870616Y-18251544D01*
X144034588Y-18183624D01*
X144183888Y-18153927D01*
X144208658Y-18149000D01*
X144252005Y-18149000D01*
X144276391Y-18146598D01*
X144299840Y-18139485D01*
X144350222Y-18118616D01*
X144425419Y-18087468D01*
X144522115Y-18068234D01*
X144618809Y-18049000D01*
X144815991Y-18049000D01*
X145009381Y-18087468D01*
X145009381Y-18087468D01*
G37*
G36*
X153211781Y-18087468D02*
G01*
X153286978Y-18118616D01*
X153337360Y-18139485D01*
X153360809Y-18146598D01*
X153385195Y-18149000D01*
X153428542Y-18149000D01*
X153453312Y-18153927D01*
X153602612Y-18183624D01*
X153766584Y-18251544D01*
X153914154Y-18350147D01*
X154039653Y-18475646D01*
X154138256Y-18623216D01*
X154206176Y-18787188D01*
X154240800Y-18961259D01*
X154240800Y-19138741D01*
X154206176Y-19312812D01*
X154138256Y-19476784D01*
X154039653Y-19624354D01*
X153914154Y-19749853D01*
X153766584Y-19848456D01*
X153602612Y-19916376D01*
X153453312Y-19946073D01*
X153428542Y-19951000D01*
X153385195Y-19951000D01*
X153360809Y-19953402D01*
X153337360Y-19960515D01*
X153211781Y-20012532D01*
X153018391Y-20051000D01*
X152821209Y-20051000D01*
X152627819Y-20012532D01*
X152445649Y-19937074D01*
X152281700Y-19827527D01*
X152142273Y-19688100D01*
X152032726Y-19524151D01*
X151957268Y-19341981D01*
X151918800Y-19148590D01*
X151918800Y-18951410D01*
X151957268Y-18758019D01*
X152032726Y-18575849D01*
X152142273Y-18411900D01*
X152281700Y-18272473D01*
X152445649Y-18162926D01*
X152627819Y-18087468D01*
X152724515Y-18068234D01*
X152821209Y-18049000D01*
X153018391Y-18049000D01*
X153211781Y-18087468D01*
X153211781Y-18087468D01*
G37*
G36*
X164211781Y-18087468D02*
G01*
X164393951Y-18162926D01*
X164557900Y-18272473D01*
X164697327Y-18411900D01*
X164806874Y-18575849D01*
X164882332Y-18758019D01*
X164920800Y-18951410D01*
X164920800Y-19148590D01*
X164882332Y-19341981D01*
X164806874Y-19524151D01*
X164697327Y-19688100D01*
X164557900Y-19827527D01*
X164393951Y-19937074D01*
X164211781Y-20012532D01*
X164018391Y-20051000D01*
X163821209Y-20051000D01*
X163627819Y-20012532D01*
X163502240Y-19960515D01*
X163478791Y-19953402D01*
X163454405Y-19951000D01*
X163411058Y-19951000D01*
X163386288Y-19946073D01*
X163236988Y-19916376D01*
X163073016Y-19848456D01*
X162925446Y-19749853D01*
X162799947Y-19624354D01*
X162701344Y-19476784D01*
X162633424Y-19312812D01*
X162598800Y-19138741D01*
X162598800Y-18961259D01*
X162633424Y-18787188D01*
X162701344Y-18623216D01*
X162799947Y-18475646D01*
X162925446Y-18350147D01*
X163073016Y-18251544D01*
X163236988Y-18183624D01*
X163386288Y-18153927D01*
X163411058Y-18149000D01*
X163454405Y-18149000D01*
X163478791Y-18146598D01*
X163502240Y-18139485D01*
X163552622Y-18118616D01*
X163627819Y-18087468D01*
X163724515Y-18068234D01*
X163821209Y-18049000D01*
X164018391Y-18049000D01*
X164211781Y-18087468D01*
X164211781Y-18087468D01*
G37*
G36*
X87402181Y-18087468D02*
G01*
X87584351Y-18162926D01*
X87748300Y-18272473D01*
X87887727Y-18411900D01*
X87997274Y-18575849D01*
X88072732Y-18758019D01*
X88111200Y-18951410D01*
X88111200Y-19148590D01*
X88072732Y-19341981D01*
X87997274Y-19524151D01*
X87887727Y-19688100D01*
X87748300Y-19827527D01*
X87584351Y-19937074D01*
X87402181Y-20012532D01*
X87208791Y-20051000D01*
X87011609Y-20051000D01*
X86818219Y-20012532D01*
X86692640Y-19960515D01*
X86669191Y-19953402D01*
X86644805Y-19951000D01*
X86601458Y-19951000D01*
X86576688Y-19946073D01*
X86427388Y-19916376D01*
X86263416Y-19848456D01*
X86115846Y-19749853D01*
X85990347Y-19624354D01*
X85891744Y-19476784D01*
X85823824Y-19312812D01*
X85789200Y-19138741D01*
X85789200Y-18961259D01*
X85823824Y-18787188D01*
X85891744Y-18623216D01*
X85990347Y-18475646D01*
X86115846Y-18350147D01*
X86263416Y-18251544D01*
X86427388Y-18183624D01*
X86576688Y-18153927D01*
X86601458Y-18149000D01*
X86644805Y-18149000D01*
X86669191Y-18146598D01*
X86692640Y-18139485D01*
X86743022Y-18118616D01*
X86818219Y-18087468D01*
X86914915Y-18068234D01*
X87011609Y-18049000D01*
X87208791Y-18049000D01*
X87402181Y-18087468D01*
X87402181Y-18087468D01*
G37*
G36*
X93879083Y-12078335D02*
G01*
X94047840Y-12148236D01*
X94199718Y-12249718D01*
X94328882Y-12378882D01*
X94430364Y-12530760D01*
X94500265Y-12699517D01*
X94535900Y-12878668D01*
X94535900Y-13061332D01*
X94500265Y-13240483D01*
X94430364Y-13409240D01*
X94328882Y-13561118D01*
X94199718Y-13690282D01*
X94047840Y-13791764D01*
X93879083Y-13861665D01*
X93699932Y-13897300D01*
X93517268Y-13897300D01*
X93338117Y-13861665D01*
X93169360Y-13791764D01*
X93017482Y-13690282D01*
X92888318Y-13561118D01*
X92786836Y-13409240D01*
X92716935Y-13240483D01*
X92681300Y-13061332D01*
X92681300Y-12878668D01*
X92716935Y-12699517D01*
X92786836Y-12530760D01*
X92888318Y-12378882D01*
X93017482Y-12249718D01*
X93169360Y-12148236D01*
X93338117Y-12078335D01*
X93517268Y-12042700D01*
X93699932Y-12042700D01*
X93879083Y-12078335D01*
X93879083Y-12078335D01*
G37*
G36*
X108661883Y-12078335D02*
G01*
X108830640Y-12148236D01*
X108982518Y-12249718D01*
X109111682Y-12378882D01*
X109213164Y-12530760D01*
X109283065Y-12699517D01*
X109318700Y-12878668D01*
X109318700Y-13061332D01*
X109283065Y-13240483D01*
X109213164Y-13409240D01*
X109111682Y-13561118D01*
X108982518Y-13690282D01*
X108830640Y-13791764D01*
X108661883Y-13861665D01*
X108482732Y-13897300D01*
X108300068Y-13897300D01*
X108120917Y-13861665D01*
X107952160Y-13791764D01*
X107800282Y-13690282D01*
X107671118Y-13561118D01*
X107569636Y-13409240D01*
X107499735Y-13240483D01*
X107464100Y-13061332D01*
X107464100Y-12878668D01*
X107499735Y-12699517D01*
X107569636Y-12530760D01*
X107671118Y-12378882D01*
X107800282Y-12249718D01*
X107952160Y-12148236D01*
X108120917Y-12078335D01*
X108300068Y-12042700D01*
X108482732Y-12042700D01*
X108661883Y-12078335D01*
X108661883Y-12078335D01*
G37*
G36*
X109119083Y-9538335D02*
G01*
X109287840Y-9608236D01*
X109439718Y-9709718D01*
X109568882Y-9838882D01*
X109670364Y-9990760D01*
X109740265Y-10159517D01*
X109775900Y-10338668D01*
X109775900Y-10521332D01*
X109740265Y-10700483D01*
X109670364Y-10869240D01*
X109568882Y-11021118D01*
X109439718Y-11150282D01*
X109287840Y-11251764D01*
X109119083Y-11321665D01*
X108939932Y-11357300D01*
X108757268Y-11357300D01*
X108578117Y-11321665D01*
X108409360Y-11251764D01*
X108257482Y-11150282D01*
X108128318Y-11021118D01*
X108026836Y-10869240D01*
X107956935Y-10700483D01*
X107921300Y-10521332D01*
X107921300Y-10338668D01*
X107956935Y-10159517D01*
X108026836Y-9990760D01*
X108128318Y-9838882D01*
X108257482Y-9709718D01*
X108409360Y-9608236D01*
X108578117Y-9538335D01*
X108757268Y-9502700D01*
X108939932Y-9502700D01*
X109119083Y-9538335D01*
X109119083Y-9538335D01*
G37*
G36*
X93421883Y-9538335D02*
G01*
X93590640Y-9608236D01*
X93742518Y-9709718D01*
X93871682Y-9838882D01*
X93973164Y-9990760D01*
X94043065Y-10159517D01*
X94078700Y-10338668D01*
X94078700Y-10521332D01*
X94043065Y-10700483D01*
X93973164Y-10869240D01*
X93871682Y-11021118D01*
X93742518Y-11150282D01*
X93590640Y-11251764D01*
X93421883Y-11321665D01*
X93242732Y-11357300D01*
X93060068Y-11357300D01*
X92880917Y-11321665D01*
X92712160Y-11251764D01*
X92560282Y-11150282D01*
X92431118Y-11021118D01*
X92329636Y-10869240D01*
X92259735Y-10700483D01*
X92224100Y-10521332D01*
X92224100Y-10338668D01*
X92259735Y-10159517D01*
X92329636Y-9990760D01*
X92431118Y-9838882D01*
X92560282Y-9709718D01*
X92712160Y-9608236D01*
X92880917Y-9538335D01*
X93060068Y-9502700D01*
X93242732Y-9502700D01*
X93421883Y-9538335D01*
X93421883Y-9538335D01*
G37*
G36*
X93879083Y-6998335D02*
G01*
X94047840Y-7068236D01*
X94199718Y-7169718D01*
X94328882Y-7298882D01*
X94430364Y-7450760D01*
X94500265Y-7619517D01*
X94535900Y-7798668D01*
X94535900Y-7981332D01*
X94500265Y-8160483D01*
X94430364Y-8329240D01*
X94328882Y-8481118D01*
X94199718Y-8610282D01*
X94047840Y-8711764D01*
X93879083Y-8781665D01*
X93699932Y-8817300D01*
X93517268Y-8817300D01*
X93338117Y-8781665D01*
X93169360Y-8711764D01*
X93017482Y-8610282D01*
X92888318Y-8481118D01*
X92786836Y-8329240D01*
X92716935Y-8160483D01*
X92681300Y-7981332D01*
X92681300Y-7798668D01*
X92716935Y-7619517D01*
X92786836Y-7450760D01*
X92888318Y-7298882D01*
X93017482Y-7169718D01*
X93169360Y-7068236D01*
X93338117Y-6998335D01*
X93517268Y-6962700D01*
X93699932Y-6962700D01*
X93879083Y-6998335D01*
X93879083Y-6998335D01*
G37*
G36*
X108661883Y-6998335D02*
G01*
X108830640Y-7068236D01*
X108982518Y-7169718D01*
X109111682Y-7298882D01*
X109213164Y-7450760D01*
X109283065Y-7619517D01*
X109318700Y-7798668D01*
X109318700Y-7981332D01*
X109283065Y-8160483D01*
X109213164Y-8329240D01*
X109111682Y-8481118D01*
X108982518Y-8610282D01*
X108830640Y-8711764D01*
X108661883Y-8781665D01*
X108482732Y-8817300D01*
X108300068Y-8817300D01*
X108120917Y-8781665D01*
X107952160Y-8711764D01*
X107800282Y-8610282D01*
X107671118Y-8481118D01*
X107569636Y-8329240D01*
X107499735Y-8160483D01*
X107464100Y-7981332D01*
X107464100Y-7798668D01*
X107499735Y-7619517D01*
X107569636Y-7450760D01*
X107671118Y-7298882D01*
X107800282Y-7169718D01*
X107952160Y-7068236D01*
X108120917Y-6998335D01*
X108300068Y-6962700D01*
X108482732Y-6962700D01*
X108661883Y-6998335D01*
X108661883Y-6998335D01*
G37*
G36*
X58848228Y-6181703D02*
G01*
X59003100Y-6245853D01*
X59142481Y-6338985D01*
X59261015Y-6457519D01*
X59354147Y-6596900D01*
X59418297Y-6751772D01*
X59451000Y-6916184D01*
X59451000Y-7083816D01*
X59418297Y-7248228D01*
X59354147Y-7403100D01*
X59261015Y-7542481D01*
X59142481Y-7661015D01*
X59003100Y-7754147D01*
X58848228Y-7818297D01*
X58683816Y-7851000D01*
X58516184Y-7851000D01*
X58351772Y-7818297D01*
X58196900Y-7754147D01*
X58057519Y-7661015D01*
X57938985Y-7542481D01*
X57845853Y-7403100D01*
X57781703Y-7248228D01*
X57749000Y-7083816D01*
X57749000Y-6916184D01*
X57781703Y-6751772D01*
X57845853Y-6596900D01*
X57938985Y-6457519D01*
X58057519Y-6338985D01*
X58196900Y-6245853D01*
X58351772Y-6181703D01*
X58516184Y-6149000D01*
X58683816Y-6149000D01*
X58848228Y-6181703D01*
X58848228Y-6181703D01*
G37*
G36*
X67251000Y-7851000D02*
G01*
X65549000Y-7851000D01*
X65549000Y-6149000D01*
X67251000Y-6149000D01*
X67251000Y-7851000D01*
X67251000Y-7851000D01*
G37*
G36*
X61951000Y-7651000D02*
G01*
X60249000Y-7651000D01*
X60249000Y-6349000D01*
X61951000Y-6349000D01*
X61951000Y-7651000D01*
X61951000Y-7651000D01*
G37*
G36*
X64751000Y-7651000D02*
G01*
X63049000Y-7651000D01*
X63049000Y-6349000D01*
X64751000Y-6349000D01*
X64751000Y-7651000D01*
X64751000Y-7651000D01*
G37*
G36*
X135248228Y-5681703D02*
G01*
X135403100Y-5745853D01*
X135542481Y-5838985D01*
X135661015Y-5957519D01*
X135754147Y-6096900D01*
X135818297Y-6251772D01*
X135851000Y-6416184D01*
X135851000Y-6583816D01*
X135818297Y-6748228D01*
X135754147Y-6903100D01*
X135661015Y-7042481D01*
X135542481Y-7161015D01*
X135403100Y-7254147D01*
X135248228Y-7318297D01*
X135083816Y-7351000D01*
X134916184Y-7351000D01*
X134751772Y-7318297D01*
X134596900Y-7254147D01*
X134457519Y-7161015D01*
X134338985Y-7042481D01*
X134245853Y-6903100D01*
X134181703Y-6748228D01*
X134149000Y-6583816D01*
X134149000Y-6416184D01*
X134181703Y-6251772D01*
X134245853Y-6096900D01*
X134338985Y-5957519D01*
X134457519Y-5838985D01*
X134596900Y-5745853D01*
X134751772Y-5681703D01*
X134916184Y-5649000D01*
X135083816Y-5649000D01*
X135248228Y-5681703D01*
X135248228Y-5681703D01*
G37*
G36*
X143651000Y-7351000D02*
G01*
X141949000Y-7351000D01*
X141949000Y-5649000D01*
X143651000Y-5649000D01*
X143651000Y-7351000D01*
X143651000Y-7351000D01*
G37*
G36*
X138351000Y-7151000D02*
G01*
X136649000Y-7151000D01*
X136649000Y-5849000D01*
X138351000Y-5849000D01*
X138351000Y-7151000D01*
X138351000Y-7151000D01*
G37*
G36*
X141151000Y-7151000D02*
G01*
X139449000Y-7151000D01*
X139449000Y-5849000D01*
X141151000Y-5849000D01*
X141151000Y-7151000D01*
X141151000Y-7151000D01*
G37*
G36*
X93421883Y-4458335D02*
G01*
X93590640Y-4528236D01*
X93742518Y-4629718D01*
X93871682Y-4758882D01*
X93973164Y-4910760D01*
X94043065Y-5079517D01*
X94078700Y-5258668D01*
X94078700Y-5441332D01*
X94043065Y-5620483D01*
X93973164Y-5789240D01*
X93871682Y-5941118D01*
X93742518Y-6070282D01*
X93590640Y-6171764D01*
X93421883Y-6241665D01*
X93242732Y-6277300D01*
X93060068Y-6277300D01*
X92880917Y-6241665D01*
X92712160Y-6171764D01*
X92560282Y-6070282D01*
X92431118Y-5941118D01*
X92329636Y-5789240D01*
X92259735Y-5620483D01*
X92224100Y-5441332D01*
X92224100Y-5258668D01*
X92259735Y-5079517D01*
X92329636Y-4910760D01*
X92431118Y-4758882D01*
X92560282Y-4629718D01*
X92712160Y-4528236D01*
X92880917Y-4458335D01*
X93060068Y-4422700D01*
X93242732Y-4422700D01*
X93421883Y-4458335D01*
X93421883Y-4458335D01*
G37*
G36*
X109119083Y-4458335D02*
G01*
X109287840Y-4528236D01*
X109439718Y-4629718D01*
X109568882Y-4758882D01*
X109670364Y-4910760D01*
X109740265Y-5079517D01*
X109775900Y-5258668D01*
X109775900Y-5441332D01*
X109740265Y-5620483D01*
X109670364Y-5789240D01*
X109568882Y-5941118D01*
X109439718Y-6070282D01*
X109287840Y-6171764D01*
X109119083Y-6241665D01*
X108939932Y-6277300D01*
X108757268Y-6277300D01*
X108578117Y-6241665D01*
X108409360Y-6171764D01*
X108257482Y-6070282D01*
X108128318Y-5941118D01*
X108026836Y-5789240D01*
X107956935Y-5620483D01*
X107921300Y-5441332D01*
X107921300Y-5258668D01*
X107956935Y-5079517D01*
X108026836Y-4910760D01*
X108128318Y-4758882D01*
X108257482Y-4629718D01*
X108409360Y-4528236D01*
X108578117Y-4458335D01*
X108757268Y-4422700D01*
X108939932Y-4422700D01*
X109119083Y-4458335D01*
X109119083Y-4458335D01*
G37*
G36*
X134158121Y-3670174D02*
G01*
X134258395Y-3711709D01*
X134258396Y-3711710D01*
X134348642Y-3772010D01*
X134425390Y-3848758D01*
X134425391Y-3848760D01*
X134485691Y-3939005D01*
X134527226Y-4039279D01*
X134548400Y-4145730D01*
X134548400Y-4254270D01*
X134527226Y-4360721D01*
X134485691Y-4460995D01*
X134485690Y-4460996D01*
X134425390Y-4551242D01*
X134348642Y-4627990D01*
X134346054Y-4629719D01*
X134258395Y-4688291D01*
X134158121Y-4729826D01*
X134051670Y-4751000D01*
X133943130Y-4751000D01*
X133836679Y-4729826D01*
X133736405Y-4688291D01*
X133648746Y-4629719D01*
X133646158Y-4627990D01*
X133569410Y-4551242D01*
X133509110Y-4460996D01*
X133509109Y-4460995D01*
X133467574Y-4360721D01*
X133446400Y-4254270D01*
X133446400Y-4145730D01*
X133467574Y-4039279D01*
X133509109Y-3939005D01*
X133569409Y-3848760D01*
X133569410Y-3848758D01*
X133646158Y-3772010D01*
X133736404Y-3711710D01*
X133736405Y-3711709D01*
X133836679Y-3670174D01*
X133943130Y-3649000D01*
X134051670Y-3649000D01*
X134158121Y-3670174D01*
X134158121Y-3670174D01*
G37*
G36*
X144598121Y-3670174D02*
G01*
X144698395Y-3711709D01*
X144698396Y-3711710D01*
X144788642Y-3772010D01*
X144865390Y-3848758D01*
X144865391Y-3848760D01*
X144925691Y-3939005D01*
X144967226Y-4039279D01*
X144988400Y-4145730D01*
X144988400Y-4254270D01*
X144967226Y-4360721D01*
X144925691Y-4460995D01*
X144925690Y-4460996D01*
X144865390Y-4551242D01*
X144788642Y-4627990D01*
X144786054Y-4629719D01*
X144698395Y-4688291D01*
X144598121Y-4729826D01*
X144491670Y-4751000D01*
X144383130Y-4751000D01*
X144276679Y-4729826D01*
X144176405Y-4688291D01*
X144088746Y-4629719D01*
X144086158Y-4627990D01*
X144009410Y-4551242D01*
X143949110Y-4460996D01*
X143949109Y-4460995D01*
X143907574Y-4360721D01*
X143886400Y-4254270D01*
X143886400Y-4145730D01*
X143907574Y-4039279D01*
X143949109Y-3939005D01*
X144009409Y-3848760D01*
X144009410Y-3848758D01*
X144086158Y-3772010D01*
X144176404Y-3711710D01*
X144176405Y-3711709D01*
X144276679Y-3670174D01*
X144383130Y-3649000D01*
X144491670Y-3649000D01*
X144598121Y-3670174D01*
X144598121Y-3670174D01*
G37*
G36*
X67788521Y-3670174D02*
G01*
X67888795Y-3711709D01*
X67888796Y-3711710D01*
X67979042Y-3772010D01*
X68055790Y-3848758D01*
X68055791Y-3848760D01*
X68116091Y-3939005D01*
X68157626Y-4039279D01*
X68178800Y-4145730D01*
X68178800Y-4254270D01*
X68157626Y-4360721D01*
X68116091Y-4460995D01*
X68116090Y-4460996D01*
X68055790Y-4551242D01*
X67979042Y-4627990D01*
X67976454Y-4629719D01*
X67888795Y-4688291D01*
X67788521Y-4729826D01*
X67682070Y-4751000D01*
X67573530Y-4751000D01*
X67467079Y-4729826D01*
X67366805Y-4688291D01*
X67279146Y-4629719D01*
X67276558Y-4627990D01*
X67199810Y-4551242D01*
X67139510Y-4460996D01*
X67139509Y-4460995D01*
X67097974Y-4360721D01*
X67076800Y-4254270D01*
X67076800Y-4145730D01*
X67097974Y-4039279D01*
X67139509Y-3939005D01*
X67199809Y-3848760D01*
X67199810Y-3848758D01*
X67276558Y-3772010D01*
X67366804Y-3711710D01*
X67366805Y-3711709D01*
X67467079Y-3670174D01*
X67573530Y-3649000D01*
X67682070Y-3649000D01*
X67788521Y-3670174D01*
X67788521Y-3670174D01*
G37*
G36*
X57348521Y-3670174D02*
G01*
X57448795Y-3711709D01*
X57448796Y-3711710D01*
X57539042Y-3772010D01*
X57615790Y-3848758D01*
X57615791Y-3848760D01*
X57676091Y-3939005D01*
X57717626Y-4039279D01*
X57738800Y-4145730D01*
X57738800Y-4254270D01*
X57717626Y-4360721D01*
X57676091Y-4460995D01*
X57676090Y-4460996D01*
X57615790Y-4551242D01*
X57539042Y-4627990D01*
X57536454Y-4629719D01*
X57448795Y-4688291D01*
X57348521Y-4729826D01*
X57242070Y-4751000D01*
X57133530Y-4751000D01*
X57027079Y-4729826D01*
X56926805Y-4688291D01*
X56839146Y-4629719D01*
X56836558Y-4627990D01*
X56759810Y-4551242D01*
X56699510Y-4460996D01*
X56699509Y-4460995D01*
X56657974Y-4360721D01*
X56636800Y-4254270D01*
X56636800Y-4145730D01*
X56657974Y-4039279D01*
X56699509Y-3939005D01*
X56759809Y-3848760D01*
X56759810Y-3848758D01*
X56836558Y-3772010D01*
X56926804Y-3711710D01*
X56926805Y-3711709D01*
X57027079Y-3670174D01*
X57133530Y-3649000D01*
X57242070Y-3649000D01*
X57348521Y-3670174D01*
X57348521Y-3670174D01*
G37*
G36*
X108661883Y-1918335D02*
G01*
X108830640Y-1988236D01*
X108982518Y-2089718D01*
X109111682Y-2218882D01*
X109213164Y-2370760D01*
X109283065Y-2539517D01*
X109318700Y-2718668D01*
X109318700Y-2901332D01*
X109283065Y-3080483D01*
X109213164Y-3249240D01*
X109111682Y-3401118D01*
X108982518Y-3530282D01*
X108830640Y-3631764D01*
X108661883Y-3701665D01*
X108482732Y-3737300D01*
X108300068Y-3737300D01*
X108120917Y-3701665D01*
X107952160Y-3631764D01*
X107800282Y-3530282D01*
X107671118Y-3401118D01*
X107569636Y-3249240D01*
X107499735Y-3080483D01*
X107464100Y-2901332D01*
X107464100Y-2718668D01*
X107499735Y-2539517D01*
X107569636Y-2370760D01*
X107671118Y-2218882D01*
X107800282Y-2089718D01*
X107952160Y-1988236D01*
X108120917Y-1918335D01*
X108300068Y-1882700D01*
X108482732Y-1882700D01*
X108661883Y-1918335D01*
X108661883Y-1918335D01*
G37*
G36*
X93879083Y-1918335D02*
G01*
X94047840Y-1988236D01*
X94199718Y-2089718D01*
X94328882Y-2218882D01*
X94430364Y-2370760D01*
X94500265Y-2539517D01*
X94535900Y-2718668D01*
X94535900Y-2901332D01*
X94500265Y-3080483D01*
X94430364Y-3249240D01*
X94328882Y-3401118D01*
X94199718Y-3530282D01*
X94047840Y-3631764D01*
X93879083Y-3701665D01*
X93699932Y-3737300D01*
X93517268Y-3737300D01*
X93338117Y-3701665D01*
X93169360Y-3631764D01*
X93017482Y-3530282D01*
X92888318Y-3401118D01*
X92786836Y-3249240D01*
X92716935Y-3080483D01*
X92681300Y-2901332D01*
X92681300Y-2718668D01*
X92716935Y-2539517D01*
X92786836Y-2370760D01*
X92888318Y-2218882D01*
X93017482Y-2089718D01*
X93169360Y-1988236D01*
X93338117Y-1918335D01*
X93517268Y-1882700D01*
X93699932Y-1882700D01*
X93879083Y-1918335D01*
X93879083Y-1918335D01*
G37*
G36*
X63006054Y1972182D02*
G01*
X63379311Y1817574D01*
X63379313Y1817573D01*
X63586878Y1678882D01*
X63715236Y1593116D01*
X64000916Y1307436D01*
X64225374Y971511D01*
X64379982Y598254D01*
X64458800Y202007D01*
X64458800Y-202007D01*
X64379982Y-598254D01*
X64250639Y-910515D01*
X64225373Y-971513D01*
X64000916Y-1307436D01*
X63715236Y-1593116D01*
X63379313Y-1817573D01*
X63379312Y-1817574D01*
X63379311Y-1817574D01*
X63006054Y-1972182D01*
X62609807Y-2051000D01*
X62205793Y-2051000D01*
X61809546Y-1972182D01*
X61436289Y-1817574D01*
X61436288Y-1817574D01*
X61436287Y-1817573D01*
X61100364Y-1593116D01*
X60814684Y-1307436D01*
X60590227Y-971513D01*
X60564961Y-910515D01*
X60435618Y-598254D01*
X60356800Y-202007D01*
X60356800Y202007D01*
X60435618Y598254D01*
X60590226Y971511D01*
X60814684Y1307436D01*
X61100364Y1593116D01*
X61228722Y1678882D01*
X61436287Y1817573D01*
X61436289Y1817574D01*
X61809546Y1972182D01*
X62205793Y2051000D01*
X62609807Y2051000D01*
X63006054Y1972182D01*
X63006054Y1972182D01*
G37*
G36*
X139815654Y1972182D02*
G01*
X140188911Y1817574D01*
X140188913Y1817573D01*
X140396478Y1678882D01*
X140524836Y1593116D01*
X140810516Y1307436D01*
X141034974Y971511D01*
X141189582Y598254D01*
X141268400Y202007D01*
X141268400Y-202007D01*
X141189582Y-598254D01*
X141060239Y-910515D01*
X141034973Y-971513D01*
X140810516Y-1307436D01*
X140524836Y-1593116D01*
X140188913Y-1817573D01*
X140188912Y-1817574D01*
X140188911Y-1817574D01*
X139815654Y-1972182D01*
X139419407Y-2051000D01*
X139015393Y-2051000D01*
X138619146Y-1972182D01*
X138245889Y-1817574D01*
X138245888Y-1817574D01*
X138245887Y-1817573D01*
X137909964Y-1593116D01*
X137624284Y-1307436D01*
X137399827Y-971513D01*
X137374561Y-910515D01*
X137245218Y-598254D01*
X137166400Y-202007D01*
X137166400Y202007D01*
X137245218Y598254D01*
X137399826Y971511D01*
X137624284Y1307436D01*
X137909964Y1593116D01*
X138038322Y1678882D01*
X138245887Y1817573D01*
X138245889Y1817574D01*
X138619146Y1972182D01*
X139015393Y2051000D01*
X139419407Y2051000D01*
X139815654Y1972182D01*
X139815654Y1972182D01*
G37*
G36*
X109119083Y621665D02*
G01*
X109287840Y551764D01*
X109439718Y450282D01*
X109568882Y321118D01*
X109670364Y169240D01*
X109740265Y483D01*
X109775900Y-178668D01*
X109775900Y-361332D01*
X109740265Y-540483D01*
X109670364Y-709240D01*
X109568882Y-861118D01*
X109439718Y-990282D01*
X109287840Y-1091764D01*
X109119083Y-1161665D01*
X108939932Y-1197300D01*
X108757268Y-1197300D01*
X108578117Y-1161665D01*
X108409360Y-1091764D01*
X108257482Y-990282D01*
X108128318Y-861118D01*
X108026836Y-709240D01*
X107956935Y-540483D01*
X107921300Y-361332D01*
X107921300Y-178668D01*
X107956935Y483D01*
X108026836Y169240D01*
X108128318Y321118D01*
X108257482Y450282D01*
X108409360Y551764D01*
X108578117Y621665D01*
X108757268Y657300D01*
X108939932Y657300D01*
X109119083Y621665D01*
X109119083Y621665D01*
G37*
G36*
X93421883Y621665D02*
G01*
X93590640Y551764D01*
X93742518Y450282D01*
X93871682Y321118D01*
X93973164Y169240D01*
X94043065Y483D01*
X94078700Y-178668D01*
X94078700Y-361332D01*
X94043065Y-540483D01*
X93973164Y-709240D01*
X93871682Y-861118D01*
X93742518Y-990282D01*
X93590640Y-1091764D01*
X93421883Y-1161665D01*
X93242732Y-1197300D01*
X93060068Y-1197300D01*
X92880917Y-1161665D01*
X92712160Y-1091764D01*
X92560282Y-990282D01*
X92431118Y-861118D01*
X92329636Y-709240D01*
X92259735Y-540483D01*
X92224100Y-361332D01*
X92224100Y-178668D01*
X92259735Y483D01*
X92329636Y169240D01*
X92431118Y321118D01*
X92560282Y450282D01*
X92712160Y551764D01*
X92880917Y621665D01*
X93060068Y657300D01*
X93242732Y657300D01*
X93421883Y621665D01*
X93421883Y621665D01*
G37*
G36*
X145009381Y962532D02*
G01*
X145191551Y887074D01*
X145355500Y777527D01*
X145494927Y638100D01*
X145604474Y474151D01*
X145679932Y291981D01*
X145718400Y98590D01*
X145718400Y-98590D01*
X145679932Y-291981D01*
X145604474Y-474151D01*
X145494927Y-638100D01*
X145355500Y-777527D01*
X145191551Y-887074D01*
X145009381Y-962532D01*
X144815991Y-1001000D01*
X144618809Y-1001000D01*
X144425419Y-962532D01*
X144299840Y-910515D01*
X144276391Y-903402D01*
X144252005Y-901000D01*
X144208658Y-901000D01*
X144183888Y-896073D01*
X144034588Y-866376D01*
X143870616Y-798456D01*
X143723046Y-699853D01*
X143597547Y-574354D01*
X143498944Y-426784D01*
X143431024Y-262812D01*
X143396400Y-88741D01*
X143396400Y88741D01*
X143431024Y262812D01*
X143498944Y426784D01*
X143597547Y574354D01*
X143723046Y699853D01*
X143870616Y798456D01*
X144034588Y866376D01*
X144183888Y896073D01*
X144208658Y901000D01*
X144252005Y901000D01*
X144276391Y903402D01*
X144299840Y910515D01*
X144305090Y912689D01*
X144425419Y962532D01*
X144618809Y1001000D01*
X144815991Y1001000D01*
X145009381Y962532D01*
X145009381Y962532D01*
G37*
G36*
X68199781Y962532D02*
G01*
X68381951Y887074D01*
X68545900Y777527D01*
X68685327Y638100D01*
X68794874Y474151D01*
X68870332Y291981D01*
X68908800Y98590D01*
X68908800Y-98590D01*
X68870332Y-291981D01*
X68794874Y-474151D01*
X68685327Y-638100D01*
X68545900Y-777527D01*
X68381951Y-887074D01*
X68199781Y-962532D01*
X68006391Y-1001000D01*
X67809209Y-1001000D01*
X67712515Y-981766D01*
X67615819Y-962532D01*
X67490240Y-910515D01*
X67466791Y-903402D01*
X67442405Y-901000D01*
X67399058Y-901000D01*
X67374288Y-896073D01*
X67224988Y-866376D01*
X67061016Y-798456D01*
X66913446Y-699853D01*
X66787947Y-574354D01*
X66689344Y-426784D01*
X66621424Y-262812D01*
X66586800Y-88741D01*
X66586800Y88741D01*
X66621424Y262812D01*
X66689344Y426784D01*
X66787947Y574354D01*
X66913446Y699853D01*
X67061016Y798456D01*
X67224988Y866376D01*
X67374288Y896073D01*
X67399058Y901000D01*
X67442405Y901000D01*
X67466791Y903402D01*
X67490240Y910515D01*
X67495490Y912689D01*
X67615819Y962532D01*
X67712515Y981766D01*
X67809209Y1001000D01*
X68006391Y1001000D01*
X68199781Y962532D01*
X68199781Y962532D01*
G37*
G36*
X57103085Y981766D02*
G01*
X57199781Y962532D01*
X57320110Y912689D01*
X57325360Y910515D01*
X57348809Y903402D01*
X57373195Y901000D01*
X57416542Y901000D01*
X57441312Y896073D01*
X57590612Y866376D01*
X57754584Y798456D01*
X57902154Y699853D01*
X58027653Y574354D01*
X58126256Y426784D01*
X58194176Y262812D01*
X58228800Y88741D01*
X58228800Y-88741D01*
X58194176Y-262812D01*
X58126256Y-426784D01*
X58027653Y-574354D01*
X57902154Y-699853D01*
X57754584Y-798456D01*
X57590612Y-866376D01*
X57441312Y-896073D01*
X57416542Y-901000D01*
X57373195Y-901000D01*
X57348809Y-903402D01*
X57325360Y-910515D01*
X57199781Y-962532D01*
X57103085Y-981766D01*
X57006391Y-1001000D01*
X56809209Y-1001000D01*
X56712515Y-981766D01*
X56615819Y-962532D01*
X56433649Y-887074D01*
X56269700Y-777527D01*
X56130273Y-638100D01*
X56020726Y-474151D01*
X55945268Y-291981D01*
X55906800Y-98590D01*
X55906800Y98590D01*
X55945268Y291981D01*
X56020726Y474151D01*
X56130273Y638100D01*
X56269700Y777527D01*
X56433649Y887074D01*
X56615819Y962532D01*
X56712515Y981766D01*
X56809209Y1001000D01*
X57006391Y1001000D01*
X57103085Y981766D01*
X57103085Y981766D01*
G37*
G36*
X134009381Y962532D02*
G01*
X134129710Y912689D01*
X134134960Y910515D01*
X134158409Y903402D01*
X134182795Y901000D01*
X134226142Y901000D01*
X134250912Y896073D01*
X134400212Y866376D01*
X134564184Y798456D01*
X134711754Y699853D01*
X134837253Y574354D01*
X134935856Y426784D01*
X135003776Y262812D01*
X135038400Y88741D01*
X135038400Y-88741D01*
X135003776Y-262812D01*
X134935856Y-426784D01*
X134837253Y-574354D01*
X134711754Y-699853D01*
X134564184Y-798456D01*
X134400212Y-866376D01*
X134250912Y-896073D01*
X134226142Y-901000D01*
X134182795Y-901000D01*
X134158409Y-903402D01*
X134134960Y-910515D01*
X134009381Y-962532D01*
X133815991Y-1001000D01*
X133618809Y-1001000D01*
X133425419Y-962532D01*
X133243249Y-887074D01*
X133079300Y-777527D01*
X132939873Y-638100D01*
X132830326Y-474151D01*
X132754868Y-291981D01*
X132716400Y-98590D01*
X132716400Y98590D01*
X132754868Y291981D01*
X132830326Y474151D01*
X132939873Y638100D01*
X133079300Y777527D01*
X133243249Y887074D01*
X133425419Y962532D01*
X133618809Y1001000D01*
X133815991Y1001000D01*
X134009381Y962532D01*
X134009381Y962532D01*
G37*
G36*
X108661883Y3161665D02*
G01*
X108830640Y3091764D01*
X108982518Y2990282D01*
X109111682Y2861118D01*
X109213164Y2709240D01*
X109283065Y2540483D01*
X109318700Y2361332D01*
X109318700Y2178668D01*
X109283065Y1999517D01*
X109213164Y1830760D01*
X109111682Y1678882D01*
X108982518Y1549718D01*
X108830640Y1448236D01*
X108661883Y1378335D01*
X108482732Y1342700D01*
X108300068Y1342700D01*
X108120917Y1378335D01*
X107952160Y1448236D01*
X107800282Y1549718D01*
X107671118Y1678882D01*
X107569636Y1830760D01*
X107499735Y1999517D01*
X107464100Y2178668D01*
X107464100Y2361332D01*
X107499735Y2540483D01*
X107569636Y2709240D01*
X107671118Y2861118D01*
X107800282Y2990282D01*
X107952160Y3091764D01*
X108120917Y3161665D01*
X108300068Y3197300D01*
X108482732Y3197300D01*
X108661883Y3161665D01*
X108661883Y3161665D01*
G37*
G36*
X93879083Y3161665D02*
G01*
X94047840Y3091764D01*
X94199718Y2990282D01*
X94328882Y2861118D01*
X94430364Y2709240D01*
X94500265Y2540483D01*
X94535900Y2361332D01*
X94535900Y2178668D01*
X94500265Y1999517D01*
X94430364Y1830760D01*
X94328882Y1678882D01*
X94199718Y1549718D01*
X94047840Y1448236D01*
X93879083Y1378335D01*
X93699932Y1342700D01*
X93517268Y1342700D01*
X93338117Y1378335D01*
X93169360Y1448236D01*
X93017482Y1549718D01*
X92888318Y1678882D01*
X92786836Y1830760D01*
X92716935Y1999517D01*
X92681300Y2178668D01*
X92681300Y2361332D01*
X92716935Y2540483D01*
X92786836Y2709240D01*
X92888318Y2861118D01*
X93017482Y2990282D01*
X93169360Y3091764D01*
X93338117Y3161665D01*
X93517268Y3197300D01*
X93699932Y3197300D01*
X93879083Y3161665D01*
X93879083Y3161665D01*
G37*
G36*
X93421883Y5701665D02*
G01*
X93590640Y5631764D01*
X93742518Y5530282D01*
X93871682Y5401118D01*
X93973164Y5249240D01*
X94043065Y5080483D01*
X94078700Y4901332D01*
X94078700Y4718668D01*
X94043065Y4539517D01*
X93973164Y4370760D01*
X93871682Y4218882D01*
X93742518Y4089718D01*
X93590640Y3988236D01*
X93421883Y3918335D01*
X93242732Y3882700D01*
X93060068Y3882700D01*
X92880917Y3918335D01*
X92712160Y3988236D01*
X92560282Y4089718D01*
X92431118Y4218882D01*
X92329636Y4370760D01*
X92259735Y4539517D01*
X92224100Y4718668D01*
X92224100Y4901332D01*
X92259735Y5080483D01*
X92329636Y5249240D01*
X92431118Y5401118D01*
X92560282Y5530282D01*
X92712160Y5631764D01*
X92880917Y5701665D01*
X93060068Y5737300D01*
X93242732Y5737300D01*
X93421883Y5701665D01*
X93421883Y5701665D01*
G37*
G36*
X109119083Y5701665D02*
G01*
X109287840Y5631764D01*
X109439718Y5530282D01*
X109568882Y5401118D01*
X109670364Y5249240D01*
X109740265Y5080483D01*
X109775900Y4901332D01*
X109775900Y4718668D01*
X109740265Y4539517D01*
X109670364Y4370760D01*
X109568882Y4218882D01*
X109439718Y4089718D01*
X109287840Y3988236D01*
X109119083Y3918335D01*
X108939932Y3882700D01*
X108757268Y3882700D01*
X108578117Y3918335D01*
X108409360Y3988236D01*
X108257482Y4089718D01*
X108128318Y4218882D01*
X108026836Y4370760D01*
X107956935Y4539517D01*
X107921300Y4718668D01*
X107921300Y4901332D01*
X107956935Y5080483D01*
X108026836Y5249240D01*
X108128318Y5401118D01*
X108257482Y5530282D01*
X108409360Y5631764D01*
X108578117Y5701665D01*
X108757268Y5737300D01*
X108939932Y5737300D01*
X109119083Y5701665D01*
X109119083Y5701665D01*
G37*
G36*
X93879083Y8241665D02*
G01*
X94047840Y8171764D01*
X94199718Y8070282D01*
X94328882Y7941118D01*
X94430364Y7789240D01*
X94500265Y7620483D01*
X94535900Y7441332D01*
X94535900Y7258668D01*
X94500265Y7079517D01*
X94430364Y6910760D01*
X94328882Y6758882D01*
X94199718Y6629718D01*
X94047840Y6528236D01*
X93879083Y6458335D01*
X93699932Y6422700D01*
X93517268Y6422700D01*
X93338117Y6458335D01*
X93169360Y6528236D01*
X93017482Y6629718D01*
X92888318Y6758882D01*
X92786836Y6910760D01*
X92716935Y7079517D01*
X92681300Y7258668D01*
X92681300Y7441332D01*
X92716935Y7620483D01*
X92786836Y7789240D01*
X92888318Y7941118D01*
X93017482Y8070282D01*
X93169360Y8171764D01*
X93338117Y8241665D01*
X93517268Y8277300D01*
X93699932Y8277300D01*
X93879083Y8241665D01*
X93879083Y8241665D01*
G37*
G36*
X108661883Y8241665D02*
G01*
X108830640Y8171764D01*
X108982518Y8070282D01*
X109111682Y7941118D01*
X109213164Y7789240D01*
X109283065Y7620483D01*
X109318700Y7441332D01*
X109318700Y7258668D01*
X109283065Y7079517D01*
X109213164Y6910760D01*
X109111682Y6758882D01*
X108982518Y6629718D01*
X108830640Y6528236D01*
X108661883Y6458335D01*
X108482732Y6422700D01*
X108300068Y6422700D01*
X108120917Y6458335D01*
X107952160Y6528236D01*
X107800282Y6629718D01*
X107671118Y6758882D01*
X107569636Y6910760D01*
X107499735Y7079517D01*
X107464100Y7258668D01*
X107464100Y7441332D01*
X107499735Y7620483D01*
X107569636Y7789240D01*
X107671118Y7941118D01*
X107800282Y8070282D01*
X107952160Y8171764D01*
X108120917Y8241665D01*
X108300068Y8277300D01*
X108482732Y8277300D01*
X108661883Y8241665D01*
X108661883Y8241665D01*
G37*
G36*
X93421883Y10781665D02*
G01*
X93590640Y10711764D01*
X93742518Y10610282D01*
X93871682Y10481118D01*
X93973164Y10329240D01*
X94043065Y10160483D01*
X94078700Y9981332D01*
X94078700Y9798668D01*
X94043065Y9619517D01*
X93973164Y9450760D01*
X93871682Y9298882D01*
X93742518Y9169718D01*
X93590640Y9068236D01*
X93421883Y8998335D01*
X93242732Y8962700D01*
X93060068Y8962700D01*
X92880917Y8998335D01*
X92712160Y9068236D01*
X92560282Y9169718D01*
X92431118Y9298882D01*
X92329636Y9450760D01*
X92259735Y9619517D01*
X92224100Y9798668D01*
X92224100Y9981332D01*
X92259735Y10160483D01*
X92329636Y10329240D01*
X92431118Y10481118D01*
X92560282Y10610282D01*
X92712160Y10711764D01*
X92880917Y10781665D01*
X93060068Y10817300D01*
X93242732Y10817300D01*
X93421883Y10781665D01*
X93421883Y10781665D01*
G37*
G36*
X109119083Y10781665D02*
G01*
X109287840Y10711764D01*
X109439718Y10610282D01*
X109568882Y10481118D01*
X109670364Y10329240D01*
X109740265Y10160483D01*
X109775900Y9981332D01*
X109775900Y9798668D01*
X109740265Y9619517D01*
X109670364Y9450760D01*
X109568882Y9298882D01*
X109439718Y9169718D01*
X109287840Y9068236D01*
X109119083Y8998335D01*
X108939932Y8962700D01*
X108757268Y8962700D01*
X108578117Y8998335D01*
X108409360Y9068236D01*
X108257482Y9169718D01*
X108128318Y9298882D01*
X108026836Y9450760D01*
X107956935Y9619517D01*
X107921300Y9798668D01*
X107921300Y9981332D01*
X107956935Y10160483D01*
X108026836Y10329240D01*
X108128318Y10481118D01*
X108257482Y10610282D01*
X108409360Y10711764D01*
X108578117Y10781665D01*
X108757268Y10817300D01*
X108939932Y10817300D01*
X109119083Y10781665D01*
X109119083Y10781665D01*
G37*
G36*
X93879083Y13321665D02*
G01*
X94047840Y13251764D01*
X94199718Y13150282D01*
X94328882Y13021118D01*
X94430364Y12869240D01*
X94500265Y12700483D01*
X94535900Y12521332D01*
X94535900Y12338668D01*
X94500265Y12159517D01*
X94430364Y11990760D01*
X94328882Y11838882D01*
X94199718Y11709718D01*
X94047840Y11608236D01*
X93879083Y11538335D01*
X93699932Y11502700D01*
X93517268Y11502700D01*
X93338117Y11538335D01*
X93169360Y11608236D01*
X93017482Y11709718D01*
X92888318Y11838882D01*
X92786836Y11990760D01*
X92716935Y12159517D01*
X92681300Y12338668D01*
X92681300Y12521332D01*
X92716935Y12700483D01*
X92786836Y12869240D01*
X92888318Y13021118D01*
X93017482Y13150282D01*
X93169360Y13251764D01*
X93338117Y13321665D01*
X93517268Y13357300D01*
X93699932Y13357300D01*
X93879083Y13321665D01*
X93879083Y13321665D01*
G37*
G36*
X108661883Y13321665D02*
G01*
X108830640Y13251764D01*
X108982518Y13150282D01*
X109111682Y13021118D01*
X109213164Y12869240D01*
X109283065Y12700483D01*
X109318700Y12521332D01*
X109318700Y12338668D01*
X109283065Y12159517D01*
X109213164Y11990760D01*
X109111682Y11838882D01*
X108982518Y11709718D01*
X108830640Y11608236D01*
X108661883Y11538335D01*
X108482732Y11502700D01*
X108300068Y11502700D01*
X108120917Y11538335D01*
X107952160Y11608236D01*
X107800282Y11709718D01*
X107671118Y11838882D01*
X107569636Y11990760D01*
X107499735Y12159517D01*
X107464100Y12338668D01*
X107464100Y12521332D01*
X107499735Y12700483D01*
X107569636Y12869240D01*
X107671118Y13021118D01*
X107800282Y13150282D01*
X107952160Y13251764D01*
X108120917Y13321665D01*
X108300068Y13357300D01*
X108482732Y13357300D01*
X108661883Y13321665D01*
X108661883Y13321665D01*
G37*
G36*
X185224549Y15628884D02*
G01*
X185335734Y15606768D01*
X185545203Y15520003D01*
X185733720Y15394040D01*
X185894040Y15233720D01*
X186020003Y15045203D01*
X186088984Y14878669D01*
X186106768Y14835733D01*
X186151000Y14613365D01*
X186151000Y14386635D01*
X186128884Y14275451D01*
X186106768Y14164266D01*
X186020003Y13954797D01*
X185894040Y13766280D01*
X185733720Y13605960D01*
X185545203Y13479997D01*
X185335734Y13393232D01*
X185224549Y13371116D01*
X185113365Y13349000D01*
X184886635Y13349000D01*
X184775451Y13371116D01*
X184664266Y13393232D01*
X184454797Y13479997D01*
X184266280Y13605960D01*
X184105960Y13766280D01*
X183979997Y13954797D01*
X183893232Y14164266D01*
X183871116Y14275451D01*
X183849000Y14386635D01*
X183849000Y14613365D01*
X183893232Y14835733D01*
X183911017Y14878669D01*
X183979997Y15045203D01*
X184105960Y15233720D01*
X184266280Y15394040D01*
X184454797Y15520003D01*
X184664266Y15606768D01*
X184775451Y15628884D01*
X184886635Y15651000D01*
X185113365Y15651000D01*
X185224549Y15628884D01*
X185224549Y15628884D01*
G37*
G36*
X16224549Y15628884D02*
G01*
X16335734Y15606768D01*
X16545203Y15520003D01*
X16733720Y15394040D01*
X16894040Y15233720D01*
X17020003Y15045203D01*
X17088984Y14878669D01*
X17106768Y14835733D01*
X17151000Y14613365D01*
X17151000Y14386635D01*
X17128884Y14275451D01*
X17106768Y14164266D01*
X17020003Y13954797D01*
X16894040Y13766280D01*
X16733720Y13605960D01*
X16545203Y13479997D01*
X16335734Y13393232D01*
X16224549Y13371116D01*
X16113365Y13349000D01*
X15886635Y13349000D01*
X15775451Y13371116D01*
X15664266Y13393232D01*
X15454797Y13479997D01*
X15266280Y13605960D01*
X15105960Y13766280D01*
X14979997Y13954797D01*
X14893232Y14164266D01*
X14871116Y14275451D01*
X14849000Y14386635D01*
X14849000Y14613365D01*
X14893232Y14835733D01*
X14911017Y14878669D01*
X14979997Y15045203D01*
X15105960Y15233720D01*
X15266280Y15394040D01*
X15454797Y15520003D01*
X15664266Y15606768D01*
X15775451Y15628884D01*
X15886635Y15651000D01*
X16113365Y15651000D01*
X16224549Y15628884D01*
X16224549Y15628884D01*
G37*
G36*
X94078700Y14042700D02*
G01*
X92224100Y14042700D01*
X92224100Y15897300D01*
X94078700Y15897300D01*
X94078700Y14042700D01*
X94078700Y14042700D01*
G37*
G36*
X109119083Y15861665D02*
G01*
X109287840Y15791764D01*
X109439718Y15690282D01*
X109568882Y15561118D01*
X109670364Y15409240D01*
X109740265Y15240483D01*
X109775900Y15061332D01*
X109775900Y14878668D01*
X109740265Y14699517D01*
X109670364Y14530760D01*
X109568882Y14378882D01*
X109439718Y14249718D01*
X109287840Y14148236D01*
X109119083Y14078335D01*
X108939932Y14042700D01*
X108757268Y14042700D01*
X108578117Y14078335D01*
X108409360Y14148236D01*
X108257482Y14249718D01*
X108128318Y14378882D01*
X108026836Y14530760D01*
X107956935Y14699517D01*
X107921300Y14878668D01*
X107921300Y15061332D01*
X107956935Y15240483D01*
X108026836Y15409240D01*
X108128318Y15561118D01*
X108257482Y15690282D01*
X108409360Y15791764D01*
X108578117Y15861665D01*
X108757268Y15897300D01*
X108939932Y15897300D01*
X109119083Y15861665D01*
X109119083Y15861665D01*
G37*
M02*
