M48
; DRILL file {KiCad (5.1.2-1)-1} date 2020 July 04, Saturday 05:42:41
; FORMAT={-:-/ absolute / metric / decimal}
; #@! TF.CreationDate,2020-07-04T05:42:41+09:00
; #@! TF.GenerationSoftware,Kicad,Pcbnew,(5.1.2-1)-1
; #@! TF.FileFunction,Plated,1,2,PTH
FMAT,2
METRIC
T1C1.000
T2C1.092
T3C1.200
T4C1.300
%
G90
G05
T1
X76.5Y-26.0
X84.3Y-26.0
X135.0Y-6.5
X142.8Y-6.5
X24.7Y-45.0
X32.5Y-45.0
X87.1Y-45.0
X94.9Y-45.0
X145.1Y-45.0
X152.9Y-45.0
X115.7Y-26.0
X123.5Y-26.0
X111.1Y-64.0
X118.9Y-64.0
X39.1Y-26.0
X46.9Y-26.0
X48.7Y-45.0
X56.5Y-45.0
X107.1Y-45.0
X114.9Y-45.0
X169.1Y-45.0
X176.9Y-45.0
X57.7Y-26.0
X65.5Y-26.0
X134.6Y-26.0
X142.4Y-26.0
X126.1Y-45.0
X133.9Y-45.0
X82.1Y-64.0
X89.9Y-64.0
X68.2Y-45.0
X76.0Y-45.0
X58.6Y-7.0
X66.4Y-7.0
X153.7Y-26.0
X161.5Y-26.0
T2
X93.151Y14.97
X93.151Y9.89
X93.151Y4.81
X93.151Y-0.27
X93.151Y-5.35
X93.151Y-10.43
X93.609Y12.43
X93.609Y7.35
X93.609Y2.27
X93.609Y-2.81
X93.609Y-7.89
X93.609Y-12.97
X108.391Y12.43
X108.391Y7.35
X108.391Y2.27
X108.391Y-2.81
X108.391Y-7.89
X108.391Y-12.97
X108.849Y14.97
X108.849Y9.89
X108.849Y4.81
X108.849Y-0.27
X108.849Y-5.35
X108.849Y-10.43
T3
X106.604Y-35.56
X110.414Y-32.2
X112.954Y-33.02
X115.514Y-34.2
X135.407Y2.54
X139.217Y5.9
X141.757Y5.08
X144.317Y3.9
X154.61Y-16.51
X158.42Y-13.15
X160.96Y-13.97
X163.52Y-15.15
X116.205Y-16.51
X120.015Y-13.15
X122.555Y-13.97
X125.115Y-15.15
X87.401Y-35.56
X91.211Y-32.2
X93.751Y-33.02
X96.311Y-34.2
X58.598Y2.54
X62.408Y5.9
X64.948Y5.08
X67.508Y3.9
X145.009Y-35.56
X148.819Y-32.2
X151.359Y-33.02
X153.919Y-34.2
X82.601Y-54.61
X86.411Y-51.25
X88.951Y-52.07
X91.511Y-53.25
X77.8Y-16.51
X81.61Y-13.15
X84.15Y-13.97
X86.71Y-15.15
X111.404Y-54.61
X115.214Y-51.25
X117.754Y-52.07
X120.314Y-53.25
X68.199Y-35.56
X72.009Y-32.2
X74.549Y-33.02
X77.109Y-34.2
X125.806Y-35.56
X129.616Y-32.2
X132.156Y-33.02
X134.716Y-34.2
X48.997Y-35.56
X52.807Y-32.2
X55.347Y-33.02
X57.907Y-34.2
X58.598Y-16.51
X62.408Y-13.15
X64.948Y-13.97
X67.508Y-15.15
X39.395Y-16.51
X43.205Y-13.15
X45.745Y-13.97
X48.305Y-15.15
X169.012Y-35.56
X172.822Y-32.2
X175.362Y-33.02
X177.922Y-34.2
X24.994Y-35.56
X28.804Y-32.2
X31.344Y-33.02
X33.904Y-34.2
X135.407Y-16.51
X139.217Y-13.15
X141.757Y-13.97
X144.317Y-15.15
T4
X97.563Y-19.05
X104.063Y-19.05
T0
M30
