G04 #@! TF.GenerationSoftware,KiCad,Pcbnew,(5.1.2-1)-1*
G04 #@! TF.CreationDate,2020-07-04T05:42:38+09:00*
G04 #@! TF.ProjectId,xipad,78697061-642e-46b6-9963-61645f706362,rev?*
G04 #@! TF.SameCoordinates,Original*
G04 #@! TF.FileFunction,Legend,Top*
G04 #@! TF.FilePolarity,Positive*
%FSLAX46Y46*%
G04 Gerber Fmt 4.6, Leading zero omitted, Abs format (unit mm)*
G04 Created by KiCad (PCBNEW (5.1.2-1)-1) date 2020-07-04 05:42:38*
%MOMM*%
%LPD*%
G04 APERTURE LIST*
%ADD10C,0.300000*%
%ADD11C,0.150000*%
G04 APERTURE END LIST*
D10*
X135714285Y-66178571D02*
X136571428Y-66178571D01*
X136142857Y-67678571D02*
X136142857Y-66178571D01*
X136857142Y-66321428D02*
X137142857Y-66107142D01*
X137428571Y-66321428D01*
X137785714Y-66178571D02*
X138714285Y-66178571D01*
X138214285Y-66750000D01*
X138428571Y-66750000D01*
X138571428Y-66821428D01*
X138642857Y-66892857D01*
X138714285Y-67035714D01*
X138714285Y-67392857D01*
X138642857Y-67535714D01*
X138571428Y-67607142D01*
X138428571Y-67678571D01*
X138000000Y-67678571D01*
X137857142Y-67607142D01*
X137785714Y-67535714D01*
X140500000Y-67107142D02*
X141642857Y-67107142D01*
X143285714Y-66178571D02*
X144142857Y-66178571D01*
X143714285Y-67678571D02*
X143714285Y-66178571D01*
X144642857Y-67678571D02*
X144642857Y-66178571D01*
X145285714Y-67678571D02*
X145285714Y-66892857D01*
X145214285Y-66750000D01*
X145071428Y-66678571D01*
X144857142Y-66678571D01*
X144714285Y-66750000D01*
X144642857Y-66821428D01*
X146571428Y-67607142D02*
X146428571Y-67678571D01*
X146142857Y-67678571D01*
X146000000Y-67607142D01*
X145928571Y-67464285D01*
X145928571Y-66892857D01*
X146000000Y-66750000D01*
X146142857Y-66678571D01*
X146428571Y-66678571D01*
X146571428Y-66750000D01*
X146642857Y-66892857D01*
X146642857Y-67035714D01*
X145928571Y-67178571D01*
X148214285Y-66178571D02*
X149071428Y-66178571D01*
X148642857Y-67678571D02*
X148642857Y-66178571D01*
X150142857Y-67607142D02*
X150000000Y-67678571D01*
X149714285Y-67678571D01*
X149571428Y-67607142D01*
X149500000Y-67464285D01*
X149500000Y-66892857D01*
X149571428Y-66750000D01*
X149714285Y-66678571D01*
X150000000Y-66678571D01*
X150142857Y-66750000D01*
X150214285Y-66892857D01*
X150214285Y-67035714D01*
X149500000Y-67178571D01*
X150857142Y-67678571D02*
X150857142Y-66678571D01*
X150857142Y-66178571D02*
X150785714Y-66250000D01*
X150857142Y-66321428D01*
X150928571Y-66250000D01*
X150857142Y-66178571D01*
X150857142Y-66321428D01*
X151571428Y-67678571D02*
X151571428Y-66178571D01*
X152214285Y-67678571D02*
X152214285Y-66892857D01*
X152142857Y-66750000D01*
X152000000Y-66678571D01*
X151785714Y-66678571D01*
X151642857Y-66750000D01*
X151571428Y-66821428D01*
X153500000Y-67607142D02*
X153357142Y-67678571D01*
X153071428Y-67678571D01*
X152928571Y-67607142D01*
X152857142Y-67464285D01*
X152857142Y-66892857D01*
X152928571Y-66750000D01*
X153071428Y-66678571D01*
X153357142Y-66678571D01*
X153500000Y-66750000D01*
X153571428Y-66892857D01*
X153571428Y-67035714D01*
X152857142Y-67178571D01*
X154214285Y-66678571D02*
X154214285Y-67678571D01*
X154214285Y-66821428D02*
X154285714Y-66750000D01*
X154428571Y-66678571D01*
X154642857Y-66678571D01*
X154785714Y-66750000D01*
X154857142Y-66892857D01*
X154857142Y-67678571D01*
X156500000Y-66178571D02*
X157357142Y-66178571D01*
X156928571Y-67678571D02*
X156928571Y-66178571D01*
X158500000Y-67678571D02*
X158500000Y-66892857D01*
X158428571Y-66750000D01*
X158285714Y-66678571D01*
X158000000Y-66678571D01*
X157857142Y-66750000D01*
X158500000Y-67607142D02*
X158357142Y-67678571D01*
X158000000Y-67678571D01*
X157857142Y-67607142D01*
X157785714Y-67464285D01*
X157785714Y-67321428D01*
X157857142Y-67178571D01*
X158000000Y-67107142D01*
X158357142Y-67107142D01*
X158500000Y-67035714D01*
X159142857Y-67607142D02*
X159285714Y-67678571D01*
X159571428Y-67678571D01*
X159714285Y-67607142D01*
X159785714Y-67464285D01*
X159785714Y-67392857D01*
X159714285Y-67250000D01*
X159571428Y-67178571D01*
X159357142Y-67178571D01*
X159214285Y-67107142D01*
X159142857Y-66964285D01*
X159142857Y-66892857D01*
X159214285Y-66750000D01*
X159357142Y-66678571D01*
X159571428Y-66678571D01*
X159714285Y-66750000D01*
X160214285Y-66678571D02*
X160785714Y-66678571D01*
X160428571Y-66178571D02*
X160428571Y-67464285D01*
X160500000Y-67607142D01*
X160642857Y-67678571D01*
X160785714Y-67678571D01*
X161928571Y-67678571D02*
X161928571Y-66892857D01*
X161857142Y-66750000D01*
X161714285Y-66678571D01*
X161428571Y-66678571D01*
X161285714Y-66750000D01*
X161928571Y-67607142D02*
X161785714Y-67678571D01*
X161428571Y-67678571D01*
X161285714Y-67607142D01*
X161214285Y-67464285D01*
X161214285Y-67321428D01*
X161285714Y-67178571D01*
X161428571Y-67107142D01*
X161785714Y-67107142D01*
X161928571Y-67035714D01*
X162428571Y-66678571D02*
X163000000Y-66678571D01*
X162642857Y-66178571D02*
X162642857Y-67464285D01*
X162714285Y-67607142D01*
X162857142Y-67678571D01*
X163000000Y-67678571D01*
X164142857Y-66678571D02*
X164142857Y-67678571D01*
X163500000Y-66678571D02*
X163500000Y-67464285D01*
X163571428Y-67607142D01*
X163714285Y-67678571D01*
X163928571Y-67678571D01*
X164071428Y-67607142D01*
X164142857Y-67535714D01*
X164857142Y-67678571D02*
X164857142Y-66678571D01*
X164857142Y-66964285D02*
X164928571Y-66821428D01*
X165000000Y-66750000D01*
X165142857Y-66678571D01*
X165285714Y-66678571D01*
X168000000Y-66107142D02*
X166714285Y-68035714D01*
X169500000Y-66178571D02*
X170500000Y-67678571D01*
X170500000Y-66178571D02*
X169500000Y-67678571D01*
X171071428Y-67678571D02*
X171071428Y-66678571D01*
X171071428Y-66178571D02*
X171000000Y-66250000D01*
X171071428Y-66321428D01*
X171142857Y-66250000D01*
X171071428Y-66178571D01*
X171071428Y-66321428D01*
X171785714Y-66678571D02*
X171785714Y-68178571D01*
X171785714Y-66750000D02*
X171928571Y-66678571D01*
X172214285Y-66678571D01*
X172357142Y-66750000D01*
X172428571Y-66821428D01*
X172500000Y-66964285D01*
X172500000Y-67392857D01*
X172428571Y-67535714D01*
X172357142Y-67607142D01*
X172214285Y-67678571D01*
X171928571Y-67678571D01*
X171785714Y-67607142D01*
X173785714Y-67678571D02*
X173785714Y-66892857D01*
X173714285Y-66750000D01*
X173571428Y-66678571D01*
X173285714Y-66678571D01*
X173142857Y-66750000D01*
X173785714Y-67607142D02*
X173642857Y-67678571D01*
X173285714Y-67678571D01*
X173142857Y-67607142D01*
X173071428Y-67464285D01*
X173071428Y-67321428D01*
X173142857Y-67178571D01*
X173285714Y-67107142D01*
X173642857Y-67107142D01*
X173785714Y-67035714D01*
X175142857Y-67678571D02*
X175142857Y-66178571D01*
X175142857Y-67607142D02*
X175000000Y-67678571D01*
X174714285Y-67678571D01*
X174571428Y-67607142D01*
X174500000Y-67535714D01*
X174428571Y-67392857D01*
X174428571Y-66964285D01*
X174500000Y-66821428D01*
X174571428Y-66750000D01*
X174714285Y-66678571D01*
X175000000Y-66678571D01*
X175142857Y-66750000D01*
X177000000Y-67678571D02*
X177000000Y-66678571D01*
X177000000Y-66964285D02*
X177071428Y-66821428D01*
X177142857Y-66750000D01*
X177285714Y-66678571D01*
X177428571Y-66678571D01*
X178500000Y-67607142D02*
X178357142Y-67678571D01*
X178071428Y-67678571D01*
X177928571Y-67607142D01*
X177857142Y-67464285D01*
X177857142Y-66892857D01*
X177928571Y-66750000D01*
X178071428Y-66678571D01*
X178357142Y-66678571D01*
X178500000Y-66750000D01*
X178571428Y-66892857D01*
X178571428Y-67035714D01*
X177857142Y-67178571D01*
X179071428Y-66678571D02*
X179428571Y-67678571D01*
X179785714Y-66678571D01*
X181142857Y-67678571D02*
X180285714Y-67678571D01*
X180714285Y-67678571D02*
X180714285Y-66178571D01*
X180571428Y-66392857D01*
X180428571Y-66535714D01*
X180285714Y-66607142D01*
D11*
X64278000Y-7762000D02*
X64278000Y-6238000D01*
X64405000Y-7762000D02*
X64405000Y-6238000D01*
X64532000Y-6238000D02*
X64532000Y-7762000D01*
X64913000Y-7762000D02*
X64913000Y-6238000D01*
X64786000Y-6238000D02*
X64786000Y-7762000D01*
X64659000Y-7762000D02*
X64659000Y-6238000D01*
X59960000Y-7762000D02*
X60468000Y-7762000D01*
X59960000Y-6238000D02*
X59960000Y-7762000D01*
X65040000Y-6238000D02*
X59960000Y-6238000D01*
X65040000Y-7762000D02*
X65040000Y-6238000D01*
X59960000Y-7762000D02*
X65040000Y-7762000D01*
X136360000Y-7262000D02*
X141440000Y-7262000D01*
X141440000Y-7262000D02*
X141440000Y-5738000D01*
X141440000Y-5738000D02*
X136360000Y-5738000D01*
X136360000Y-5738000D02*
X136360000Y-7262000D01*
X136360000Y-7262000D02*
X136868000Y-7262000D01*
X141059000Y-7262000D02*
X141059000Y-5738000D01*
X141186000Y-5738000D02*
X141186000Y-7262000D01*
X141313000Y-7262000D02*
X141313000Y-5738000D01*
X140932000Y-5738000D02*
X140932000Y-7262000D01*
X140805000Y-7262000D02*
X140805000Y-5738000D01*
X140678000Y-7262000D02*
X140678000Y-5738000D01*
X44778000Y-26762000D02*
X44778000Y-25238000D01*
X44905000Y-26762000D02*
X44905000Y-25238000D01*
X45032000Y-25238000D02*
X45032000Y-26762000D01*
X45413000Y-26762000D02*
X45413000Y-25238000D01*
X45286000Y-25238000D02*
X45286000Y-26762000D01*
X45159000Y-26762000D02*
X45159000Y-25238000D01*
X40460000Y-26762000D02*
X40968000Y-26762000D01*
X40460000Y-25238000D02*
X40460000Y-26762000D01*
X45540000Y-25238000D02*
X40460000Y-25238000D01*
X45540000Y-26762000D02*
X45540000Y-25238000D01*
X40460000Y-26762000D02*
X45540000Y-26762000D01*
X63378000Y-26762000D02*
X63378000Y-25238000D01*
X63505000Y-26762000D02*
X63505000Y-25238000D01*
X63632000Y-25238000D02*
X63632000Y-26762000D01*
X64013000Y-26762000D02*
X64013000Y-25238000D01*
X63886000Y-25238000D02*
X63886000Y-26762000D01*
X63759000Y-26762000D02*
X63759000Y-25238000D01*
X59060000Y-26762000D02*
X59568000Y-26762000D01*
X59060000Y-25238000D02*
X59060000Y-26762000D01*
X64140000Y-25238000D02*
X59060000Y-25238000D01*
X64140000Y-26762000D02*
X64140000Y-25238000D01*
X59060000Y-26762000D02*
X64140000Y-26762000D01*
X77860000Y-26762000D02*
X82940000Y-26762000D01*
X82940000Y-26762000D02*
X82940000Y-25238000D01*
X82940000Y-25238000D02*
X77860000Y-25238000D01*
X77860000Y-25238000D02*
X77860000Y-26762000D01*
X77860000Y-26762000D02*
X78368000Y-26762000D01*
X82559000Y-26762000D02*
X82559000Y-25238000D01*
X82686000Y-25238000D02*
X82686000Y-26762000D01*
X82813000Y-26762000D02*
X82813000Y-25238000D01*
X82432000Y-25238000D02*
X82432000Y-26762000D01*
X82305000Y-26762000D02*
X82305000Y-25238000D01*
X82178000Y-26762000D02*
X82178000Y-25238000D01*
X117060000Y-26762000D02*
X122140000Y-26762000D01*
X122140000Y-26762000D02*
X122140000Y-25238000D01*
X122140000Y-25238000D02*
X117060000Y-25238000D01*
X117060000Y-25238000D02*
X117060000Y-26762000D01*
X117060000Y-26762000D02*
X117568000Y-26762000D01*
X121759000Y-26762000D02*
X121759000Y-25238000D01*
X121886000Y-25238000D02*
X121886000Y-26762000D01*
X122013000Y-26762000D02*
X122013000Y-25238000D01*
X121632000Y-25238000D02*
X121632000Y-26762000D01*
X121505000Y-26762000D02*
X121505000Y-25238000D01*
X121378000Y-26762000D02*
X121378000Y-25238000D01*
X135960000Y-26762000D02*
X141040000Y-26762000D01*
X141040000Y-26762000D02*
X141040000Y-25238000D01*
X141040000Y-25238000D02*
X135960000Y-25238000D01*
X135960000Y-25238000D02*
X135960000Y-26762000D01*
X135960000Y-26762000D02*
X136468000Y-26762000D01*
X140659000Y-26762000D02*
X140659000Y-25238000D01*
X140786000Y-25238000D02*
X140786000Y-26762000D01*
X140913000Y-26762000D02*
X140913000Y-25238000D01*
X140532000Y-25238000D02*
X140532000Y-26762000D01*
X140405000Y-26762000D02*
X140405000Y-25238000D01*
X140278000Y-26762000D02*
X140278000Y-25238000D01*
X155060000Y-26762000D02*
X160140000Y-26762000D01*
X160140000Y-26762000D02*
X160140000Y-25238000D01*
X160140000Y-25238000D02*
X155060000Y-25238000D01*
X155060000Y-25238000D02*
X155060000Y-26762000D01*
X155060000Y-26762000D02*
X155568000Y-26762000D01*
X159759000Y-26762000D02*
X159759000Y-25238000D01*
X159886000Y-25238000D02*
X159886000Y-26762000D01*
X160013000Y-26762000D02*
X160013000Y-25238000D01*
X159632000Y-25238000D02*
X159632000Y-26762000D01*
X159505000Y-26762000D02*
X159505000Y-25238000D01*
X159378000Y-26762000D02*
X159378000Y-25238000D01*
X30378000Y-45762000D02*
X30378000Y-44238000D01*
X30505000Y-45762000D02*
X30505000Y-44238000D01*
X30632000Y-44238000D02*
X30632000Y-45762000D01*
X31013000Y-45762000D02*
X31013000Y-44238000D01*
X30886000Y-44238000D02*
X30886000Y-45762000D01*
X30759000Y-45762000D02*
X30759000Y-44238000D01*
X26060000Y-45762000D02*
X26568000Y-45762000D01*
X26060000Y-44238000D02*
X26060000Y-45762000D01*
X31140000Y-44238000D02*
X26060000Y-44238000D01*
X31140000Y-45762000D02*
X31140000Y-44238000D01*
X26060000Y-45762000D02*
X31140000Y-45762000D01*
X54378000Y-45762000D02*
X54378000Y-44238000D01*
X54505000Y-45762000D02*
X54505000Y-44238000D01*
X54632000Y-44238000D02*
X54632000Y-45762000D01*
X55013000Y-45762000D02*
X55013000Y-44238000D01*
X54886000Y-44238000D02*
X54886000Y-45762000D01*
X54759000Y-45762000D02*
X54759000Y-44238000D01*
X50060000Y-45762000D02*
X50568000Y-45762000D01*
X50060000Y-44238000D02*
X50060000Y-45762000D01*
X55140000Y-44238000D02*
X50060000Y-44238000D01*
X55140000Y-45762000D02*
X55140000Y-44238000D01*
X50060000Y-45762000D02*
X55140000Y-45762000D01*
X73878000Y-45762000D02*
X73878000Y-44238000D01*
X74005000Y-45762000D02*
X74005000Y-44238000D01*
X74132000Y-44238000D02*
X74132000Y-45762000D01*
X74513000Y-45762000D02*
X74513000Y-44238000D01*
X74386000Y-44238000D02*
X74386000Y-45762000D01*
X74259000Y-45762000D02*
X74259000Y-44238000D01*
X69560000Y-45762000D02*
X70068000Y-45762000D01*
X69560000Y-44238000D02*
X69560000Y-45762000D01*
X74640000Y-44238000D02*
X69560000Y-44238000D01*
X74640000Y-45762000D02*
X74640000Y-44238000D01*
X69560000Y-45762000D02*
X74640000Y-45762000D01*
X92778000Y-45762000D02*
X92778000Y-44238000D01*
X92905000Y-45762000D02*
X92905000Y-44238000D01*
X93032000Y-44238000D02*
X93032000Y-45762000D01*
X93413000Y-45762000D02*
X93413000Y-44238000D01*
X93286000Y-44238000D02*
X93286000Y-45762000D01*
X93159000Y-45762000D02*
X93159000Y-44238000D01*
X88460000Y-45762000D02*
X88968000Y-45762000D01*
X88460000Y-44238000D02*
X88460000Y-45762000D01*
X93540000Y-44238000D02*
X88460000Y-44238000D01*
X93540000Y-45762000D02*
X93540000Y-44238000D01*
X88460000Y-45762000D02*
X93540000Y-45762000D01*
X112778000Y-45762000D02*
X112778000Y-44238000D01*
X112905000Y-45762000D02*
X112905000Y-44238000D01*
X113032000Y-44238000D02*
X113032000Y-45762000D01*
X113413000Y-45762000D02*
X113413000Y-44238000D01*
X113286000Y-44238000D02*
X113286000Y-45762000D01*
X113159000Y-45762000D02*
X113159000Y-44238000D01*
X108460000Y-45762000D02*
X108968000Y-45762000D01*
X108460000Y-44238000D02*
X108460000Y-45762000D01*
X113540000Y-44238000D02*
X108460000Y-44238000D01*
X113540000Y-45762000D02*
X113540000Y-44238000D01*
X108460000Y-45762000D02*
X113540000Y-45762000D01*
X127460000Y-45762000D02*
X132540000Y-45762000D01*
X132540000Y-45762000D02*
X132540000Y-44238000D01*
X132540000Y-44238000D02*
X127460000Y-44238000D01*
X127460000Y-44238000D02*
X127460000Y-45762000D01*
X127460000Y-45762000D02*
X127968000Y-45762000D01*
X132159000Y-45762000D02*
X132159000Y-44238000D01*
X132286000Y-44238000D02*
X132286000Y-45762000D01*
X132413000Y-45762000D02*
X132413000Y-44238000D01*
X132032000Y-44238000D02*
X132032000Y-45762000D01*
X131905000Y-45762000D02*
X131905000Y-44238000D01*
X131778000Y-45762000D02*
X131778000Y-44238000D01*
X146460000Y-45762000D02*
X151540000Y-45762000D01*
X151540000Y-45762000D02*
X151540000Y-44238000D01*
X151540000Y-44238000D02*
X146460000Y-44238000D01*
X146460000Y-44238000D02*
X146460000Y-45762000D01*
X146460000Y-45762000D02*
X146968000Y-45762000D01*
X151159000Y-45762000D02*
X151159000Y-44238000D01*
X151286000Y-44238000D02*
X151286000Y-45762000D01*
X151413000Y-45762000D02*
X151413000Y-44238000D01*
X151032000Y-44238000D02*
X151032000Y-45762000D01*
X150905000Y-45762000D02*
X150905000Y-44238000D01*
X150778000Y-45762000D02*
X150778000Y-44238000D01*
X170460000Y-45762000D02*
X175540000Y-45762000D01*
X175540000Y-45762000D02*
X175540000Y-44238000D01*
X175540000Y-44238000D02*
X170460000Y-44238000D01*
X170460000Y-44238000D02*
X170460000Y-45762000D01*
X170460000Y-45762000D02*
X170968000Y-45762000D01*
X175159000Y-45762000D02*
X175159000Y-44238000D01*
X175286000Y-44238000D02*
X175286000Y-45762000D01*
X175413000Y-45762000D02*
X175413000Y-44238000D01*
X175032000Y-44238000D02*
X175032000Y-45762000D01*
X174905000Y-45762000D02*
X174905000Y-44238000D01*
X174778000Y-45762000D02*
X174778000Y-44238000D01*
X87778000Y-64762000D02*
X87778000Y-63238000D01*
X87905000Y-64762000D02*
X87905000Y-63238000D01*
X88032000Y-63238000D02*
X88032000Y-64762000D01*
X88413000Y-64762000D02*
X88413000Y-63238000D01*
X88286000Y-63238000D02*
X88286000Y-64762000D01*
X88159000Y-64762000D02*
X88159000Y-63238000D01*
X83460000Y-64762000D02*
X83968000Y-64762000D01*
X83460000Y-63238000D02*
X83460000Y-64762000D01*
X88540000Y-63238000D02*
X83460000Y-63238000D01*
X88540000Y-64762000D02*
X88540000Y-63238000D01*
X83460000Y-64762000D02*
X88540000Y-64762000D01*
X112460000Y-64762000D02*
X117540000Y-64762000D01*
X117540000Y-64762000D02*
X117540000Y-63238000D01*
X117540000Y-63238000D02*
X112460000Y-63238000D01*
X112460000Y-63238000D02*
X112460000Y-64762000D01*
X112460000Y-64762000D02*
X112968000Y-64762000D01*
X117159000Y-64762000D02*
X117159000Y-63238000D01*
X117286000Y-63238000D02*
X117286000Y-64762000D01*
X117413000Y-64762000D02*
X117413000Y-63238000D01*
X117032000Y-63238000D02*
X117032000Y-64762000D01*
X116905000Y-64762000D02*
X116905000Y-63238000D01*
X116778000Y-64762000D02*
X116778000Y-63238000D01*
X61884123Y-8761904D02*
X61884123Y-7961904D01*
X62074600Y-7961904D01*
X62188885Y-8000000D01*
X62265076Y-8076190D01*
X62303171Y-8152380D01*
X62341266Y-8304761D01*
X62341266Y-8419047D01*
X62303171Y-8571428D01*
X62265076Y-8647619D01*
X62188885Y-8723809D01*
X62074600Y-8761904D01*
X61884123Y-8761904D01*
X63103171Y-8761904D02*
X62646028Y-8761904D01*
X62874600Y-8761904D02*
X62874600Y-7961904D01*
X62798409Y-8076190D01*
X62722219Y-8152380D01*
X62646028Y-8190476D01*
X138284123Y-8261904D02*
X138284123Y-7461904D01*
X138474600Y-7461904D01*
X138588885Y-7500000D01*
X138665076Y-7576190D01*
X138703171Y-7652380D01*
X138741266Y-7804761D01*
X138741266Y-7919047D01*
X138703171Y-8071428D01*
X138665076Y-8147619D01*
X138588885Y-8223809D01*
X138474600Y-8261904D01*
X138284123Y-8261904D01*
X139046028Y-7538095D02*
X139084123Y-7500000D01*
X139160314Y-7461904D01*
X139350790Y-7461904D01*
X139426980Y-7500000D01*
X139465076Y-7538095D01*
X139503171Y-7614285D01*
X139503171Y-7690476D01*
X139465076Y-7804761D01*
X139007933Y-8261904D01*
X139503171Y-8261904D01*
X42384123Y-27761904D02*
X42384123Y-26961904D01*
X42574600Y-26961904D01*
X42688885Y-27000000D01*
X42765076Y-27076190D01*
X42803171Y-27152380D01*
X42841266Y-27304761D01*
X42841266Y-27419047D01*
X42803171Y-27571428D01*
X42765076Y-27647619D01*
X42688885Y-27723809D01*
X42574600Y-27761904D01*
X42384123Y-27761904D01*
X43107933Y-26961904D02*
X43603171Y-26961904D01*
X43336504Y-27266666D01*
X43450790Y-27266666D01*
X43526980Y-27304761D01*
X43565076Y-27342857D01*
X43603171Y-27419047D01*
X43603171Y-27609523D01*
X43565076Y-27685714D01*
X43526980Y-27723809D01*
X43450790Y-27761904D01*
X43222219Y-27761904D01*
X43146028Y-27723809D01*
X43107933Y-27685714D01*
X60984123Y-27761904D02*
X60984123Y-26961904D01*
X61174600Y-26961904D01*
X61288885Y-27000000D01*
X61365076Y-27076190D01*
X61403171Y-27152380D01*
X61441266Y-27304761D01*
X61441266Y-27419047D01*
X61403171Y-27571428D01*
X61365076Y-27647619D01*
X61288885Y-27723809D01*
X61174600Y-27761904D01*
X60984123Y-27761904D01*
X62126980Y-27228571D02*
X62126980Y-27761904D01*
X61936504Y-26923809D02*
X61746028Y-27495238D01*
X62241266Y-27495238D01*
X79784123Y-27761904D02*
X79784123Y-26961904D01*
X79974600Y-26961904D01*
X80088885Y-27000000D01*
X80165076Y-27076190D01*
X80203171Y-27152380D01*
X80241266Y-27304761D01*
X80241266Y-27419047D01*
X80203171Y-27571428D01*
X80165076Y-27647619D01*
X80088885Y-27723809D01*
X79974600Y-27761904D01*
X79784123Y-27761904D01*
X80965076Y-26961904D02*
X80584123Y-26961904D01*
X80546028Y-27342857D01*
X80584123Y-27304761D01*
X80660314Y-27266666D01*
X80850790Y-27266666D01*
X80926980Y-27304761D01*
X80965076Y-27342857D01*
X81003171Y-27419047D01*
X81003171Y-27609523D01*
X80965076Y-27685714D01*
X80926980Y-27723809D01*
X80850790Y-27761904D01*
X80660314Y-27761904D01*
X80584123Y-27723809D01*
X80546028Y-27685714D01*
X118984123Y-27761904D02*
X118984123Y-26961904D01*
X119174600Y-26961904D01*
X119288885Y-27000000D01*
X119365076Y-27076190D01*
X119403171Y-27152380D01*
X119441266Y-27304761D01*
X119441266Y-27419047D01*
X119403171Y-27571428D01*
X119365076Y-27647619D01*
X119288885Y-27723809D01*
X119174600Y-27761904D01*
X118984123Y-27761904D01*
X120126980Y-26961904D02*
X119974600Y-26961904D01*
X119898409Y-27000000D01*
X119860314Y-27038095D01*
X119784123Y-27152380D01*
X119746028Y-27304761D01*
X119746028Y-27609523D01*
X119784123Y-27685714D01*
X119822219Y-27723809D01*
X119898409Y-27761904D01*
X120050790Y-27761904D01*
X120126980Y-27723809D01*
X120165076Y-27685714D01*
X120203171Y-27609523D01*
X120203171Y-27419047D01*
X120165076Y-27342857D01*
X120126980Y-27304761D01*
X120050790Y-27266666D01*
X119898409Y-27266666D01*
X119822219Y-27304761D01*
X119784123Y-27342857D01*
X119746028Y-27419047D01*
X137884123Y-27761904D02*
X137884123Y-26961904D01*
X138074600Y-26961904D01*
X138188885Y-27000000D01*
X138265076Y-27076190D01*
X138303171Y-27152380D01*
X138341266Y-27304761D01*
X138341266Y-27419047D01*
X138303171Y-27571428D01*
X138265076Y-27647619D01*
X138188885Y-27723809D01*
X138074600Y-27761904D01*
X137884123Y-27761904D01*
X138607933Y-26961904D02*
X139141266Y-26961904D01*
X138798409Y-27761904D01*
X156984123Y-27761904D02*
X156984123Y-26961904D01*
X157174600Y-26961904D01*
X157288885Y-27000000D01*
X157365076Y-27076190D01*
X157403171Y-27152380D01*
X157441266Y-27304761D01*
X157441266Y-27419047D01*
X157403171Y-27571428D01*
X157365076Y-27647619D01*
X157288885Y-27723809D01*
X157174600Y-27761904D01*
X156984123Y-27761904D01*
X157898409Y-27304761D02*
X157822219Y-27266666D01*
X157784123Y-27228571D01*
X157746028Y-27152380D01*
X157746028Y-27114285D01*
X157784123Y-27038095D01*
X157822219Y-27000000D01*
X157898409Y-26961904D01*
X158050790Y-26961904D01*
X158126980Y-27000000D01*
X158165076Y-27038095D01*
X158203171Y-27114285D01*
X158203171Y-27152380D01*
X158165076Y-27228571D01*
X158126980Y-27266666D01*
X158050790Y-27304761D01*
X157898409Y-27304761D01*
X157822219Y-27342857D01*
X157784123Y-27380952D01*
X157746028Y-27457142D01*
X157746028Y-27609523D01*
X157784123Y-27685714D01*
X157822219Y-27723809D01*
X157898409Y-27761904D01*
X158050790Y-27761904D01*
X158126980Y-27723809D01*
X158165076Y-27685714D01*
X158203171Y-27609523D01*
X158203171Y-27457142D01*
X158165076Y-27380952D01*
X158126980Y-27342857D01*
X158050790Y-27304761D01*
X27984123Y-46761904D02*
X27984123Y-45961904D01*
X28174600Y-45961904D01*
X28288885Y-46000000D01*
X28365076Y-46076190D01*
X28403171Y-46152380D01*
X28441266Y-46304761D01*
X28441266Y-46419047D01*
X28403171Y-46571428D01*
X28365076Y-46647619D01*
X28288885Y-46723809D01*
X28174600Y-46761904D01*
X27984123Y-46761904D01*
X28822219Y-46761904D02*
X28974600Y-46761904D01*
X29050790Y-46723809D01*
X29088885Y-46685714D01*
X29165076Y-46571428D01*
X29203171Y-46419047D01*
X29203171Y-46114285D01*
X29165076Y-46038095D01*
X29126980Y-46000000D01*
X29050790Y-45961904D01*
X28898409Y-45961904D01*
X28822219Y-46000000D01*
X28784123Y-46038095D01*
X28746028Y-46114285D01*
X28746028Y-46304761D01*
X28784123Y-46380952D01*
X28822219Y-46419047D01*
X28898409Y-46457142D01*
X29050790Y-46457142D01*
X29126980Y-46419047D01*
X29165076Y-46380952D01*
X29203171Y-46304761D01*
X51603171Y-46761904D02*
X51603171Y-45961904D01*
X51793647Y-45961904D01*
X51907933Y-46000000D01*
X51984123Y-46076190D01*
X52022219Y-46152380D01*
X52060314Y-46304761D01*
X52060314Y-46419047D01*
X52022219Y-46571428D01*
X51984123Y-46647619D01*
X51907933Y-46723809D01*
X51793647Y-46761904D01*
X51603171Y-46761904D01*
X52822219Y-46761904D02*
X52365076Y-46761904D01*
X52593647Y-46761904D02*
X52593647Y-45961904D01*
X52517457Y-46076190D01*
X52441266Y-46152380D01*
X52365076Y-46190476D01*
X53317457Y-45961904D02*
X53393647Y-45961904D01*
X53469838Y-46000000D01*
X53507933Y-46038095D01*
X53546028Y-46114285D01*
X53584123Y-46266666D01*
X53584123Y-46457142D01*
X53546028Y-46609523D01*
X53507933Y-46685714D01*
X53469838Y-46723809D01*
X53393647Y-46761904D01*
X53317457Y-46761904D01*
X53241266Y-46723809D01*
X53203171Y-46685714D01*
X53165076Y-46609523D01*
X53126980Y-46457142D01*
X53126980Y-46266666D01*
X53165076Y-46114285D01*
X53203171Y-46038095D01*
X53241266Y-46000000D01*
X53317457Y-45961904D01*
X71103171Y-46761904D02*
X71103171Y-45961904D01*
X71293647Y-45961904D01*
X71407933Y-46000000D01*
X71484123Y-46076190D01*
X71522219Y-46152380D01*
X71560314Y-46304761D01*
X71560314Y-46419047D01*
X71522219Y-46571428D01*
X71484123Y-46647619D01*
X71407933Y-46723809D01*
X71293647Y-46761904D01*
X71103171Y-46761904D01*
X72322219Y-46761904D02*
X71865076Y-46761904D01*
X72093647Y-46761904D02*
X72093647Y-45961904D01*
X72017457Y-46076190D01*
X71941266Y-46152380D01*
X71865076Y-46190476D01*
X73084123Y-46761904D02*
X72626980Y-46761904D01*
X72855552Y-46761904D02*
X72855552Y-45961904D01*
X72779361Y-46076190D01*
X72703171Y-46152380D01*
X72626980Y-46190476D01*
X90003171Y-46761904D02*
X90003171Y-45961904D01*
X90193647Y-45961904D01*
X90307933Y-46000000D01*
X90384123Y-46076190D01*
X90422219Y-46152380D01*
X90460314Y-46304761D01*
X90460314Y-46419047D01*
X90422219Y-46571428D01*
X90384123Y-46647619D01*
X90307933Y-46723809D01*
X90193647Y-46761904D01*
X90003171Y-46761904D01*
X91222219Y-46761904D02*
X90765076Y-46761904D01*
X90993647Y-46761904D02*
X90993647Y-45961904D01*
X90917457Y-46076190D01*
X90841266Y-46152380D01*
X90765076Y-46190476D01*
X91526980Y-46038095D02*
X91565076Y-46000000D01*
X91641266Y-45961904D01*
X91831742Y-45961904D01*
X91907933Y-46000000D01*
X91946028Y-46038095D01*
X91984123Y-46114285D01*
X91984123Y-46190476D01*
X91946028Y-46304761D01*
X91488885Y-46761904D01*
X91984123Y-46761904D01*
X110003171Y-46761904D02*
X110003171Y-45961904D01*
X110193647Y-45961904D01*
X110307933Y-46000000D01*
X110384123Y-46076190D01*
X110422219Y-46152380D01*
X110460314Y-46304761D01*
X110460314Y-46419047D01*
X110422219Y-46571428D01*
X110384123Y-46647619D01*
X110307933Y-46723809D01*
X110193647Y-46761904D01*
X110003171Y-46761904D01*
X111222219Y-46761904D02*
X110765076Y-46761904D01*
X110993647Y-46761904D02*
X110993647Y-45961904D01*
X110917457Y-46076190D01*
X110841266Y-46152380D01*
X110765076Y-46190476D01*
X111488885Y-45961904D02*
X111984123Y-45961904D01*
X111717457Y-46266666D01*
X111831742Y-46266666D01*
X111907933Y-46304761D01*
X111946028Y-46342857D01*
X111984123Y-46419047D01*
X111984123Y-46609523D01*
X111946028Y-46685714D01*
X111907933Y-46723809D01*
X111831742Y-46761904D01*
X111603171Y-46761904D01*
X111526980Y-46723809D01*
X111488885Y-46685714D01*
X129003171Y-46761904D02*
X129003171Y-45961904D01*
X129193647Y-45961904D01*
X129307933Y-46000000D01*
X129384123Y-46076190D01*
X129422219Y-46152380D01*
X129460314Y-46304761D01*
X129460314Y-46419047D01*
X129422219Y-46571428D01*
X129384123Y-46647619D01*
X129307933Y-46723809D01*
X129193647Y-46761904D01*
X129003171Y-46761904D01*
X130222219Y-46761904D02*
X129765076Y-46761904D01*
X129993647Y-46761904D02*
X129993647Y-45961904D01*
X129917457Y-46076190D01*
X129841266Y-46152380D01*
X129765076Y-46190476D01*
X130907933Y-46228571D02*
X130907933Y-46761904D01*
X130717457Y-45923809D02*
X130526980Y-46495238D01*
X131022219Y-46495238D01*
X148003171Y-46761904D02*
X148003171Y-45961904D01*
X148193647Y-45961904D01*
X148307933Y-46000000D01*
X148384123Y-46076190D01*
X148422219Y-46152380D01*
X148460314Y-46304761D01*
X148460314Y-46419047D01*
X148422219Y-46571428D01*
X148384123Y-46647619D01*
X148307933Y-46723809D01*
X148193647Y-46761904D01*
X148003171Y-46761904D01*
X149222219Y-46761904D02*
X148765076Y-46761904D01*
X148993647Y-46761904D02*
X148993647Y-45961904D01*
X148917457Y-46076190D01*
X148841266Y-46152380D01*
X148765076Y-46190476D01*
X149946028Y-45961904D02*
X149565076Y-45961904D01*
X149526980Y-46342857D01*
X149565076Y-46304761D01*
X149641266Y-46266666D01*
X149831742Y-46266666D01*
X149907933Y-46304761D01*
X149946028Y-46342857D01*
X149984123Y-46419047D01*
X149984123Y-46609523D01*
X149946028Y-46685714D01*
X149907933Y-46723809D01*
X149831742Y-46761904D01*
X149641266Y-46761904D01*
X149565076Y-46723809D01*
X149526980Y-46685714D01*
X172003171Y-46761904D02*
X172003171Y-45961904D01*
X172193647Y-45961904D01*
X172307933Y-46000000D01*
X172384123Y-46076190D01*
X172422219Y-46152380D01*
X172460314Y-46304761D01*
X172460314Y-46419047D01*
X172422219Y-46571428D01*
X172384123Y-46647619D01*
X172307933Y-46723809D01*
X172193647Y-46761904D01*
X172003171Y-46761904D01*
X173222219Y-46761904D02*
X172765076Y-46761904D01*
X172993647Y-46761904D02*
X172993647Y-45961904D01*
X172917457Y-46076190D01*
X172841266Y-46152380D01*
X172765076Y-46190476D01*
X173907933Y-45961904D02*
X173755552Y-45961904D01*
X173679361Y-46000000D01*
X173641266Y-46038095D01*
X173565076Y-46152380D01*
X173526980Y-46304761D01*
X173526980Y-46609523D01*
X173565076Y-46685714D01*
X173603171Y-46723809D01*
X173679361Y-46761904D01*
X173831742Y-46761904D01*
X173907933Y-46723809D01*
X173946028Y-46685714D01*
X173984123Y-46609523D01*
X173984123Y-46419047D01*
X173946028Y-46342857D01*
X173907933Y-46304761D01*
X173831742Y-46266666D01*
X173679361Y-46266666D01*
X173603171Y-46304761D01*
X173565076Y-46342857D01*
X173526980Y-46419047D01*
X85003171Y-65761904D02*
X85003171Y-64961904D01*
X85193647Y-64961904D01*
X85307933Y-65000000D01*
X85384123Y-65076190D01*
X85422219Y-65152380D01*
X85460314Y-65304761D01*
X85460314Y-65419047D01*
X85422219Y-65571428D01*
X85384123Y-65647619D01*
X85307933Y-65723809D01*
X85193647Y-65761904D01*
X85003171Y-65761904D01*
X86222219Y-65761904D02*
X85765076Y-65761904D01*
X85993647Y-65761904D02*
X85993647Y-64961904D01*
X85917457Y-65076190D01*
X85841266Y-65152380D01*
X85765076Y-65190476D01*
X86488885Y-64961904D02*
X87022219Y-64961904D01*
X86679361Y-65761904D01*
X114003171Y-65761904D02*
X114003171Y-64961904D01*
X114193647Y-64961904D01*
X114307933Y-65000000D01*
X114384123Y-65076190D01*
X114422219Y-65152380D01*
X114460314Y-65304761D01*
X114460314Y-65419047D01*
X114422219Y-65571428D01*
X114384123Y-65647619D01*
X114307933Y-65723809D01*
X114193647Y-65761904D01*
X114003171Y-65761904D01*
X115222219Y-65761904D02*
X114765076Y-65761904D01*
X114993647Y-65761904D02*
X114993647Y-64961904D01*
X114917457Y-65076190D01*
X114841266Y-65152380D01*
X114765076Y-65190476D01*
X115679361Y-65304761D02*
X115603171Y-65266666D01*
X115565076Y-65228571D01*
X115526980Y-65152380D01*
X115526980Y-65114285D01*
X115565076Y-65038095D01*
X115603171Y-65000000D01*
X115679361Y-64961904D01*
X115831742Y-64961904D01*
X115907933Y-65000000D01*
X115946028Y-65038095D01*
X115984123Y-65114285D01*
X115984123Y-65152380D01*
X115946028Y-65228571D01*
X115907933Y-65266666D01*
X115831742Y-65304761D01*
X115679361Y-65304761D01*
X115603171Y-65342857D01*
X115565076Y-65380952D01*
X115526980Y-65457142D01*
X115526980Y-65609523D01*
X115565076Y-65685714D01*
X115603171Y-65723809D01*
X115679361Y-65761904D01*
X115831742Y-65761904D01*
X115907933Y-65723809D01*
X115946028Y-65685714D01*
X115984123Y-65609523D01*
X115984123Y-65457142D01*
X115946028Y-65380952D01*
X115907933Y-65342857D01*
X115831742Y-65304761D01*
M02*
